<?xml version="1.0" encoding="UTF-8" standalone="no"?>
<!DOCTYPE svg PUBLIC "-//W3C//DTD SVG 1.1//EN"
 "http://www.w3.org/Graphics/SVG/1.1/DTD/svg11.dtd">
<!-- Generated by graphviz version 2.34.0 (20140110.0334)
 -->
<!-- Title: src/board.cpp Pages: 1 -->
<!--zoomable 252 -->
<svg id="main" version="1.1" xmlns="http://www.w3.org/2000/svg" xmlns:xlink="http://www.w3.org/1999/xlink" xml:space="preserve" onload="init(evt)">
<style type="text/css"><![CDATA[
.edge:hover path { stroke: red; }
.edge:hover polygon { stroke: red; fill: red; }
]]></style>
<script type="text/javascript"><![CDATA[
var edges = document.getElementsByTagName('g');
if (edges && edges.length) {
  for (var i=0;i<edges.length;i++) {
    if (edges[i].id.substr(0,4)=='edge') {
      edges[i].setAttribute('class','edge');
    }
  }
}
]]></script>
        <defs>
                <circle id="rim" cx="0" cy="0" r="7"/>
                <circle id="rim2" cx="0" cy="0" r="3.5"/>
                <g id="zoomPlus">
                        <use xlink:href="#rim" fill="#404040">
                                <set attributeName="fill" to="#808080" begin="zoomplus.mouseover" end="zoomplus.mouseout"/>
                        </use>
                        <path d="M-4,0h8M0,-4v8" fill="none" stroke="white" stroke-width="1.5" pointer-events="none"/>
                </g>
                <g id="zoomMin">
                        <use xlink:href="#rim" fill="#404040">
                                <set attributeName="fill" to="#808080" begin="zoomminus.mouseover" end="zoomminus.mouseout"/>
                        </use>
                        <path d="M-4,0h8" fill="none" stroke="white" stroke-width="1.5" pointer-events="none"/>
                </g>
                <g id="dirArrow">
                        <path fill="none" stroke="white" stroke-width="1.5" d="M0,-3.0v7 M-2.5,-0.5L0,-3.0L2.5,-0.5"/>
                </g>
               <g id="resetDef">
                       <use xlink:href="#rim2" fill="#404040">
                               <set attributeName="fill" to="#808080" begin="reset.mouseover" end="reset.mouseout"/>
                       </use>
               </g>
        </defs>

<script type="text/javascript">
var viewWidth = 748;
var viewHeight = 252;
var sectionId = 'dynsection-0';
</script>
<script xlink:href="svgpan.js"/>
<svg id="graph" class="graph">
<g id="viewport">
<title>src/board.cpp</title>
<polygon fill="white" stroke="white" points="-4,4 -4,-248 744,-248 744,4 -4,4"/>
<!-- Node1 -->
<g id="node1" class="node"><title>Node1</title>
<polygon fill="#bfbfbf" stroke="black" points="352,-224.5 352,-243.5 428,-243.5 428,-224.5 352,-224.5"/>
<text text-anchor="middle" x="390" y="-231.5" font-family="Helvetica,sans-Serif" font-size="10.00">src/board.cpp</text>
</g>
<!-- Node2 -->
<g id="node2" class="node"><title>Node2</title>
<g id="a_node2"><a xlink:href="board_8hpp.html" target="_top" xlink:title="Board class header. ">
<polygon fill="white" stroke="black" points="360.5,-168.5 360.5,-187.5 419.5,-187.5 419.5,-168.5 360.5,-168.5"/>
<text text-anchor="middle" x="390" y="-175.5" font-family="Helvetica,sans-Serif" font-size="10.00">board.hpp</text>
</a>
</g>
</g>
<!-- Node1&#45;&gt;Node2 -->
<g id="edge1" class="edge"><title>Node1&#45;&gt;Node2</title>
<path fill="none" stroke="midnightblue" d="M390,-224.083C390,-217.006 390,-206.861 390,-197.986"/>
<polygon fill="midnightblue" stroke="midnightblue" points="393.5,-197.751 390,-187.751 386.5,-197.751 393.5,-197.751"/>
</g>
<!-- Node3 -->
<g id="node3" class="node"><title>Node3</title>
<g id="a_node3"><a xlink:href="common_8hpp.html" target="_top" xlink:title="Common header. ">
<polygon fill="white" stroke="black" points="-0.5,-56.5 -0.5,-75.5 72.5,-75.5 72.5,-56.5 -0.5,-56.5"/>
<text text-anchor="middle" x="36" y="-63.5" font-family="Helvetica,sans-Serif" font-size="10.00">common.hpp</text>
</a>
</g>
</g>
<!-- Node2&#45;&gt;Node3 -->
<g id="edge2" class="edge"><title>Node2&#45;&gt;Node3</title>
<path fill="none" stroke="midnightblue" d="M360.398,-175.719C292.235,-172.298 126.482,-161.138 80,-132 62.551,-121.062 50.3698,-100.386 43.3177,-85.2813"/>
<polygon fill="midnightblue" stroke="midnightblue" points="46.441,-83.6861 39.2532,-75.9023 40.0182,-86.4695 46.441,-83.6861"/>
</g>
<!-- Node5 -->
<g id="node5" class="node"><title>Node5</title>
<g id="a_node5"><a xlink:href="square_8hpp.html" target="_top" xlink:title="Square class header. ">
<polygon fill="white" stroke="black" points="89.5,-112.5 89.5,-131.5 154.5,-131.5 154.5,-112.5 89.5,-112.5"/>
<text text-anchor="middle" x="122" y="-119.5" font-family="Helvetica,sans-Serif" font-size="10.00">square.hpp</text>
</a>
</g>
</g>
<!-- Node2&#45;&gt;Node5 -->
<g id="edge4" class="edge"><title>Node2&#45;&gt;Node5</title>
<path fill="none" stroke="midnightblue" d="M360.295,-171.015C312.796,-161.444 219.539,-142.653 164.834,-131.631"/>
<polygon fill="midnightblue" stroke="midnightblue" points="165.254,-128.145 154.759,-129.601 163.871,-135.007 165.254,-128.145"/>
</g>
<!-- Node6 -->
<g id="node6" class="node"><title>Node6</title>
<polygon fill="white" stroke="#bfbfbf" points="90.5,-56.5 90.5,-75.5 149.5,-75.5 149.5,-56.5 90.5,-56.5"/>
<text text-anchor="middle" x="120" y="-63.5" font-family="Helvetica,sans-Serif" font-size="10.00">exception</text>
</g>
<!-- Node2&#45;&gt;Node6 -->
<g id="edge19" class="edge"><title>Node2&#45;&gt;Node6</title>
<path fill="none" stroke="midnightblue" d="M360.405,-172.827C324.344,-166.997 262.15,-154.511 213,-132 184.527,-118.959 155.551,-97.0467 137.678,-82.3112"/>
<polygon fill="midnightblue" stroke="midnightblue" points="139.753,-79.4828 129.847,-75.7243 135.247,-84.8398 139.753,-79.4828"/>
</g>
<!-- Node8 -->
<g id="node8" class="node"><title>Node8</title>
<g id="a_node8"><a xlink:href="confmanager_8hpp.html" target="_top" xlink:title="Configuration file management header. ">
<polygon fill="white" stroke="black" points="222,-112.5 222,-131.5 314,-131.5 314,-112.5 222,-112.5"/>
<text text-anchor="middle" x="268" y="-119.5" font-family="Helvetica,sans-Serif" font-size="10.00">confmanager.hpp</text>
</a>
</g>
</g>
<!-- Node2&#45;&gt;Node8 -->
<g id="edge8" class="edge"><title>Node2&#45;&gt;Node8</title>
<path fill="none" stroke="midnightblue" d="M370.669,-168.444C350.68,-159.596 319.257,-145.687 296.436,-135.586"/>
<polygon fill="midnightblue" stroke="midnightblue" points="297.802,-132.363 287.241,-131.516 294.968,-138.764 297.802,-132.363"/>
</g>
<!-- Node11 -->
<g id="node11" class="node"><title>Node11</title>
<polygon fill="white" stroke="#bfbfbf" points="509,-56.5 509,-75.5 553,-75.5 553,-56.5 509,-56.5"/>
<text text-anchor="middle" x="531" y="-63.5" font-family="Helvetica,sans-Serif" font-size="10.00">vector</text>
</g>
<!-- Node2&#45;&gt;Node11 -->
<g id="edge17" class="edge"><title>Node2&#45;&gt;Node11</title>
<path fill="none" stroke="midnightblue" d="M380.681,-168.304C367.699,-155.135 347.235,-129.785 361,-112 398.153,-63.9986 434.71,-90.0303 498.61,-76.0514"/>
<polygon fill="midnightblue" stroke="midnightblue" points="499.802,-79.3623 508.671,-73.5668 498.123,-72.5665 499.802,-79.3623"/>
</g>
<!-- Node14 -->
<g id="node14" class="node"><title>Node14</title>
<polygon fill="white" stroke="#bfbfbf" points="370,-112.5 370,-131.5 410,-131.5 410,-112.5 370,-112.5"/>
<text text-anchor="middle" x="390" y="-119.5" font-family="Helvetica,sans-Serif" font-size="10.00">limits</text>
</g>
<!-- Node2&#45;&gt;Node14 -->
<g id="edge18" class="edge"><title>Node2&#45;&gt;Node14</title>
<path fill="none" stroke="midnightblue" d="M390,-168.083C390,-161.006 390,-150.861 390,-141.986"/>
<polygon fill="midnightblue" stroke="midnightblue" points="393.5,-141.751 390,-131.751 386.5,-141.751 393.5,-141.751"/>
</g>
<!-- Node15 -->
<g id="node15" class="node"><title>Node15</title>
<polygon fill="white" stroke="#bfbfbf" points="428.5,-112.5 428.5,-131.5 487.5,-131.5 487.5,-112.5 428.5,-112.5"/>
<text text-anchor="middle" x="458" y="-119.5" font-family="Helvetica,sans-Serif" font-size="10.00">ncurses.h</text>
</g>
<!-- Node2&#45;&gt;Node15 -->
<g id="edge20" class="edge"><title>Node2&#45;&gt;Node15</title>
<path fill="none" stroke="midnightblue" d="M400.925,-168.324C411.175,-160.185 426.721,-147.839 439.001,-138.087"/>
<polygon fill="midnightblue" stroke="midnightblue" points="441.221,-140.794 446.876,-131.834 436.868,-135.312 441.221,-140.794"/>
</g>
<!-- Node16 -->
<g id="node16" class="node"><title>Node16</title>
<polygon fill="white" stroke="#bfbfbf" points="506,-112.5 506,-131.5 550,-131.5 550,-112.5 506,-112.5"/>
<text text-anchor="middle" x="528" y="-119.5" font-family="Helvetica,sans-Serif" font-size="10.00">cmath</text>
</g>
<!-- Node2&#45;&gt;Node16 -->
<g id="edge21" class="edge"><title>Node2&#45;&gt;Node16</title>
<path fill="none" stroke="midnightblue" d="M411.867,-168.444C434.779,-159.478 470.975,-145.314 496.866,-135.183"/>
<polygon fill="midnightblue" stroke="midnightblue" points="498.199,-138.42 506.236,-131.516 495.648,-131.901 498.199,-138.42"/>
</g>
<!-- Node17 -->
<g id="node17" class="node"><title>Node17</title>
<polygon fill="white" stroke="#bfbfbf" points="568.5,-112.5 568.5,-131.5 613.5,-131.5 613.5,-112.5 568.5,-112.5"/>
<text text-anchor="middle" x="591" y="-119.5" font-family="Helvetica,sans-Serif" font-size="10.00">cstdlib</text>
</g>
<!-- Node2&#45;&gt;Node17 -->
<g id="edge22" class="edge"><title>Node2&#45;&gt;Node17</title>
<path fill="none" stroke="midnightblue" d="M419.751,-169.075C453.339,-160.117 509.613,-145.079 558,-132 558.208,-131.944 558.416,-131.887 558.626,-131.831"/>
<polygon fill="midnightblue" stroke="midnightblue" points="559.547,-135.207 568.281,-129.211 557.714,-128.452 559.547,-135.207"/>
</g>
<!-- Node18 -->
<g id="node18" class="node"><title>Node18</title>
<polygon fill="white" stroke="#bfbfbf" points="632,-112.5 632,-131.5 678,-131.5 678,-112.5 632,-112.5"/>
<text text-anchor="middle" x="655" y="-119.5" font-family="Helvetica,sans-Serif" font-size="10.00">chrono</text>
</g>
<!-- Node2&#45;&gt;Node18 -->
<g id="edge23" class="edge"><title>Node2&#45;&gt;Node18</title>
<path fill="none" stroke="midnightblue" d="M419.815,-171.952C464.123,-164.284 549.876,-148.805 622,-132 622.101,-131.976 622.203,-131.953 622.304,-131.929"/>
<polygon fill="midnightblue" stroke="midnightblue" points="623.122,-135.332 631.977,-129.515 621.427,-128.541 623.122,-135.332"/>
</g>
<!-- Node19 -->
<g id="node19" class="node"><title>Node19</title>
<polygon fill="white" stroke="#bfbfbf" points="696,-112.5 696,-131.5 740,-131.5 740,-112.5 696,-112.5"/>
<text text-anchor="middle" x="718" y="-119.5" font-family="Helvetica,sans-Serif" font-size="10.00">thread</text>
</g>
<!-- Node2&#45;&gt;Node19 -->
<g id="edge24" class="edge"><title>Node2&#45;&gt;Node19</title>
<path fill="none" stroke="midnightblue" d="M419.746,-173.813C471.821,-167.95 582.992,-154.178 685.817,-132.015"/>
<polygon fill="midnightblue" stroke="midnightblue" points="686.719,-135.401 695.74,-129.844 685.223,-128.563 686.719,-135.401"/>
</g>
<!-- Node4 -->
<g id="node4" class="node"><title>Node4</title>
<polygon fill="white" stroke="#bfbfbf" points="16,-0.5 16,-19.5 56,-19.5 56,-0.5 16,-0.5"/>
<text text-anchor="middle" x="36" y="-7.5" font-family="Helvetica,sans-Serif" font-size="10.00">utility</text>
</g>
<!-- Node3&#45;&gt;Node4 -->
<g id="edge3" class="edge"><title>Node3&#45;&gt;Node4</title>
<path fill="none" stroke="midnightblue" d="M36,-56.083C36,-49.0059 36,-38.8611 36,-29.9865"/>
<polygon fill="midnightblue" stroke="midnightblue" points="39.5001,-29.751 36,-19.7511 32.5001,-29.7511 39.5001,-29.751"/>
</g>
<!-- Node5&#45;&gt;Node3 -->
<g id="edge5" class="edge"><title>Node5&#45;&gt;Node3</title>
<path fill="none" stroke="midnightblue" d="M108.183,-112.324C94.767,-103.9 74.1759,-90.9709 58.4144,-81.0741"/>
<polygon fill="midnightblue" stroke="midnightblue" points="60.1132,-78.0081 49.7831,-75.6545 56.3908,-83.9364 60.1132,-78.0081"/>
</g>
<!-- Node5&#45;&gt;Node6 -->
<g id="edge6" class="edge"><title>Node5&#45;&gt;Node6</title>
<path fill="none" stroke="midnightblue" d="M121.67,-112.083C121.408,-105.006 121.032,-94.8611 120.703,-85.9865"/>
<polygon fill="midnightblue" stroke="midnightblue" points="124.192,-85.6147 120.324,-75.7511 117.197,-85.8738 124.192,-85.6147"/>
</g>
<!-- Node7 -->
<g id="node7" class="node"><title>Node7</title>
<polygon fill="white" stroke="#bfbfbf" points="167.5,-56.5 167.5,-75.5 226.5,-75.5 226.5,-56.5 167.5,-56.5"/>
<text text-anchor="middle" x="197" y="-63.5" font-family="Helvetica,sans-Serif" font-size="10.00">stdexcept</text>
</g>
<!-- Node5&#45;&gt;Node7 -->
<g id="edge7" class="edge"><title>Node5&#45;&gt;Node7</title>
<path fill="none" stroke="midnightblue" d="M134.05,-112.324C145.463,-104.107 162.831,-91.6017 176.435,-81.8069"/>
<polygon fill="midnightblue" stroke="midnightblue" points="178.66,-84.5174 184.731,-75.8339 174.57,-78.8366 178.66,-84.5174"/>
</g>
<!-- Node8&#45;&gt;Node3 -->
<g id="edge9" class="edge"><title>Node8&#45;&gt;Node3</title>
<path fill="none" stroke="midnightblue" d="M231.239,-112.444C190.937,-103.063 126.191,-87.9926 82.4154,-77.8036"/>
<polygon fill="midnightblue" stroke="midnightblue" points="83.1222,-74.3746 72.5891,-75.5164 81.5353,-81.1924 83.1222,-74.3746"/>
</g>
<!-- Node8&#45;&gt;Node6 -->
<g id="edge13" class="edge"><title>Node8&#45;&gt;Node6</title>
<path fill="none" stroke="midnightblue" d="M244.549,-112.444C219.867,-103.438 180.815,-89.1891 153.023,-79.049"/>
<polygon fill="midnightblue" stroke="midnightblue" points="153.935,-75.6561 143.341,-75.5164 151.536,-82.2321 153.935,-75.6561"/>
</g>
<!-- Node8&#45;&gt;Node7 -->
<g id="edge12" class="edge"><title>Node8&#45;&gt;Node7</title>
<path fill="none" stroke="midnightblue" d="M256.593,-112.324C245.891,-104.185 229.659,-91.8395 216.837,-82.0874"/>
<polygon fill="midnightblue" stroke="midnightblue" points="218.693,-79.1018 208.615,-75.8339 214.456,-84.6734 218.693,-79.1018"/>
</g>
<!-- Node9 -->
<g id="node9" class="node"><title>Node9</title>
<polygon fill="white" stroke="#bfbfbf" points="245,-56.5 245,-75.5 295,-75.5 295,-56.5 245,-56.5"/>
<text text-anchor="middle" x="270" y="-63.5" font-family="Helvetica,sans-Serif" font-size="10.00">fstream</text>
</g>
<!-- Node8&#45;&gt;Node9 -->
<g id="edge10" class="edge"><title>Node8&#45;&gt;Node9</title>
<path fill="none" stroke="midnightblue" d="M268.33,-112.083C268.592,-105.006 268.968,-94.8611 269.297,-85.9865"/>
<polygon fill="midnightblue" stroke="midnightblue" points="272.803,-85.8738 269.676,-75.7511 265.808,-85.6147 272.803,-85.8738"/>
</g>
<!-- Node10 -->
<g id="node10" class="node"><title>Node10</title>
<polygon fill="white" stroke="#bfbfbf" points="313.5,-56.5 313.5,-75.5 354.5,-75.5 354.5,-56.5 313.5,-56.5"/>
<text text-anchor="middle" x="334" y="-63.5" font-family="Helvetica,sans-Serif" font-size="10.00">string</text>
</g>
<!-- Node8&#45;&gt;Node10 -->
<g id="edge11" class="edge"><title>Node8&#45;&gt;Node10</title>
<path fill="none" stroke="midnightblue" d="M278.604,-112.324C288.456,-104.263 303.351,-92.0765 315.215,-82.3695"/>
<polygon fill="midnightblue" stroke="midnightblue" points="317.68,-84.8752 323.203,-75.8339 313.247,-79.4575 317.68,-84.8752"/>
</g>
<!-- Node8&#45;&gt;Node11 -->
<g id="edge14" class="edge"><title>Node8&#45;&gt;Node11</title>
<path fill="none" stroke="midnightblue" d="M314.047,-113.342C358.94,-105.591 429.315,-92.6904 498.903,-76.0985"/>
<polygon fill="midnightblue" stroke="midnightblue" points="499.813,-79.4795 508.714,-73.733 498.172,-72.6745 499.813,-79.4795"/>
</g>
<!-- Node12 -->
<g id="node12" class="node"><title>Node12</title>
<polygon fill="white" stroke="#bfbfbf" points="373,-56.5 373,-75.5 427,-75.5 427,-56.5 373,-56.5"/>
<text text-anchor="middle" x="400" y="-63.5" font-family="Helvetica,sans-Serif" font-size="10.00">iostream</text>
</g>
<!-- Node8&#45;&gt;Node12 -->
<g id="edge15" class="edge"><title>Node8&#45;&gt;Node12</title>
<path fill="none" stroke="midnightblue" d="M288.916,-112.444C310.736,-103.517 345.15,-89.4387 369.892,-79.3168"/>
<polygon fill="midnightblue" stroke="midnightblue" points="371.252,-82.5422 379.182,-75.5164 368.601,-76.0634 371.252,-82.5422"/>
</g>
<!-- Node13 -->
<g id="node13" class="node"><title>Node13</title>
<polygon fill="white" stroke="#bfbfbf" points="445,-56.5 445,-75.5 491,-75.5 491,-56.5 445,-56.5"/>
<text text-anchor="middle" x="468" y="-63.5" font-family="Helvetica,sans-Serif" font-size="10.00">cctype</text>
</g>
<!-- Node8&#45;&gt;Node13 -->
<g id="edge16" class="edge"><title>Node8&#45;&gt;Node13</title>
<path fill="none" stroke="midnightblue" d="M300.239,-112.492C332.1,-104.056 382.486,-90.6396 435.093,-76.2254"/>
<polygon fill="midnightblue" stroke="midnightblue" points="436.221,-79.5454 444.938,-73.5233 434.368,-72.795 436.221,-79.5454"/>
</g>
</g>
</svg>
        <g id="navigator" transform="translate(0 0)" fill="#404254">
                <rect fill="#f2f5e9" fill-opacity="0.5" stroke="#606060" stroke-width=".5" x="0" y="0" width="60" height="60"/>
                <use id="zoomplus" xlink:href="#zoomPlus" x="17" y="9" onmousedown="handleZoom(evt,'in')"/>
                <use id="zoomminus" xlink:href="#zoomMin" x="42" y="9" onmousedown="handleZoom(evt,'out')"/>
                <use id="reset" xlink:href="#resetDef" x="30" y="36" onmousedown="handleReset()"/>
                <g id="arrowUp" xlink:href="#dirArrow" transform="translate(30 24)" onmousedown="handlePan(0,-1)">
                  <use xlink:href="#rim" fill="#404040">
                        <set attributeName="fill" to="#808080" begin="arrowUp.mouseover" end="arrowUp.mouseout"/>
                  </use>
                  <path fill="none" stroke="white" stroke-width="1.5" d="M0,-3.0v7 M-2.5,-0.5L0,-3.0L2.5,-0.5"/>
                </g>
                <g id="arrowRight" xlink:href="#dirArrow" transform="rotate(90) translate(36 -43)" onmousedown="handlePan(1,0)">
                  <use xlink:href="#rim" fill="#404040">
                        <set attributeName="fill" to="#808080" begin="arrowRight.mouseover" end="arrowRight.mouseout"/>
                  </use>
                  <path fill="none" stroke="white" stroke-width="1.5" d="M0,-3.0v7 M-2.5,-0.5L0,-3.0L2.5,-0.5"/>
                </g>
                <g id="arrowDown" xlink:href="#dirArrow" transform="rotate(180) translate(-30 -48)" onmousedown="handlePan(0,1)">
                  <use xlink:href="#rim" fill="#404040">
                        <set attributeName="fill" to="#808080" begin="arrowDown.mouseover" end="arrowDown.mouseout"/>
                  </use>
                  <path fill="none" stroke="white" stroke-width="1.5" d="M0,-3.0v7 M-2.5,-0.5L0,-3.0L2.5,-0.5"/>
                </g>
                <g id="arrowLeft" xlink:href="#dirArrow" transform="rotate(270) translate(-36 17)" onmousedown="handlePan(-1,0)">
                  <use xlink:href="#rim" fill="#404040">
                        <set attributeName="fill" to="#808080" begin="arrowLeft.mouseover" end="arrowLeft.mouseout"/>
                  </use>
                  <path fill="none" stroke="white" stroke-width="1.5" d="M0,-3.0v7 M-2.5,-0.5L0,-3.0L2.5,-0.5"/>
                </g>
        </g>
        <svg viewBox="0 0 15 15" width="100%" height="30px" preserveAspectRatio="xMaxYMin meet">
         <g id="arrow_out" transform="scale(0.3 0.3)">
          <a xlink:href="board_8cpp__incl_org.svg" target="_base">
           <rect id="button" ry="5" rx="5" y="6" x="6" height="38" width="38"
                fill="#f2f5e9" fill-opacity="0.5" stroke="#606060" stroke-width="1.0"/>
           <path id="arrow"
             d="M 11.500037,31.436501 C 11.940474,20.09759 22.043105,11.32322 32.158766,21.979434 L 37.068811,17.246167 C 37.068811,17.246167 37.088388,32 37.088388,32 L 22.160133,31.978069 C 22.160133,31.978069 26.997745,27.140456 26.997745,27.140456 C 18.528582,18.264221 13.291696,25.230495 11.500037,31.436501 z"
             style="fill:#404040;"/>
          </a>
         </g>
        </svg>
</svg>
