<?xml version="1.0" encoding="UTF-8" standalone="no"?>
<!DOCTYPE svg PUBLIC "-//W3C//DTD SVG 1.1//EN"
 "http://www.w3.org/Graphics/SVG/1.1/DTD/svg11.dtd">
<!-- Generated by graphviz version 2.34.0 (20140110.0334)
 -->
<!-- Title: CBoard::ApplyPowerUp Pages: 1 -->
<svg width="656pt" height="180pt"
 viewBox="0.00 0.00 656.00 180.00" xmlns="http://www.w3.org/2000/svg" xmlns:xlink="http://www.w3.org/1999/xlink">
<g id="graph0" class="graph" transform="scale(1 1) rotate(0) translate(4 176)">
<title>CBoard::ApplyPowerUp</title>
<polygon fill="white" stroke="white" points="-4,4 -4,-176 652,-176 652,4 -4,4"/>
<!-- Node1 -->
<g id="node1" class="node"><title>Node1</title>
<polygon fill="#bfbfbf" stroke="black" points="0.5,-76.5 0.5,-95.5 121.5,-95.5 121.5,-76.5 0.5,-76.5"/>
<text text-anchor="middle" x="61" y="-83.5" font-family="Helvetica,sans-Serif" font-size="10.00">CBoard::ApplyPowerUp</text>
</g>
<!-- Node2 -->
<g id="node2" class="node"><title>Node2</title>
<g id="a_node2"><a xlink:href="class_c_board.html#a9b825449509fa118303842731dde17ff" target="_top" xlink:title="Plays a turn of the game. ">
<polygon fill="white" stroke="black" points="161,-76.5 161,-95.5 265,-95.5 265,-76.5 161,-76.5"/>
<text text-anchor="middle" x="213" y="-83.5" font-family="Helvetica,sans-Serif" font-size="10.00">CBoard::PlayRound</text>
</a>
</g>
</g>
<!-- Node1&#45;&gt;Node2 -->
<g id="edge1" class="edge"><title>Node1&#45;&gt;Node2</title>
<path fill="none" stroke="midnightblue" d="M121.715,-79.3762C131.195,-79.2177 141.015,-79.2085 150.534,-79.3486"/>
<polygon fill="midnightblue" stroke="midnightblue" points="150.644,-82.8516 160.715,-79.5593 150.789,-75.8531 150.644,-82.8516"/>
</g>
<!-- Node9 -->
<g id="node9" class="node"><title>Node9</title>
<g id="a_node9"><a xlink:href="class_c_board.html#a3f41c4ac3c41c93d094c9cf0574e57d9" target="_top" xlink:title="Delete all wall in the board and generate another board with wall. ">
<polygon fill="white" stroke="black" points="158.5,-19.5 158.5,-38.5 267.5,-38.5 267.5,-19.5 158.5,-19.5"/>
<text text-anchor="middle" x="213" y="-26.5" font-family="Helvetica,sans-Serif" font-size="10.00">CBoard::ChangeWall</text>
</a>
</g>
</g>
<!-- Node1&#45;&gt;Node9 -->
<g id="edge9" class="edge"><title>Node1&#45;&gt;Node9</title>
<path fill="none" stroke="midnightblue" d="M87.1066,-76.4595C111.767,-67.0884 149.599,-52.7124 177.164,-42.2377"/>
<polygon fill="midnightblue" stroke="midnightblue" points="178.707,-45.3956 186.811,-38.5716 176.22,-38.8521 178.707,-45.3956"/>
</g>
<!-- Node2&#45;&gt;Node1 -->
<g id="edge6" class="edge"><title>Node2&#45;&gt;Node1</title>
<path fill="none" stroke="midnightblue" d="M160.715,-92.4407C151.399,-92.6915 141.539,-92.7898 131.797,-92.7355"/>
<polygon fill="midnightblue" stroke="midnightblue" points="131.753,-89.2349 121.715,-92.6238 131.676,-96.2345 131.753,-89.2349"/>
</g>
<!-- Node3 -->
<g id="node3" class="node"><title>Node3</title>
<g id="a_node3"><a xlink:href="class_c_board.html#aba95815fd50be1fe6d6c922e9c49c91c" target="_top" xlink:title="Displays the current round of the game. ">
<polygon fill="white" stroke="black" points="338.5,-152.5 338.5,-171.5 427.5,-171.5 427.5,-152.5 338.5,-152.5"/>
<text text-anchor="middle" x="383" y="-159.5" font-family="Helvetica,sans-Serif" font-size="10.00">CBoard::Display</text>
</a>
</g>
</g>
<!-- Node2&#45;&gt;Node3 -->
<g id="edge2" class="edge"><title>Node2&#45;&gt;Node3</title>
<path fill="none" stroke="midnightblue" d="M226.382,-95.707C243.092,-108.355 274.211,-130.344 304,-143 311.745,-146.29 320.175,-149.086 328.536,-151.436"/>
<polygon fill="midnightblue" stroke="midnightblue" points="327.714,-154.839 338.275,-153.994 329.493,-148.069 327.714,-154.839"/>
</g>
<!-- Node5 -->
<g id="node5" class="node"><title>Node5</title>
<g id="a_node5"><a xlink:href="class_c_board.html#a1a48e50a148927a5cf49f8261777d5fa" target="_top" xlink:title="Gets input from the player. ">
<polygon fill="white" stroke="black" points="334,-114.5 334,-133.5 432,-133.5 432,-114.5 334,-114.5"/>
<text text-anchor="middle" x="383" y="-121.5" font-family="Helvetica,sans-Serif" font-size="10.00">CBoard::UserInput</text>
</a>
</g>
</g>
<!-- Node2&#45;&gt;Node5 -->
<g id="edge4" class="edge"><title>Node2&#45;&gt;Node5</title>
<path fill="none" stroke="midnightblue" d="M256.393,-95.589C278.763,-100.649 306.398,-106.9 330.047,-112.249"/>
<polygon fill="midnightblue" stroke="midnightblue" points="329.386,-115.687 339.911,-114.48 330.93,-108.86 329.386,-115.687"/>
</g>
<!-- Node6 -->
<g id="node6" class="node"><title>Node6</title>
<g id="a_node6"><a xlink:href="class_c_board.html#adc99d54f8a5d9ae58ef3d82cd314afb1" target="_top" xlink:title="Moves a square of the board. ">
<polygon fill="white" stroke="black" points="343,-76.5 343,-95.5 423,-95.5 423,-76.5 343,-76.5"/>
<text text-anchor="middle" x="383" y="-83.5" font-family="Helvetica,sans-Serif" font-size="10.00">CBoard::Move</text>
</a>
</g>
</g>
<!-- Node2&#45;&gt;Node6 -->
<g id="edge5" class="edge"><title>Node2&#45;&gt;Node6</title>
<path fill="none" stroke="midnightblue" d="M265.318,-86C286.796,-86 311.651,-86 332.888,-86"/>
<polygon fill="midnightblue" stroke="midnightblue" points="332.992,-89.5001 342.992,-86 332.992,-82.5001 332.992,-89.5001"/>
</g>
<!-- Node7 -->
<g id="node7" class="node"><title>Node7</title>
<g id="a_node7"><a xlink:href="class_c_board.html#a4095c3a98176578b2e1c478b5391eb1b" target="_top" xlink:title="Spawns an item in the board. ">
<polygon fill="white" stroke="black" points="330.5,-38.5 330.5,-57.5 435.5,-57.5 435.5,-38.5 330.5,-38.5"/>
<text text-anchor="middle" x="383" y="-45.5" font-family="Helvetica,sans-Serif" font-size="10.00">CBoard::SpawnItem</text>
</a>
</g>
</g>
<!-- Node2&#45;&gt;Node7 -->
<g id="edge7" class="edge"><title>Node2&#45;&gt;Node7</title>
<path fill="none" stroke="midnightblue" d="M256.393,-76.411C278.763,-71.3513 306.398,-65.1004 330.047,-59.7512"/>
<polygon fill="midnightblue" stroke="midnightblue" points="330.93,-63.1401 339.911,-57.5201 329.386,-56.3125 330.93,-63.1401"/>
</g>
<!-- Node4 -->
<g id="node4" class="node"><title>Node4</title>
<g id="a_node4"><a xlink:href="confmanager_8cpp.html#a3d49b8db3f20fb5a3dbca93f7a08e59a" target="_top" xlink:title="Read if the background display dots or not. ">
<polygon fill="white" stroke="black" points="509.5,-152.5 509.5,-171.5 636.5,-171.5 636.5,-152.5 509.5,-152.5"/>
<text text-anchor="middle" x="573" y="-159.5" font-family="Helvetica,sans-Serif" font-size="10.00">ReadDotsForBackground</text>
</a>
</g>
</g>
<!-- Node3&#45;&gt;Node4 -->
<g id="edge3" class="edge"><title>Node3&#45;&gt;Node4</title>
<path fill="none" stroke="midnightblue" d="M427.604,-162C448.864,-162 475.007,-162 499.18,-162"/>
<polygon fill="midnightblue" stroke="midnightblue" points="499.399,-165.5 509.399,-162 499.399,-158.5 499.399,-165.5"/>
</g>
<!-- Node8 -->
<g id="node8" class="node"><title>Node8</title>
<g id="a_node8"><a xlink:href="confmanager_8cpp.html#aea31b5d159b5351035176535e4abb7d8" target="_top" xlink:title="Reads the apparition frequency of items. ">
<polygon fill="white" stroke="black" points="498.5,-38.5 498.5,-57.5 647.5,-57.5 647.5,-38.5 498.5,-38.5"/>
<text text-anchor="middle" x="573" y="-45.5" font-family="Helvetica,sans-Serif" font-size="10.00">ReadItemApparitionFrequency</text>
</a>
</g>
</g>
<!-- Node7&#45;&gt;Node8 -->
<g id="edge8" class="edge"><title>Node7&#45;&gt;Node8</title>
<path fill="none" stroke="midnightblue" d="M435.869,-48C452.042,-48 470.311,-48 488.094,-48"/>
<polygon fill="midnightblue" stroke="midnightblue" points="488.488,-51.5001 498.488,-48 488.488,-44.5001 488.488,-51.5001"/>
</g>
<!-- Node10 -->
<g id="node10" class="node"><title>Node10</title>
<g id="a_node10"><a xlink:href="confmanager_8cpp.html#ab932d580893f474c2b6964224a611956" target="_top" xlink:title="Reads the apparition frequency of barriers. ">
<polygon fill="white" stroke="black" points="304,-0.5 304,-19.5 462,-19.5 462,-0.5 304,-0.5"/>
<text text-anchor="middle" x="383" y="-7.5" font-family="Helvetica,sans-Serif" font-size="10.00">ReadBarrierApparitionFrequency</text>
</a>
</g>
</g>
<!-- Node9&#45;&gt;Node10 -->
<g id="edge10" class="edge"><title>Node9&#45;&gt;Node10</title>
<path fill="none" stroke="midnightblue" d="M267.618,-22.936C275.991,-21.9892 284.828,-20.9896 293.73,-19.9829"/>
<polygon fill="midnightblue" stroke="midnightblue" points="294.244,-23.4472 303.787,-18.8455 293.457,-16.4916 294.244,-23.4472"/>
</g>
</g>
</svg>
