<?xml version="1.0" encoding="UTF-8" standalone="no"?>
<!DOCTYPE svg PUBLIC "-//W3C//DTD SVG 1.1//EN"
 "http://www.w3.org/Graphics/SVG/1.1/DTD/svg11.dtd">
<!-- Generated by graphviz version 2.34.0 (20140110.0334)
 -->
<!-- Title: CForm::Display Pages: 1 -->
<svg width="238pt" height="104pt"
 viewBox="0.00 0.00 238.00 104.00" xmlns="http://www.w3.org/2000/svg" xmlns:xlink="http://www.w3.org/1999/xlink">
<g id="graph0" class="graph" transform="scale(1 1) rotate(0) translate(4 100)">
<title>CForm::Display</title>
<polygon fill="white" stroke="white" points="-4,4 -4,-100 234,-100 234,4 -4,4"/>
<!-- Node1 -->
<g id="node1" class="node"><title>Node1</title>
<polygon fill="#bfbfbf" stroke="black" points="0,-38.5 0,-57.5 86,-57.5 86,-38.5 0,-38.5"/>
<text text-anchor="middle" x="43" y="-45.5" font-family="Helvetica,sans-Serif" font-size="10.00">CForm::Display</text>
</g>
<!-- Node2 -->
<g id="node2" class="node"><title>Node2</title>
<g id="a_node2"><a xlink:href="confmanager_8cpp.html#ade5d04a2a7fde153840d5a0748f3f0a7" target="_top" xlink:title="Write a comment in the configuration file. ">
<polygon fill="white" stroke="black" points="122.5,-76.5 122.5,-95.5 229.5,-95.5 229.5,-76.5 122.5,-76.5"/>
<text text-anchor="middle" x="176" y="-83.5" font-family="Helvetica,sans-Serif" font-size="10.00">WriteCommentInFile</text>
</a>
</g>
</g>
<!-- Node1&#45;&gt;Node2 -->
<g id="edge1" class="edge"><title>Node1&#45;&gt;Node2</title>
<path fill="none" stroke="midnightblue" d="M77.0568,-57.589C93.8125,-62.4494 114.358,-68.4091 132.297,-73.6127"/>
<polygon fill="midnightblue" stroke="midnightblue" points="131.375,-76.9895 141.954,-76.4141 133.325,-70.2666 131.375,-76.9895"/>
</g>
<!-- Node3 -->
<g id="node3" class="node"><title>Node3</title>
<g id="a_node3"><a xlink:href="confmanager_8cpp.html#aa77d65a36d86e37926c1c3accd5bcd4f" target="_top" xlink:title="Write an integer number in the configuration file. ">
<polygon fill="white" stroke="black" points="138.5,-38.5 138.5,-57.5 213.5,-57.5 213.5,-38.5 138.5,-38.5"/>
<text text-anchor="middle" x="176" y="-45.5" font-family="Helvetica,sans-Serif" font-size="10.00">WriteIntInFile</text>
</a>
</g>
</g>
<!-- Node1&#45;&gt;Node3 -->
<g id="edge2" class="edge"><title>Node1&#45;&gt;Node3</title>
<path fill="none" stroke="midnightblue" d="M86.1703,-48C99.5214,-48 114.36,-48 128.026,-48"/>
<polygon fill="midnightblue" stroke="midnightblue" points="128.204,-51.5001 138.204,-48 128.204,-44.5001 128.204,-51.5001"/>
</g>
<!-- Node4 -->
<g id="node4" class="node"><title>Node4</title>
<g id="a_node4"><a xlink:href="confmanager_8cpp.html#a1d7e449f88cd4b8f3f304bffedff4cf8" target="_top" xlink:title="Write a float number in the configuration file. ">
<polygon fill="white" stroke="black" points="133,-0.5 133,-19.5 219,-19.5 219,-0.5 133,-0.5"/>
<text text-anchor="middle" x="176" y="-7.5" font-family="Helvetica,sans-Serif" font-size="10.00">WriteFloatInFile</text>
</a>
</g>
</g>
<!-- Node1&#45;&gt;Node4 -->
<g id="edge3" class="edge"><title>Node1&#45;&gt;Node4</title>
<path fill="none" stroke="midnightblue" d="M77.0568,-38.411C93.8125,-33.5506 114.358,-27.5909 132.297,-22.3873"/>
<polygon fill="midnightblue" stroke="midnightblue" points="133.325,-25.7334 141.954,-19.5859 131.375,-19.0105 133.325,-25.7334"/>
</g>
</g>
</svg>
