<?xml version="1.0" encoding="UTF-8" standalone="no"?>
<!DOCTYPE svg PUBLIC "-//W3C//DTD SVG 1.1//EN"
 "http://www.w3.org/Graphics/SVG/1.1/DTD/svg11.dtd">
<!-- Generated by graphviz version 2.34.0 (20140110.0334)
 -->
<!-- Title: CBoard::PlayRound Pages: 1 -->
<!--zoomable 180 -->
<svg id="main" version="1.1" xmlns="http://www.w3.org/2000/svg" xmlns:xlink="http://www.w3.org/1999/xlink" xml:space="preserve" onload="init(evt)">
<style type="text/css"><![CDATA[
.edge:hover path { stroke: red; }
.edge:hover polygon { stroke: red; fill: red; }
]]></style>
<script type="text/javascript"><![CDATA[
var edges = document.getElementsByTagName('g');
if (edges && edges.length) {
  for (var i=0;i<edges.length;i++) {
    if (edges[i].id.substr(0,4)=='edge') {
      edges[i].setAttribute('class','edge');
    }
  }
}
]]></script>
        <defs>
                <circle id="rim" cx="0" cy="0" r="7"/>
                <circle id="rim2" cx="0" cy="0" r="3.5"/>
                <g id="zoomPlus">
                        <use xlink:href="#rim" fill="#404040">
                                <set attributeName="fill" to="#808080" begin="zoomplus.mouseover" end="zoomplus.mouseout"/>
                        </use>
                        <path d="M-4,0h8M0,-4v8" fill="none" stroke="white" stroke-width="1.5" pointer-events="none"/>
                </g>
                <g id="zoomMin">
                        <use xlink:href="#rim" fill="#404040">
                                <set attributeName="fill" to="#808080" begin="zoomminus.mouseover" end="zoomminus.mouseout"/>
                        </use>
                        <path d="M-4,0h8" fill="none" stroke="white" stroke-width="1.5" pointer-events="none"/>
                </g>
                <g id="dirArrow">
                        <path fill="none" stroke="white" stroke-width="1.5" d="M0,-3.0v7 M-2.5,-0.5L0,-3.0L2.5,-0.5"/>
                </g>
               <g id="resetDef">
                       <use xlink:href="#rim2" fill="#404040">
                               <set attributeName="fill" to="#808080" begin="reset.mouseover" end="reset.mouseout"/>
                       </use>
               </g>
        </defs>

<script type="text/javascript">
var viewWidth = 650;
var viewHeight = 180;
var sectionId = 'dynsection-7';
</script>
<script xlink:href="svgpan.js"/>
<svg id="graph" class="graph">
<g id="viewport">
<title>CBoard::PlayRound</title>
<polygon fill="white" stroke="white" points="-4,4 -4,-176 646,-176 646,4 -4,4"/>
<!-- Node1 -->
<g id="node1" class="node"><title>Node1</title>
<polygon fill="#bfbfbf" stroke="black" points="0,-57.5 0,-76.5 104,-76.5 104,-57.5 0,-57.5"/>
<text text-anchor="middle" x="52" y="-64.5" font-family="Helvetica,sans-Serif" font-size="10.00">CBoard::PlayRound</text>
</g>
<!-- Node2 -->
<g id="node2" class="node"><title>Node2</title>
<g id="a_node2"><a xlink:href="class_c_board.html#aba95815fd50be1fe6d6c922e9c49c91c" target="_top" xlink:title="Displays the current round of the game. ">
<polygon fill="white" stroke="black" points="156.5,-152.5 156.5,-171.5 245.5,-171.5 245.5,-152.5 156.5,-152.5"/>
<text text-anchor="middle" x="201" y="-159.5" font-family="Helvetica,sans-Serif" font-size="10.00">CBoard::Display</text>
</a>
</g>
</g>
<!-- Node1&#45;&gt;Node2 -->
<g id="edge1" class="edge"><title>Node1&#45;&gt;Node2</title>
<path fill="none" stroke="midnightblue" d="M61.4297,-76.5803C75.957,-92.5367 107.312,-124.615 140,-143 143.75,-145.109 147.766,-147.019 151.877,-148.741"/>
<polygon fill="midnightblue" stroke="midnightblue" points="150.971,-152.141 161.562,-152.423 153.459,-145.598 150.971,-152.141"/>
</g>
<!-- Node4 -->
<g id="node4" class="node"><title>Node4</title>
<g id="a_node4"><a xlink:href="class_c_board.html#a1a48e50a148927a5cf49f8261777d5fa" target="_top" xlink:title="Gets input from the player. ">
<polygon fill="white" stroke="black" points="152,-114.5 152,-133.5 250,-133.5 250,-114.5 152,-114.5"/>
<text text-anchor="middle" x="201" y="-121.5" font-family="Helvetica,sans-Serif" font-size="10.00">CBoard::UserInput</text>
</a>
</g>
</g>
<!-- Node1&#45;&gt;Node4 -->
<g id="edge3" class="edge"><title>Node1&#45;&gt;Node4</title>
<path fill="none" stroke="midnightblue" d="M73.1428,-76.5182C90.6187,-84.6017 116.701,-96.2503 140,-105 145.701,-107.141 151.764,-109.25 157.76,-111.24"/>
<polygon fill="midnightblue" stroke="midnightblue" points="157.122,-114.712 167.714,-114.461 159.277,-108.052 157.122,-114.712"/>
</g>
<!-- Node5 -->
<g id="node5" class="node"><title>Node5</title>
<g id="a_node5"><a xlink:href="class_c_board.html#adc99d54f8a5d9ae58ef3d82cd314afb1" target="_top" xlink:title="Moves a square of the board. ">
<polygon fill="white" stroke="black" points="161,-76.5 161,-95.5 241,-95.5 241,-76.5 161,-76.5"/>
<text text-anchor="middle" x="201" y="-83.5" font-family="Helvetica,sans-Serif" font-size="10.00">CBoard::Move</text>
</a>
</g>
</g>
<!-- Node1&#45;&gt;Node5 -->
<g id="edge4" class="edge"><title>Node1&#45;&gt;Node5</title>
<path fill="none" stroke="midnightblue" d="M104.001,-73.592C119.093,-75.5426 135.586,-77.6744 150.577,-79.6119"/>
<polygon fill="midnightblue" stroke="midnightblue" points="150.313,-83.1069 160.679,-80.9177 151.21,-76.1646 150.313,-83.1069"/>
</g>
<!-- Node6 -->
<g id="node6" class="node"><title>Node6</title>
<g id="a_node6"><a xlink:href="class_c_board.html#ab4117c3eab65f2cb45eb1d6ad6c26b21" target="_top" xlink:title="Apply a powerUp on a player. ">
<polygon fill="white" stroke="black" points="140.5,-38.5 140.5,-57.5 261.5,-57.5 261.5,-38.5 140.5,-38.5"/>
<text text-anchor="middle" x="201" y="-45.5" font-family="Helvetica,sans-Serif" font-size="10.00">CBoard::ApplyPowerUp</text>
</a>
</g>
</g>
<!-- Node1&#45;&gt;Node6 -->
<g id="edge5" class="edge"><title>Node1&#45;&gt;Node6</title>
<path fill="none" stroke="midnightblue" d="M83.4585,-57.4705C97.1083,-54.8709 113.816,-52.3283 130.271,-50.2705"/>
<polygon fill="midnightblue" stroke="midnightblue" points="130.94,-53.7157 140.454,-49.0557 130.11,-46.7649 130.94,-53.7157"/>
</g>
<!-- Node9 -->
<g id="node9" class="node"><title>Node9</title>
<g id="a_node9"><a xlink:href="class_c_board.html#a4095c3a98176578b2e1c478b5391eb1b" target="_top" xlink:title="Spawns an item in the board. ">
<polygon fill="white" stroke="black" points="148.5,-0.5 148.5,-19.5 253.5,-19.5 253.5,-0.5 148.5,-0.5"/>
<text text-anchor="middle" x="201" y="-7.5" font-family="Helvetica,sans-Serif" font-size="10.00">CBoard::SpawnItem</text>
</a>
</g>
</g>
<!-- Node1&#45;&gt;Node9 -->
<g id="edge9" class="edge"><title>Node1&#45;&gt;Node9</title>
<path fill="none" stroke="midnightblue" d="M73.1428,-57.4818C90.6187,-49.3983 116.701,-37.7497 140,-29 145.701,-26.859 151.764,-24.7497 157.76,-22.7598"/>
<polygon fill="midnightblue" stroke="midnightblue" points="159.277,-25.9477 167.714,-19.539 157.122,-19.2876 159.277,-25.9477"/>
</g>
<!-- Node3 -->
<g id="node3" class="node"><title>Node3</title>
<g id="a_node3"><a xlink:href="confmanager_8cpp.html#a3d49b8db3f20fb5a3dbca93f7a08e59a" target="_top" xlink:title="Read if the background display dots or not. ">
<polygon fill="white" stroke="black" points="309.5,-152.5 309.5,-171.5 436.5,-171.5 436.5,-152.5 309.5,-152.5"/>
<text text-anchor="middle" x="373" y="-159.5" font-family="Helvetica,sans-Serif" font-size="10.00">ReadDotsForBackground</text>
</a>
</g>
</g>
<!-- Node2&#45;&gt;Node3 -->
<g id="edge2" class="edge"><title>Node2&#45;&gt;Node3</title>
<path fill="none" stroke="midnightblue" d="M245.779,-162C262.132,-162 281.17,-162 299.426,-162"/>
<polygon fill="midnightblue" stroke="midnightblue" points="299.466,-165.5 309.466,-162 299.466,-158.5 299.466,-165.5"/>
</g>
<!-- Node6&#45;&gt;Node1 -->
<g id="edge6" class="edge"><title>Node6&#45;&gt;Node1</title>
<path fill="none" stroke="midnightblue" d="M169.659,-57.5072C153.615,-60.5669 133.324,-63.5494 114.18,-65.7574"/>
<polygon fill="midnightblue" stroke="midnightblue" points="113.562,-62.304 104.001,-66.8687 114.322,-69.2626 113.562,-62.304"/>
</g>
<!-- Node7 -->
<g id="node7" class="node"><title>Node7</title>
<g id="a_node7"><a xlink:href="class_c_board.html#a3f41c4ac3c41c93d094c9cf0574e57d9" target="_top" xlink:title="Delete all wall in the board and generate another board with wall. ">
<polygon fill="white" stroke="black" points="318.5,-38.5 318.5,-57.5 427.5,-57.5 427.5,-38.5 318.5,-38.5"/>
<text text-anchor="middle" x="373" y="-45.5" font-family="Helvetica,sans-Serif" font-size="10.00">CBoard::ChangeWall</text>
</a>
</g>
</g>
<!-- Node6&#45;&gt;Node7 -->
<g id="edge7" class="edge"><title>Node6&#45;&gt;Node7</title>
<path fill="none" stroke="midnightblue" d="M261.936,-48C276.848,-48 292.891,-48 307.991,-48"/>
<polygon fill="midnightblue" stroke="midnightblue" points="308.269,-51.5001 318.269,-48 308.269,-44.5001 308.269,-51.5001"/>
</g>
<!-- Node8 -->
<g id="node8" class="node"><title>Node8</title>
<g id="a_node8"><a xlink:href="confmanager_8cpp.html#ab932d580893f474c2b6964224a611956" target="_top" xlink:title="Reads the apparition frequency of barriers. ">
<polygon fill="white" stroke="black" points="484,-38.5 484,-57.5 642,-57.5 642,-38.5 484,-38.5"/>
<text text-anchor="middle" x="563" y="-45.5" font-family="Helvetica,sans-Serif" font-size="10.00">ReadBarrierApparitionFrequency</text>
</a>
</g>
</g>
<!-- Node7&#45;&gt;Node8 -->
<g id="edge8" class="edge"><title>Node7&#45;&gt;Node8</title>
<path fill="none" stroke="midnightblue" d="M427.622,-48C441.955,-48 457.836,-48 473.511,-48"/>
<polygon fill="midnightblue" stroke="midnightblue" points="473.764,-51.5001 483.764,-48 473.764,-44.5001 473.764,-51.5001"/>
</g>
<!-- Node10 -->
<g id="node10" class="node"><title>Node10</title>
<g id="a_node10"><a xlink:href="confmanager_8cpp.html#aea31b5d159b5351035176535e4abb7d8" target="_top" xlink:title="Reads the apparition frequency of items. ">
<polygon fill="white" stroke="black" points="298.5,-0.5 298.5,-19.5 447.5,-19.5 447.5,-0.5 298.5,-0.5"/>
<text text-anchor="middle" x="373" y="-7.5" font-family="Helvetica,sans-Serif" font-size="10.00">ReadItemApparitionFrequency</text>
</a>
</g>
</g>
<!-- Node9&#45;&gt;Node10 -->
<g id="edge10" class="edge"><title>Node9&#45;&gt;Node10</title>
<path fill="none" stroke="midnightblue" d="M253.929,-10C264.804,-10 276.535,-10 288.235,-10"/>
<polygon fill="midnightblue" stroke="midnightblue" points="288.486,-13.5001 298.486,-10 288.486,-6.5001 288.486,-13.5001"/>
</g>
</g>
</svg>
        <g id="navigator" transform="translate(0 0)" fill="#404254">
                <rect fill="#f2f5e9" fill-opacity="0.5" stroke="#606060" stroke-width=".5" x="0" y="0" width="60" height="60"/>
                <use id="zoomplus" xlink:href="#zoomPlus" x="17" y="9" onmousedown="handleZoom(evt,'in')"/>
                <use id="zoomminus" xlink:href="#zoomMin" x="42" y="9" onmousedown="handleZoom(evt,'out')"/>
                <use id="reset" xlink:href="#resetDef" x="30" y="36" onmousedown="handleReset()"/>
                <g id="arrowUp" xlink:href="#dirArrow" transform="translate(30 24)" onmousedown="handlePan(0,-1)">
                  <use xlink:href="#rim" fill="#404040">
                        <set attributeName="fill" to="#808080" begin="arrowUp.mouseover" end="arrowUp.mouseout"/>
                  </use>
                  <path fill="none" stroke="white" stroke-width="1.5" d="M0,-3.0v7 M-2.5,-0.5L0,-3.0L2.5,-0.5"/>
                </g>
                <g id="arrowRight" xlink:href="#dirArrow" transform="rotate(90) translate(36 -43)" onmousedown="handlePan(1,0)">
                  <use xlink:href="#rim" fill="#404040">
                        <set attributeName="fill" to="#808080" begin="arrowRight.mouseover" end="arrowRight.mouseout"/>
                  </use>
                  <path fill="none" stroke="white" stroke-width="1.5" d="M0,-3.0v7 M-2.5,-0.5L0,-3.0L2.5,-0.5"/>
                </g>
                <g id="arrowDown" xlink:href="#dirArrow" transform="rotate(180) translate(-30 -48)" onmousedown="handlePan(0,1)">
                  <use xlink:href="#rim" fill="#404040">
                        <set attributeName="fill" to="#808080" begin="arrowDown.mouseover" end="arrowDown.mouseout"/>
                  </use>
                  <path fill="none" stroke="white" stroke-width="1.5" d="M0,-3.0v7 M-2.5,-0.5L0,-3.0L2.5,-0.5"/>
                </g>
                <g id="arrowLeft" xlink:href="#dirArrow" transform="rotate(270) translate(-36 17)" onmousedown="handlePan(-1,0)">
                  <use xlink:href="#rim" fill="#404040">
                        <set attributeName="fill" to="#808080" begin="arrowLeft.mouseover" end="arrowLeft.mouseout"/>
                  </use>
                  <path fill="none" stroke="white" stroke-width="1.5" d="M0,-3.0v7 M-2.5,-0.5L0,-3.0L2.5,-0.5"/>
                </g>
        </g>
        <svg viewBox="0 0 15 15" width="100%" height="30px" preserveAspectRatio="xMaxYMin meet">
         <g id="arrow_out" transform="scale(0.3 0.3)">
          <a xlink:href="class_c_board_a9b825449509fa118303842731dde17ff_cgraph_org.svg" target="_base">
           <rect id="button" ry="5" rx="5" y="6" x="6" height="38" width="38"
                fill="#f2f5e9" fill-opacity="0.5" stroke="#606060" stroke-width="1.0"/>
           <path id="arrow"
             d="M 11.500037,31.436501 C 11.940474,20.09759 22.043105,11.32322 32.158766,21.979434 L 37.068811,17.246167 C 37.068811,17.246167 37.088388,32 37.088388,32 L 22.160133,31.978069 C 22.160133,31.978069 26.997745,27.140456 26.997745,27.140456 C 18.528582,18.264221 13.291696,25.230495 11.500037,31.436501 z"
             style="fill:#404040;"/>
          </a>
         </g>
        </svg>
</svg>
