<?xml version="1.0" encoding="UTF-8" standalone="no"?>
<!DOCTYPE svg PUBLIC "-//W3C//DTD SVG 1.1//EN"
 "http://www.w3.org/Graphics/SVG/1.1/DTD/svg11.dtd">
<!-- Generated by graphviz version 2.34.0 (20140110.0334)
 -->
<!-- Title: CBoard::ApplyPowerUp Pages: 1 -->
<svg width="344pt" height="28pt"
 viewBox="0.00 0.00 344.00 28.00" xmlns="http://www.w3.org/2000/svg" xmlns:xlink="http://www.w3.org/1999/xlink">
<g id="graph0" class="graph" transform="scale(1 1) rotate(0) translate(4 24)">
<title>CBoard::ApplyPowerUp</title>
<polygon fill="white" stroke="white" points="-4,4 -4,-24 340,-24 340,4 -4,4"/>
<!-- Node1 -->
<g id="node1" class="node"><title>Node1</title>
<polygon fill="#bfbfbf" stroke="black" points="0.5,-0.5 0.5,-19.5 121.5,-19.5 121.5,-0.5 0.5,-0.5"/>
<text text-anchor="middle" x="61" y="-7.5" font-family="Helvetica,sans-Serif" font-size="10.00">CBoard::ApplyPowerUp</text>
</g>
<!-- Node2 -->
<g id="node2" class="node"><title>Node2</title>
<g id="a_node2"><a xlink:href="class_c_board.html#a9b825449509fa118303842731dde17ff" target="_top" xlink:title="Plays a turn of the game. ">
<polygon fill="white" stroke="black" points="158,-0.5 158,-19.5 262,-19.5 262,-0.5 158,-0.5"/>
<text text-anchor="middle" x="210" y="-7.5" font-family="Helvetica,sans-Serif" font-size="10.00">CBoard::PlayRound</text>
</a>
</g>
</g>
<!-- Node1&#45;&gt;Node2 -->
<g id="edge1" class="edge"><title>Node1&#45;&gt;Node2</title>
<path fill="none" stroke="midnightblue" d="M131.94,-3.25704C140.637,-3.22261 149.4,-3.31444 157.741,-3.53253"/>
<polygon fill="midnightblue" stroke="midnightblue" points="131.756,0.241437 121.791,-3.35547 131.824,-6.75823 131.756,0.241437"/>
</g>
<!-- Node2&#45;&gt;Node1 -->
<g id="edge2" class="edge"><title>Node2&#45;&gt;Node1</title>
<path fill="none" stroke="midnightblue" d="M147.504,-16.6693C138.996,-16.7846 130.267,-16.7763 121.791,-16.6445"/>
<polygon fill="midnightblue" stroke="midnightblue" points="147.812,-20.164 157.741,-16.4675 147.674,-13.1654 147.812,-20.164"/>
</g>
<!-- Node3 -->
<g id="node3" class="node"><title>Node3</title>
<g id="a_node3"><a xlink:href="main_8cpp.html#ae66f6b31b5ad750f1fe042a706a4e3d4" target="_top" xlink:title="Main function. ">
<polygon fill="white" stroke="black" points="298,-0.5 298,-19.5 336,-19.5 336,-0.5 298,-0.5"/>
<text text-anchor="middle" x="317" y="-7.5" font-family="Helvetica,sans-Serif" font-size="10.00">main</text>
</a>
</g>
</g>
<!-- Node2&#45;&gt;Node3 -->
<g id="edge3" class="edge"><title>Node2&#45;&gt;Node3</title>
<path fill="none" stroke="midnightblue" d="M272.356,-10C281.568,-10 290.404,-10 297.688,-10"/>
<polygon fill="midnightblue" stroke="midnightblue" points="272.27,-6.5001 262.27,-10 272.27,-13.5001 272.27,-6.5001"/>
</g>
</g>
</svg>
