<?xml version="1.0" encoding="UTF-8" standalone="no"?>
<!DOCTYPE svg PUBLIC "-//W3C//DTD SVG 1.1//EN"
 "http://www.w3.org/Graphics/SVG/1.1/DTD/svg11.dtd">
<!-- Generated by graphviz version 2.34.0 (20140110.0334)
 -->
<!-- Title: CBoard::SpawnItem Pages: 1 -->
<svg width="412pt" height="66pt"
 viewBox="0.00 0.00 412.00 66.00" xmlns="http://www.w3.org/2000/svg" xmlns:xlink="http://www.w3.org/1999/xlink">
<g id="graph0" class="graph" transform="scale(1 1) rotate(0) translate(4 62)">
<title>CBoard::SpawnItem</title>
<polygon fill="white" stroke="white" points="-4,4 -4,-62 408,-62 408,4 -4,4"/>
<!-- Node1 -->
<g id="node1" class="node"><title>Node1</title>
<polygon fill="#bfbfbf" stroke="black" points="0.5,-38.5 0.5,-57.5 105.5,-57.5 105.5,-38.5 0.5,-38.5"/>
<text text-anchor="middle" x="53" y="-45.5" font-family="Helvetica,sans-Serif" font-size="10.00">CBoard::SpawnItem</text>
</g>
<!-- Node2 -->
<g id="node2" class="node"><title>Node2</title>
<g id="a_node2"><a xlink:href="class_c_board.html#a9b825449509fa118303842731dde17ff" target="_top" xlink:title="Plays a turn of the game. ">
<polygon fill="white" stroke="black" points="142,-38.5 142,-57.5 246,-57.5 246,-38.5 142,-38.5"/>
<text text-anchor="middle" x="194" y="-45.5" font-family="Helvetica,sans-Serif" font-size="10.00">CBoard::PlayRound</text>
</a>
</g>
</g>
<!-- Node1&#45;&gt;Node2 -->
<g id="edge1" class="edge"><title>Node1&#45;&gt;Node2</title>
<path fill="none" stroke="midnightblue" d="M115.797,-48C124.438,-48 133.241,-48 141.661,-48"/>
<polygon fill="midnightblue" stroke="midnightblue" points="115.759,-44.5001 105.758,-48 115.758,-51.5001 115.759,-44.5001"/>
</g>
<!-- Node3 -->
<g id="node3" class="node"><title>Node3</title>
<g id="a_node3"><a xlink:href="class_c_board.html#ab4117c3eab65f2cb45eb1d6ad6c26b21" target="_top" xlink:title="Apply a powerUp on a player. ">
<polygon fill="white" stroke="black" points="282.5,-38.5 282.5,-57.5 403.5,-57.5 403.5,-38.5 282.5,-38.5"/>
<text text-anchor="middle" x="343" y="-45.5" font-family="Helvetica,sans-Serif" font-size="10.00">CBoard::ApplyPowerUp</text>
</a>
</g>
</g>
<!-- Node2&#45;&gt;Node3 -->
<g id="edge2" class="edge"><title>Node2&#45;&gt;Node3</title>
<path fill="none" stroke="midnightblue" d="M256.036,-41.337C264.703,-41.2149 273.608,-41.2213 282.25,-41.3561"/>
<polygon fill="midnightblue" stroke="midnightblue" points="255.928,-37.8384 246.001,-41.5393 256.069,-44.837 255.928,-37.8384"/>
</g>
<!-- Node4 -->
<g id="node4" class="node"><title>Node4</title>
<g id="a_node4"><a xlink:href="main_8cpp.html#ae66f6b31b5ad750f1fe042a706a4e3d4" target="_top" xlink:title="Main function. ">
<polygon fill="white" stroke="black" points="324,-0.5 324,-19.5 362,-19.5 362,-0.5 324,-0.5"/>
<text text-anchor="middle" x="343" y="-7.5" font-family="Helvetica,sans-Serif" font-size="10.00">main</text>
</a>
</g>
</g>
<!-- Node2&#45;&gt;Node4 -->
<g id="edge4" class="edge"><title>Node2&#45;&gt;Node4</title>
<path fill="none" stroke="midnightblue" d="M242.029,-35.8429C269.805,-28.6626 303.403,-19.9774 323.717,-14.7263"/>
<polygon fill="midnightblue" stroke="midnightblue" points="240.9,-32.5195 232.094,-38.411 242.652,-39.2968 240.9,-32.5195"/>
</g>
<!-- Node3&#45;&gt;Node2 -->
<g id="edge3" class="edge"><title>Node3&#45;&gt;Node2</title>
<path fill="none" stroke="midnightblue" d="M272.014,-54.7431C263.243,-54.7774 254.405,-54.6833 246.001,-54.4607"/>
<polygon fill="midnightblue" stroke="midnightblue" points="272.284,-58.2408 282.25,-54.6439 272.217,-51.2411 272.284,-58.2408"/>
</g>
</g>
</svg>
