<?xml version="1.0" encoding="UTF-8" standalone="no"?>
<!DOCTYPE svg PUBLIC "-//W3C//DTD SVG 1.1//EN"
 "http://www.w3.org/Graphics/SVG/1.1/DTD/svg11.dtd">
<!-- Generated by graphviz version 2.34.0 (20140110.0334)
 -->
<!-- Title: src/common.hpp Pages: 1 -->
<!--zoomable 252 -->
<svg id="main" version="1.1" xmlns="http://www.w3.org/2000/svg" xmlns:xlink="http://www.w3.org/1999/xlink" xml:space="preserve" onload="init(evt)">
<style type="text/css"><![CDATA[
.edge:hover path { stroke: red; }
.edge:hover polygon { stroke: red; fill: red; }
]]></style>
<script type="text/javascript"><![CDATA[
var edges = document.getElementsByTagName('g');
if (edges && edges.length) {
  for (var i=0;i<edges.length;i++) {
    if (edges[i].id.substr(0,4)=='edge') {
      edges[i].setAttribute('class','edge');
    }
  }
}
]]></script>
        <defs>
                <circle id="rim" cx="0" cy="0" r="7"/>
                <circle id="rim2" cx="0" cy="0" r="3.5"/>
                <g id="zoomPlus">
                        <use xlink:href="#rim" fill="#404040">
                                <set attributeName="fill" to="#808080" begin="zoomplus.mouseover" end="zoomplus.mouseout"/>
                        </use>
                        <path d="M-4,0h8M0,-4v8" fill="none" stroke="white" stroke-width="1.5" pointer-events="none"/>
                </g>
                <g id="zoomMin">
                        <use xlink:href="#rim" fill="#404040">
                                <set attributeName="fill" to="#808080" begin="zoomminus.mouseover" end="zoomminus.mouseout"/>
                        </use>
                        <path d="M-4,0h8" fill="none" stroke="white" stroke-width="1.5" pointer-events="none"/>
                </g>
                <g id="dirArrow">
                        <path fill="none" stroke="white" stroke-width="1.5" d="M0,-3.0v7 M-2.5,-0.5L0,-3.0L2.5,-0.5"/>
                </g>
               <g id="resetDef">
                       <use xlink:href="#rim2" fill="#404040">
                               <set attributeName="fill" to="#808080" begin="reset.mouseover" end="reset.mouseout"/>
                       </use>
               </g>
        </defs>

<script type="text/javascript">
var viewWidth = 695;
var viewHeight = 252;
var sectionId = 'dynsection-1';
</script>
<script xlink:href="svgpan.js"/>
<svg id="graph" class="graph">
<g id="viewport">
<title>src/common.hpp</title>
<polygon fill="white" stroke="white" points="-4,4 -4,-248 691,-248 691,4 -4,4"/>
<!-- Node1 -->
<g id="node1" class="node"><title>Node1</title>
<polygon fill="#bfbfbf" stroke="black" points="361.5,-224.5 361.5,-243.5 450.5,-243.5 450.5,-224.5 361.5,-224.5"/>
<text text-anchor="middle" x="406" y="-231.5" font-family="Helvetica,sans-Serif" font-size="10.00">src/common.hpp</text>
</g>
<!-- Node2 -->
<g id="node2" class="node"><title>Node2</title>
<g id="a_node2"><a xlink:href="board_8hpp.html" target="_top" xlink:title="Board class header. ">
<polygon fill="white" stroke="black" points="99,-112.5 99,-131.5 175,-131.5 175,-112.5 99,-112.5"/>
<text text-anchor="middle" x="137" y="-119.5" font-family="Helvetica,sans-Serif" font-size="10.00">src/board.hpp</text>
</a>
</g>
</g>
<!-- Node1&#45;&gt;Node2 -->
<g id="edge1" class="edge"><title>Node1&#45;&gt;Node2</title>
<path fill="none" stroke="midnightblue" d="M374.827,-220.739C352.105,-211.765 320.596,-199.243 293,-188 244.091,-168.074 186.836,-144.034 157.152,-131.516"/>
<polygon fill="midnightblue" stroke="midnightblue" points="373.71,-224.061 384.296,-224.475 376.278,-217.549 373.71,-224.061"/>
</g>
<!-- Node4 -->
<g id="node4" class="node"><title>Node4</title>
<g id="a_node4"><a xlink:href="main_8hpp.html" target="_top" xlink:title="Main file header. ">
<polygon fill="white" stroke="black" points="387.5,-56.5 387.5,-75.5 460.5,-75.5 460.5,-56.5 387.5,-56.5"/>
<text text-anchor="middle" x="424" y="-63.5" font-family="Helvetica,sans-Serif" font-size="10.00">src/main.hpp</text>
</a>
</g>
</g>
<!-- Node1&#45;&gt;Node4 -->
<g id="edge21" class="edge"><title>Node1&#45;&gt;Node4</title>
<path fill="none" stroke="midnightblue" d="M412.375,-214.673C414.902,-206.596 417.547,-196.929 419,-188 425.786,-146.288 424.998,-95.4841 424.346,-75.5795"/>
<polygon fill="midnightblue" stroke="midnightblue" points="409.048,-213.586 409.232,-224.18 415.694,-215.784 409.048,-213.586"/>
</g>
<!-- Node6 -->
<g id="node6" class="node"><title>Node6</title>
<g id="a_node6"><a xlink:href="square_8hpp.html" target="_top" xlink:title="Square class header. ">
<polygon fill="white" stroke="black" points="96.5,-168.5 96.5,-187.5 177.5,-187.5 177.5,-168.5 96.5,-168.5"/>
<text text-anchor="middle" x="137" y="-175.5" font-family="Helvetica,sans-Serif" font-size="10.00">src/square.hpp</text>
</a>
</g>
</g>
<!-- Node1&#45;&gt;Node6 -->
<g id="edge5" class="edge"><title>Node1&#45;&gt;Node6</title>
<path fill="none" stroke="midnightblue" d="M353.442,-222.449C301.965,-212.116 224.612,-196.588 177.664,-187.163"/>
<polygon fill="midnightblue" stroke="midnightblue" points="352.883,-225.907 363.376,-224.444 354.261,-219.044 352.883,-225.907"/>
</g>
<!-- Node8 -->
<g id="node8" class="node"><title>Node8</title>
<g id="a_node8"><a xlink:href="confmanager_8hpp.html" target="_top" xlink:title="Configuration file management header. ">
<polygon fill="white" stroke="black" points="302,-168.5 302,-187.5 410,-187.5 410,-168.5 302,-168.5"/>
<text text-anchor="middle" x="356" y="-175.5" font-family="Helvetica,sans-Serif" font-size="10.00">src/confmanager.hpp</text>
</a>
</g>
</g>
<!-- Node1&#45;&gt;Node8 -->
<g id="edge8" class="edge"><title>Node1&#45;&gt;Node8</title>
<path fill="none" stroke="midnightblue" d="M390.924,-216.718C382.111,-207.2 371.334,-195.561 364.103,-187.751"/>
<polygon fill="midnightblue" stroke="midnightblue" points="388.381,-219.123 397.744,-224.083 393.518,-214.367 388.381,-219.123"/>
</g>
<!-- Node12 -->
<g id="node12" class="node"><title>Node12</title>
<g id="a_node12"><a xlink:href="menu_8hpp.html" target="_top" xlink:title="Menu class header. ">
<polygon fill="white" stroke="black" points="485,-112.5 485,-131.5 561,-131.5 561,-112.5 485,-112.5"/>
<text text-anchor="middle" x="523" y="-119.5" font-family="Helvetica,sans-Serif" font-size="10.00">src/menu.hpp</text>
</a>
</g>
</g>
<!-- Node1&#45;&gt;Node12 -->
<g id="edge22" class="edge"><title>Node1&#45;&gt;Node12</title>
<path fill="none" stroke="midnightblue" d="M429.624,-219.008C442.531,-210.801 458.403,-199.754 471,-188 490.23,-170.056 508.4,-144.773 517.298,-131.656"/>
<polygon fill="midnightblue" stroke="midnightblue" points="427.497,-216.209 420.84,-224.452 431.184,-222.159 427.497,-216.209"/>
</g>
<!-- Node14 -->
<g id="node14" class="node"><title>Node14</title>
<g id="a_node14"><a xlink:href="help_8hpp.html" target="_top" xlink:title="Help class header. ">
<polygon fill="white" stroke="black" points="554,-168.5 554,-187.5 624,-187.5 624,-168.5 554,-168.5"/>
<text text-anchor="middle" x="589" y="-175.5" font-family="Helvetica,sans-Serif" font-size="10.00">src/help.hpp</text>
</a>
</g>
</g>
<!-- Node1&#45;&gt;Node14 -->
<g id="edge18" class="edge"><title>Node1&#45;&gt;Node14</title>
<path fill="none" stroke="midnightblue" d="M444.743,-221.568C479.265,-211.381 529.005,-196.703 560.139,-187.516"/>
<polygon fill="midnightblue" stroke="midnightblue" points="443.597,-218.256 434.997,-224.444 445.579,-224.97 443.597,-218.256"/>
</g>
<!-- Node3 -->
<g id="node3" class="node"><title>Node3</title>
<g id="a_node3"><a xlink:href="board_8cpp.html" target="_top" xlink:title="Board class implementation. ">
<polygon fill="white" stroke="black" points="99,-56.5 99,-75.5 175,-75.5 175,-56.5 99,-56.5"/>
<text text-anchor="middle" x="137" y="-63.5" font-family="Helvetica,sans-Serif" font-size="10.00">src/board.cpp</text>
</a>
</g>
</g>
<!-- Node2&#45;&gt;Node3 -->
<g id="edge2" class="edge"><title>Node2&#45;&gt;Node3</title>
<path fill="none" stroke="midnightblue" d="M137,-101.805C137,-92.9102 137,-82.7798 137,-75.7511"/>
<polygon fill="midnightblue" stroke="midnightblue" points="133.5,-102.083 137,-112.083 140.5,-102.083 133.5,-102.083"/>
</g>
<!-- Node2&#45;&gt;Node4 -->
<g id="edge3" class="edge"><title>Node2&#45;&gt;Node4</title>
<path fill="none" stroke="midnightblue" d="M185.179,-111.782C262.907,-97.0653 342.258,-82.2353 387.398,-73.8176"/>
<polygon fill="midnightblue" stroke="midnightblue" points="184.391,-108.369 175.217,-113.669 185.694,-115.247 184.391,-108.369"/>
</g>
<!-- Node5 -->
<g id="node5" class="node"><title>Node5</title>
<g id="a_node5"><a xlink:href="main_8cpp.html" target="_top" xlink:title="Main file. ">
<polygon fill="white" stroke="black" points="387.5,-0.5 387.5,-19.5 460.5,-19.5 460.5,-0.5 387.5,-0.5"/>
<text text-anchor="middle" x="424" y="-7.5" font-family="Helvetica,sans-Serif" font-size="10.00">src/main.cpp</text>
</a>
</g>
</g>
<!-- Node4&#45;&gt;Node5 -->
<g id="edge4" class="edge"><title>Node4&#45;&gt;Node5</title>
<path fill="none" stroke="midnightblue" d="M424,-45.8045C424,-36.9102 424,-26.7798 424,-19.7511"/>
<polygon fill="midnightblue" stroke="midnightblue" points="420.5,-46.083 424,-56.083 427.5,-46.083 420.5,-46.083"/>
</g>
<!-- Node6&#45;&gt;Node2 -->
<g id="edge6" class="edge"><title>Node6&#45;&gt;Node2</title>
<path fill="none" stroke="midnightblue" d="M137,-157.805C137,-148.91 137,-138.78 137,-131.751"/>
<polygon fill="midnightblue" stroke="midnightblue" points="133.5,-158.083 137,-168.083 140.5,-158.083 133.5,-158.083"/>
</g>
<!-- Node7 -->
<g id="node7" class="node"><title>Node7</title>
<g id="a_node7"><a xlink:href="square_8cpp.html" target="_top" xlink:title="Square class implementation. ">
<polygon fill="white" stroke="black" points="-0.5,-112.5 -0.5,-131.5 80.5,-131.5 80.5,-112.5 -0.5,-112.5"/>
<text text-anchor="middle" x="40" y="-119.5" font-family="Helvetica,sans-Serif" font-size="10.00">src/square.cpp</text>
</a>
</g>
</g>
<!-- Node6&#45;&gt;Node7 -->
<g id="edge7" class="edge"><title>Node6&#45;&gt;Node7</title>
<path fill="none" stroke="midnightblue" d="M112.665,-163.453C94.7574,-153.483 70.9463,-140.228 55.5461,-131.655"/>
<polygon fill="midnightblue" stroke="midnightblue" points="110.975,-166.518 121.415,-168.324 114.38,-160.402 110.975,-166.518"/>
</g>
<!-- Node8&#45;&gt;Node2 -->
<g id="edge9" class="edge"><title>Node8&#45;&gt;Node2</title>
<path fill="none" stroke="midnightblue" d="M311.485,-166.024C270.116,-155.823 209.357,-140.841 171.539,-131.516"/>
<polygon fill="midnightblue" stroke="midnightblue" points="310.752,-169.448 321.299,-168.444 312.428,-162.651 310.752,-169.448"/>
</g>
<!-- Node8&#45;&gt;Node4 -->
<g id="edge14" class="edge"><title>Node8&#45;&gt;Node4</title>
<path fill="none" stroke="midnightblue" d="M374.249,-161.662C382.98,-153.563 393.024,-143.03 400,-132 411.702,-113.497 418.896,-88.4496 422.077,-75.5154"/>
<polygon fill="midnightblue" stroke="midnightblue" points="371.867,-159.096 366.726,-168.36 376.522,-164.324 371.867,-159.096"/>
</g>
<!-- Node9 -->
<g id="node9" class="node"><title>Node9</title>
<g id="a_node9"><a xlink:href="confmanager_8cpp.html" target="_top" xlink:title="Configuration file management implementation. ">
<polygon fill="white" stroke="black" points="283,-112.5 283,-131.5 391,-131.5 391,-112.5 283,-112.5"/>
<text text-anchor="middle" x="337" y="-119.5" font-family="Helvetica,sans-Serif" font-size="10.00">src/confmanager.cpp</text>
</a>
</g>
</g>
<!-- Node8&#45;&gt;Node9 -->
<g id="edge10" class="edge"><title>Node8&#45;&gt;Node9</title>
<path fill="none" stroke="midnightblue" d="M349.454,-158.396C346.276,-149.362 342.607,-138.936 340.079,-131.751"/>
<polygon fill="midnightblue" stroke="midnightblue" points="346.242,-159.812 352.863,-168.083 352.845,-157.488 346.242,-159.812"/>
</g>
<!-- Node10 -->
<g id="node10" class="node"><title>Node10</title>
<g id="a_node10"><a xlink:href="form_8hpp.html" target="_top" xlink:title="Header of the Form class. ">
<polygon fill="white" stroke="black" points="193.5,-112.5 193.5,-131.5 264.5,-131.5 264.5,-112.5 193.5,-112.5"/>
<text text-anchor="middle" x="229" y="-119.5" font-family="Helvetica,sans-Serif" font-size="10.00">src/form.hpp</text>
</a>
</g>
</g>
<!-- Node8&#45;&gt;Node10 -->
<g id="edge11" class="edge"><title>Node8&#45;&gt;Node10</title>
<path fill="none" stroke="midnightblue" d="M326.609,-164.503C302.8,-154.38 269.894,-140.388 249.029,-131.516"/>
<polygon fill="midnightblue" stroke="midnightblue" points="325.304,-167.751 335.876,-168.444 328.043,-161.31 325.304,-167.751"/>
</g>
<!-- Node8&#45;&gt;Node12 -->
<g id="edge15" class="edge"><title>Node8&#45;&gt;Node12</title>
<path fill="none" stroke="midnightblue" d="M392.17,-165.304C423.637,-155.129 468.494,-140.625 496.662,-131.516"/>
<polygon fill="midnightblue" stroke="midnightblue" points="390.9,-162.037 382.462,-168.444 393.053,-168.697 390.9,-162.037"/>
</g>
<!-- Node10&#45;&gt;Node4 -->
<g id="edge13" class="edge"><title>Node10&#45;&gt;Node4</title>
<path fill="none" stroke="midnightblue" d="M269.81,-109.699C306.613,-99.507 359.929,-84.7429 393.246,-75.5164"/>
<polygon fill="midnightblue" stroke="midnightblue" points="268.602,-106.402 259.898,-112.444 270.47,-113.148 268.602,-106.402"/>
</g>
<!-- Node11 -->
<g id="node11" class="node"><title>Node11</title>
<g id="a_node11"><a xlink:href="form_8cpp.html" target="_top" xlink:title="Implementation of the Form class. ">
<polygon fill="white" stroke="black" points="193.5,-56.5 193.5,-75.5 264.5,-75.5 264.5,-56.5 193.5,-56.5"/>
<text text-anchor="middle" x="229" y="-63.5" font-family="Helvetica,sans-Serif" font-size="10.00">src/form.cpp</text>
</a>
</g>
</g>
<!-- Node10&#45;&gt;Node11 -->
<g id="edge12" class="edge"><title>Node10&#45;&gt;Node11</title>
<path fill="none" stroke="midnightblue" d="M229,-101.805C229,-92.9102 229,-82.7798 229,-75.7511"/>
<polygon fill="midnightblue" stroke="midnightblue" points="225.5,-102.083 229,-112.083 232.5,-102.083 225.5,-102.083"/>
</g>
<!-- Node12&#45;&gt;Node4 -->
<g id="edge16" class="edge"><title>Node12&#45;&gt;Node4</title>
<path fill="none" stroke="midnightblue" d="M498.163,-107.453C479.886,-97.4835 455.584,-84.2279 439.867,-75.6545"/>
<polygon fill="midnightblue" stroke="midnightblue" points="496.639,-110.608 507.094,-112.324 499.991,-104.463 496.639,-110.608"/>
</g>
<!-- Node13 -->
<g id="node13" class="node"><title>Node13</title>
<g id="a_node13"><a xlink:href="menu_8cpp.html" target="_top" xlink:title="Menu class implementation. ">
<polygon fill="white" stroke="black" points="485,-56.5 485,-75.5 561,-75.5 561,-56.5 485,-56.5"/>
<text text-anchor="middle" x="523" y="-63.5" font-family="Helvetica,sans-Serif" font-size="10.00">src/menu.cpp</text>
</a>
</g>
</g>
<!-- Node12&#45;&gt;Node13 -->
<g id="edge17" class="edge"><title>Node12&#45;&gt;Node13</title>
<path fill="none" stroke="midnightblue" d="M523,-101.805C523,-92.9102 523,-82.7798 523,-75.7511"/>
<polygon fill="midnightblue" stroke="midnightblue" points="519.5,-102.083 523,-112.083 526.5,-102.083 519.5,-102.083"/>
</g>
<!-- Node14&#45;&gt;Node4 -->
<g id="edge20" class="edge"><title>Node14&#45;&gt;Node4</title>
<path fill="none" stroke="midnightblue" d="M588.137,-157.841C586.484,-143.432 581.982,-124.158 570,-112 554.687,-96.4617 498.769,-82.3117 460.753,-74.1817"/>
<polygon fill="midnightblue" stroke="midnightblue" points="584.672,-158.427 588.94,-168.124 591.651,-157.882 584.672,-158.427"/>
</g>
<!-- Node15 -->
<g id="node15" class="node"><title>Node15</title>
<g id="a_node15"><a xlink:href="help_8cpp.html" target="_top" xlink:title="Help display implementation. ">
<polygon fill="white" stroke="black" points="617,-112.5 617,-131.5 687,-131.5 687,-112.5 617,-112.5"/>
<text text-anchor="middle" x="652" y="-119.5" font-family="Helvetica,sans-Serif" font-size="10.00">src/help.cpp</text>
</a>
</g>
</g>
<!-- Node14&#45;&gt;Node15 -->
<g id="edge19" class="edge"><title>Node14&#45;&gt;Node15</title>
<path fill="none" stroke="midnightblue" d="M607.04,-161.537C618.273,-151.909 632.319,-139.869 641.694,-131.834"/>
<polygon fill="midnightblue" stroke="midnightblue" points="604.437,-159.159 599.122,-168.324 608.992,-164.473 604.437,-159.159"/>
</g>
</g>
</svg>
        <g id="navigator" transform="translate(0 0)" fill="#404254">
                <rect fill="#f2f5e9" fill-opacity="0.5" stroke="#606060" stroke-width=".5" x="0" y="0" width="60" height="60"/>
                <use id="zoomplus" xlink:href="#zoomPlus" x="17" y="9" onmousedown="handleZoom(evt,'in')"/>
                <use id="zoomminus" xlink:href="#zoomMin" x="42" y="9" onmousedown="handleZoom(evt,'out')"/>
                <use id="reset" xlink:href="#resetDef" x="30" y="36" onmousedown="handleReset()"/>
                <g id="arrowUp" xlink:href="#dirArrow" transform="translate(30 24)" onmousedown="handlePan(0,-1)">
                  <use xlink:href="#rim" fill="#404040">
                        <set attributeName="fill" to="#808080" begin="arrowUp.mouseover" end="arrowUp.mouseout"/>
                  </use>
                  <path fill="none" stroke="white" stroke-width="1.5" d="M0,-3.0v7 M-2.5,-0.5L0,-3.0L2.5,-0.5"/>
                </g>
                <g id="arrowRight" xlink:href="#dirArrow" transform="rotate(90) translate(36 -43)" onmousedown="handlePan(1,0)">
                  <use xlink:href="#rim" fill="#404040">
                        <set attributeName="fill" to="#808080" begin="arrowRight.mouseover" end="arrowRight.mouseout"/>
                  </use>
                  <path fill="none" stroke="white" stroke-width="1.5" d="M0,-3.0v7 M-2.5,-0.5L0,-3.0L2.5,-0.5"/>
                </g>
                <g id="arrowDown" xlink:href="#dirArrow" transform="rotate(180) translate(-30 -48)" onmousedown="handlePan(0,1)">
                  <use xlink:href="#rim" fill="#404040">
                        <set attributeName="fill" to="#808080" begin="arrowDown.mouseover" end="arrowDown.mouseout"/>
                  </use>
                  <path fill="none" stroke="white" stroke-width="1.5" d="M0,-3.0v7 M-2.5,-0.5L0,-3.0L2.5,-0.5"/>
                </g>
                <g id="arrowLeft" xlink:href="#dirArrow" transform="rotate(270) translate(-36 17)" onmousedown="handlePan(-1,0)">
                  <use xlink:href="#rim" fill="#404040">
                        <set attributeName="fill" to="#808080" begin="arrowLeft.mouseover" end="arrowLeft.mouseout"/>
                  </use>
                  <path fill="none" stroke="white" stroke-width="1.5" d="M0,-3.0v7 M-2.5,-0.5L0,-3.0L2.5,-0.5"/>
                </g>
        </g>
        <svg viewBox="0 0 15 15" width="100%" height="30px" preserveAspectRatio="xMaxYMin meet">
         <g id="arrow_out" transform="scale(0.3 0.3)">
          <a xlink:href="common_8hpp__dep__incl_org.svg" target="_base">
           <rect id="button" ry="5" rx="5" y="6" x="6" height="38" width="38"
                fill="#f2f5e9" fill-opacity="0.5" stroke="#606060" stroke-width="1.0"/>
           <path id="arrow"
             d="M 11.500037,31.436501 C 11.940474,20.09759 22.043105,11.32322 32.158766,21.979434 L 37.068811,17.246167 C 37.068811,17.246167 37.088388,32 37.088388,32 L 22.160133,31.978069 C 22.160133,31.978069 26.997745,27.140456 26.997745,27.140456 C 18.528582,18.264221 13.291696,25.230495 11.500037,31.436501 z"
             style="fill:#404040;"/>
          </a>
         </g>
        </svg>
</svg>
