<?xml version="1.0" encoding="UTF-8" standalone="no"?>
<!DOCTYPE svg PUBLIC "-//W3C//DTD SVG 1.1//EN"
 "http://www.w3.org/Graphics/SVG/1.1/DTD/svg11.dtd">
<!-- Generated by graphviz version 2.34.0 (20140110.0334)
 -->
<!-- Title: WriteIntInFile Pages: 1 -->
<svg width="280pt" height="28pt"
 viewBox="0.00 0.00 280.00 28.00" xmlns="http://www.w3.org/2000/svg" xmlns:xlink="http://www.w3.org/1999/xlink">
<g id="graph0" class="graph" transform="scale(1 1) rotate(0) translate(4 24)">
<title>WriteIntInFile</title>
<polygon fill="white" stroke="white" points="-4,4 -4,-24 276,-24 276,4 -4,4"/>
<!-- Node1 -->
<g id="node1" class="node"><title>Node1</title>
<polygon fill="#bfbfbf" stroke="black" points="0.5,-0.5 0.5,-19.5 75.5,-19.5 75.5,-0.5 0.5,-0.5"/>
<text text-anchor="middle" x="38" y="-7.5" font-family="Helvetica,sans-Serif" font-size="10.00">WriteIntInFile</text>
</g>
<!-- Node2 -->
<g id="node2" class="node"><title>Node2</title>
<g id="a_node2"><a xlink:href="class_c_form.html#ae690ac0bad444e2ad18b6b26eb9193a5" target="_top" xlink:title="Displays the setting form. ">
<polygon fill="white" stroke="black" points="112,-0.5 112,-19.5 198,-19.5 198,-0.5 112,-0.5"/>
<text text-anchor="middle" x="155" y="-7.5" font-family="Helvetica,sans-Serif" font-size="10.00">CForm::Display</text>
</a>
</g>
</g>
<!-- Node1&#45;&gt;Node2 -->
<g id="edge1" class="edge"><title>Node1&#45;&gt;Node2</title>
<path fill="none" stroke="midnightblue" d="M85.8868,-10C94.41,-10 103.256,-10 111.639,-10"/>
<polygon fill="midnightblue" stroke="midnightblue" points="85.7029,-6.5001 75.7029,-10 85.7029,-13.5001 85.7029,-6.5001"/>
</g>
<!-- Node3 -->
<g id="node3" class="node"><title>Node3</title>
<g id="a_node3"><a xlink:href="main_8cpp.html#ae66f6b31b5ad750f1fe042a706a4e3d4" target="_top" xlink:title="Main function. ">
<polygon fill="white" stroke="black" points="234,-0.5 234,-19.5 272,-19.5 272,-0.5 234,-0.5"/>
<text text-anchor="middle" x="253" y="-7.5" font-family="Helvetica,sans-Serif" font-size="10.00">main</text>
</a>
</g>
</g>
<!-- Node2&#45;&gt;Node3 -->
<g id="edge2" class="edge"><title>Node2&#45;&gt;Node3</title>
<path fill="none" stroke="midnightblue" d="M208.113,-10C217.32,-10 226.324,-10 233.756,-10"/>
<polygon fill="midnightblue" stroke="midnightblue" points="208.107,-6.5001 198.107,-10 208.107,-13.5001 208.107,-6.5001"/>
</g>
</g>
</svg>
