<?xml version="1.0" encoding="UTF-8" standalone="no"?>
<!DOCTYPE svg PUBLIC "-//W3C//DTD SVG 1.1//EN"
 "http://www.w3.org/Graphics/SVG/1.1/DTD/svg11.dtd">
<!-- Generated by graphviz version 2.34.0 (20140110.0334)
 -->
<!-- Title: src/confmanager.hpp Pages: 1 -->
<svg width="561pt" height="140pt"
 viewBox="0.00 0.00 561.00 140.00" xmlns="http://www.w3.org/2000/svg" xmlns:xlink="http://www.w3.org/1999/xlink">
<g id="graph0" class="graph" transform="scale(1 1) rotate(0) translate(4 136)">
<title>src/confmanager.hpp</title>
<polygon fill="white" stroke="white" points="-4,4 -4,-136 557,-136 557,4 -4,4"/>
<!-- Node1 -->
<g id="node1" class="node"><title>Node1</title>
<polygon fill="#bfbfbf" stroke="black" points="232,-112.5 232,-131.5 340,-131.5 340,-112.5 232,-112.5"/>
<text text-anchor="middle" x="286" y="-119.5" font-family="Helvetica,sans-Serif" font-size="10.00">src/confmanager.hpp</text>
</g>
<!-- Node2 -->
<g id="node2" class="node"><title>Node2</title>
<g id="a_node2"><a xlink:href="common_8hpp.html" target="_top" xlink:title="Common header. ">
<polygon fill="white" stroke="black" points="-0.5,-56.5 -0.5,-75.5 72.5,-75.5 72.5,-56.5 -0.5,-56.5"/>
<text text-anchor="middle" x="36" y="-63.5" font-family="Helvetica,sans-Serif" font-size="10.00">common.hpp</text>
</a>
</g>
</g>
<!-- Node1&#45;&gt;Node2 -->
<g id="edge1" class="edge"><title>Node1&#45;&gt;Node2</title>
<path fill="none" stroke="midnightblue" d="M246.387,-112.444C201.877,-102.829 129.699,-87.239 82.5377,-77.0522"/>
<polygon fill="midnightblue" stroke="midnightblue" points="83.0947,-73.5918 72.5811,-74.9015 81.6167,-80.434 83.0947,-73.5918"/>
</g>
<!-- Node4 -->
<g id="node4" class="node"><title>Node4</title>
<polygon fill="white" stroke="#bfbfbf" points="91,-56.5 91,-75.5 141,-75.5 141,-56.5 91,-56.5"/>
<text text-anchor="middle" x="116" y="-63.5" font-family="Helvetica,sans-Serif" font-size="10.00">fstream</text>
</g>
<!-- Node1&#45;&gt;Node4 -->
<g id="edge3" class="edge"><title>Node1&#45;&gt;Node4</title>
<path fill="none" stroke="midnightblue" d="M259.063,-112.444C229.833,-103.159 183.054,-88.2996 150.998,-78.117"/>
<polygon fill="midnightblue" stroke="midnightblue" points="151.739,-74.68 141.148,-74.9883 149.62,-81.3515 151.739,-74.68"/>
</g>
<!-- Node5 -->
<g id="node5" class="node"><title>Node5</title>
<polygon fill="white" stroke="#bfbfbf" points="159.5,-56.5 159.5,-75.5 200.5,-75.5 200.5,-56.5 159.5,-56.5"/>
<text text-anchor="middle" x="180" y="-63.5" font-family="Helvetica,sans-Serif" font-size="10.00">string</text>
</g>
<!-- Node1&#45;&gt;Node5 -->
<g id="edge4" class="edge"><title>Node1&#45;&gt;Node5</title>
<path fill="none" stroke="midnightblue" d="M268.969,-112.324C251.97,-103.664 225.624,-90.2424 206.007,-80.249"/>
<polygon fill="midnightblue" stroke="midnightblue" points="207.488,-77.0752 196.988,-75.6545 204.31,-83.3125 207.488,-77.0752"/>
</g>
<!-- Node6 -->
<g id="node6" class="node"><title>Node6</title>
<polygon fill="white" stroke="#bfbfbf" points="218.5,-56.5 218.5,-75.5 277.5,-75.5 277.5,-56.5 218.5,-56.5"/>
<text text-anchor="middle" x="248" y="-63.5" font-family="Helvetica,sans-Serif" font-size="10.00">stdexcept</text>
</g>
<!-- Node1&#45;&gt;Node6 -->
<g id="edge5" class="edge"><title>Node1&#45;&gt;Node6</title>
<path fill="none" stroke="midnightblue" d="M279.725,-112.083C274.358,-104.455 266.482,-93.2645 259.921,-83.9408"/>
<polygon fill="midnightblue" stroke="midnightblue" points="262.775,-81.9149 254.158,-75.7511 257.051,-85.9434 262.775,-81.9149"/>
</g>
<!-- Node7 -->
<g id="node7" class="node"><title>Node7</title>
<polygon fill="white" stroke="#bfbfbf" points="295.5,-56.5 295.5,-75.5 354.5,-75.5 354.5,-56.5 295.5,-56.5"/>
<text text-anchor="middle" x="325" y="-63.5" font-family="Helvetica,sans-Serif" font-size="10.00">exception</text>
</g>
<!-- Node1&#45;&gt;Node7 -->
<g id="edge6" class="edge"><title>Node1&#45;&gt;Node7</title>
<path fill="none" stroke="midnightblue" d="M292.44,-112.083C297.949,-104.455 306.031,-93.2645 312.765,-83.9408"/>
<polygon fill="midnightblue" stroke="midnightblue" points="315.662,-85.9071 318.68,-75.7511 309.987,-81.8087 315.662,-85.9071"/>
</g>
<!-- Node8 -->
<g id="node8" class="node"><title>Node8</title>
<polygon fill="white" stroke="#bfbfbf" points="373,-56.5 373,-75.5 417,-75.5 417,-56.5 373,-56.5"/>
<text text-anchor="middle" x="395" y="-63.5" font-family="Helvetica,sans-Serif" font-size="10.00">vector</text>
</g>
<!-- Node1&#45;&gt;Node8 -->
<g id="edge7" class="edge"><title>Node1&#45;&gt;Node8</title>
<path fill="none" stroke="midnightblue" d="M303.513,-112.324C321.072,-103.625 348.331,-90.1202 368.531,-80.113"/>
<polygon fill="midnightblue" stroke="midnightblue" points="370.124,-83.23 377.531,-75.6545 367.016,-76.9575 370.124,-83.23"/>
</g>
<!-- Node9 -->
<g id="node9" class="node"><title>Node9</title>
<polygon fill="white" stroke="#bfbfbf" points="435,-56.5 435,-75.5 489,-75.5 489,-56.5 435,-56.5"/>
<text text-anchor="middle" x="462" y="-63.5" font-family="Helvetica,sans-Serif" font-size="10.00">iostream</text>
</g>
<!-- Node1&#45;&gt;Node9 -->
<g id="edge8" class="edge"><title>Node1&#45;&gt;Node9</title>
<path fill="none" stroke="midnightblue" d="M313.888,-112.444C343.929,-103.226 391.875,-88.5157 425.039,-78.3402"/>
<polygon fill="midnightblue" stroke="midnightblue" points="426.288,-81.6183 434.821,-75.339 424.234,-74.9262 426.288,-81.6183"/>
</g>
<!-- Node10 -->
<g id="node10" class="node"><title>Node10</title>
<polygon fill="white" stroke="#bfbfbf" points="507,-56.5 507,-75.5 553,-75.5 553,-56.5 507,-56.5"/>
<text text-anchor="middle" x="530" y="-63.5" font-family="Helvetica,sans-Serif" font-size="10.00">cctype</text>
</g>
<!-- Node1&#45;&gt;Node10 -->
<g id="edge9" class="edge"><title>Node1&#45;&gt;Node10</title>
<path fill="none" stroke="midnightblue" d="M330.45,-112.439C371.377,-104.361 433.977,-91.5137 497.232,-76.0677"/>
<polygon fill="midnightblue" stroke="midnightblue" points="498.102,-79.458 506.975,-73.6687 496.429,-72.6609 498.102,-79.458"/>
</g>
<!-- Node3 -->
<g id="node3" class="node"><title>Node3</title>
<polygon fill="white" stroke="#bfbfbf" points="16,-0.5 16,-19.5 56,-19.5 56,-0.5 16,-0.5"/>
<text text-anchor="middle" x="36" y="-7.5" font-family="Helvetica,sans-Serif" font-size="10.00">utility</text>
</g>
<!-- Node2&#45;&gt;Node3 -->
<g id="edge2" class="edge"><title>Node2&#45;&gt;Node3</title>
<path fill="none" stroke="midnightblue" d="M36,-56.083C36,-49.0059 36,-38.8611 36,-29.9865"/>
<polygon fill="midnightblue" stroke="midnightblue" points="39.5001,-29.751 36,-19.7511 32.5001,-29.7511 39.5001,-29.751"/>
</g>
</g>
</svg>
