<?xml version="1.0" encoding="UTF-8" standalone="no"?>
<!DOCTYPE svg PUBLIC "-//W3C//DTD SVG 1.1//EN"
 "http://www.w3.org/Graphics/SVG/1.1/DTD/svg11.dtd">
<!-- Generated by graphviz version 2.34.0 (20140110.0334)
 -->
<!-- Title: ReadDotsForBackground Pages: 1 -->
<svg width="560pt" height="66pt"
 viewBox="0.00 0.00 560.00 66.00" xmlns="http://www.w3.org/2000/svg" xmlns:xlink="http://www.w3.org/1999/xlink">
<g id="graph0" class="graph" transform="scale(1 1) rotate(0) translate(4 62)">
<title>ReadDotsForBackground</title>
<polygon fill="white" stroke="white" points="-4,4 -4,-62 556,-62 556,4 -4,4"/>
<!-- Node1 -->
<g id="node1" class="node"><title>Node1</title>
<polygon fill="#bfbfbf" stroke="black" points="0.5,-19.5 0.5,-38.5 127.5,-38.5 127.5,-19.5 0.5,-19.5"/>
<text text-anchor="middle" x="64" y="-26.5" font-family="Helvetica,sans-Serif" font-size="10.00">ReadDotsForBackground</text>
</g>
<!-- Node2 -->
<g id="node2" class="node"><title>Node2</title>
<g id="a_node2"><a xlink:href="class_c_board.html#aba95815fd50be1fe6d6c922e9c49c91c" target="_top" xlink:title="Displays the current round of the game. ">
<polygon fill="white" stroke="black" points="164.5,-38.5 164.5,-57.5 253.5,-57.5 253.5,-38.5 164.5,-38.5"/>
<text text-anchor="middle" x="209" y="-45.5" font-family="Helvetica,sans-Serif" font-size="10.00">CBoard::Display</text>
</a>
</g>
</g>
<!-- Node1&#45;&gt;Node2 -->
<g id="edge1" class="edge"><title>Node1&#45;&gt;Node2</title>
<path fill="none" stroke="midnightblue" d="M137.866,-38.6815C146.867,-39.8775 155.839,-41.0696 164.212,-42.182"/>
<polygon fill="midnightblue" stroke="midnightblue" points="138.096,-35.1813 127.722,-37.3337 137.174,-42.1204 138.096,-35.1813"/>
</g>
<!-- Node5 -->
<g id="node5" class="node"><title>Node5</title>
<g id="a_node5"><a xlink:href="main_8cpp.html#ae66f6b31b5ad750f1fe042a706a4e3d4" target="_top" xlink:title="Main function. ">
<polygon fill="white" stroke="black" points="472,-0.5 472,-19.5 510,-19.5 510,-0.5 472,-0.5"/>
<text text-anchor="middle" x="491" y="-7.5" font-family="Helvetica,sans-Serif" font-size="10.00">main</text>
</a>
</g>
</g>
<!-- Node1&#45;&gt;Node5 -->
<g id="edge6" class="edge"><title>Node1&#45;&gt;Node5</title>
<path fill="none" stroke="midnightblue" d="M137.837,-25.7438C238.797,-21.2303 415.249,-13.3418 471.925,-10.8081"/>
<polygon fill="midnightblue" stroke="midnightblue" points="137.544,-22.2533 127.71,-26.1965 137.857,-29.2463 137.544,-22.2533"/>
</g>
<!-- Node3 -->
<g id="node3" class="node"><title>Node3</title>
<g id="a_node3"><a xlink:href="class_c_board.html#a9b825449509fa118303842731dde17ff" target="_top" xlink:title="Plays a turn of the game. ">
<polygon fill="white" stroke="black" points="290,-38.5 290,-57.5 394,-57.5 394,-38.5 290,-38.5"/>
<text text-anchor="middle" x="342" y="-45.5" font-family="Helvetica,sans-Serif" font-size="10.00">CBoard::PlayRound</text>
</a>
</g>
</g>
<!-- Node2&#45;&gt;Node3 -->
<g id="edge2" class="edge"><title>Node2&#45;&gt;Node3</title>
<path fill="none" stroke="midnightblue" d="M263.626,-48C272.293,-48 281.247,-48 289.854,-48"/>
<polygon fill="midnightblue" stroke="midnightblue" points="263.621,-44.5001 253.621,-48 263.621,-51.5001 263.621,-44.5001"/>
</g>
<!-- Node4 -->
<g id="node4" class="node"><title>Node4</title>
<g id="a_node4"><a xlink:href="class_c_board.html#ab4117c3eab65f2cb45eb1d6ad6c26b21" target="_top" xlink:title="Apply a powerUp on a player. ">
<polygon fill="white" stroke="black" points="430.5,-38.5 430.5,-57.5 551.5,-57.5 551.5,-38.5 430.5,-38.5"/>
<text text-anchor="middle" x="491" y="-45.5" font-family="Helvetica,sans-Serif" font-size="10.00">CBoard::ApplyPowerUp</text>
</a>
</g>
</g>
<!-- Node3&#45;&gt;Node4 -->
<g id="edge3" class="edge"><title>Node3&#45;&gt;Node4</title>
<path fill="none" stroke="midnightblue" d="M404.036,-41.337C412.703,-41.2149 421.608,-41.2213 430.25,-41.3561"/>
<polygon fill="midnightblue" stroke="midnightblue" points="403.928,-37.8384 394.001,-41.5393 404.069,-44.837 403.928,-37.8384"/>
</g>
<!-- Node3&#45;&gt;Node5 -->
<g id="edge5" class="edge"><title>Node3&#45;&gt;Node5</title>
<path fill="none" stroke="midnightblue" d="M390.029,-35.8429C417.805,-28.6626 451.403,-19.9774 471.717,-14.7263"/>
<polygon fill="midnightblue" stroke="midnightblue" points="388.9,-32.5195 380.094,-38.411 390.652,-39.2968 388.9,-32.5195"/>
</g>
<!-- Node4&#45;&gt;Node3 -->
<g id="edge4" class="edge"><title>Node4&#45;&gt;Node3</title>
<path fill="none" stroke="midnightblue" d="M420.014,-54.7431C411.243,-54.7774 402.405,-54.6833 394.001,-54.4607"/>
<polygon fill="midnightblue" stroke="midnightblue" points="420.284,-58.2408 430.25,-54.6439 420.217,-51.2411 420.284,-58.2408"/>
</g>
</g>
</svg>
