<?xml version="1.0" encoding="UTF-8" standalone="no"?>
<!DOCTYPE svg PUBLIC "-//W3C//DTD SVG 1.1//EN"
 "http://www.w3.org/Graphics/SVG/1.1/DTD/svg11.dtd">
<!-- Generated by graphviz version 2.34.0 (20140110.0334)
 -->
<!-- Title: ReadItemApparitionFrequency Pages: 1 -->
<svg width="598pt" height="66pt"
 viewBox="0.00 0.00 598.00 66.00" xmlns="http://www.w3.org/2000/svg" xmlns:xlink="http://www.w3.org/1999/xlink">
<g id="graph0" class="graph" transform="scale(1 1) rotate(0) translate(4 62)">
<title>ReadItemApparitionFrequency</title>
<polygon fill="white" stroke="white" points="-4,4 -4,-62 594,-62 594,4 -4,4"/>
<!-- Node1 -->
<g id="node1" class="node"><title>Node1</title>
<polygon fill="#bfbfbf" stroke="black" points="0.5,-19.5 0.5,-38.5 149.5,-38.5 149.5,-19.5 0.5,-19.5"/>
<text text-anchor="middle" x="75" y="-26.5" font-family="Helvetica,sans-Serif" font-size="10.00">ReadItemApparitionFrequency</text>
</g>
<!-- Node2 -->
<g id="node2" class="node"><title>Node2</title>
<g id="a_node2"><a xlink:href="class_c_board.html#a4095c3a98176578b2e1c478b5391eb1b" target="_top" xlink:title="Spawns an item in the board. ">
<polygon fill="white" stroke="black" points="186.5,-38.5 186.5,-57.5 291.5,-57.5 291.5,-38.5 186.5,-38.5"/>
<text text-anchor="middle" x="239" y="-45.5" font-family="Helvetica,sans-Serif" font-size="10.00">CBoard::SpawnItem</text>
</a>
</g>
</g>
<!-- Node1&#45;&gt;Node2 -->
<g id="edge1" class="edge"><title>Node1&#45;&gt;Node2</title>
<path fill="none" stroke="midnightblue" d="M160.046,-38.8573C169.045,-39.9127 177.993,-40.9622 186.447,-41.9536"/>
<polygon fill="midnightblue" stroke="midnightblue" points="160.229,-35.3548 149.889,-37.666 159.413,-42.3071 160.229,-35.3548"/>
</g>
<!-- Node5 -->
<g id="node5" class="node"><title>Node5</title>
<g id="a_node5"><a xlink:href="main_8cpp.html#ae66f6b31b5ad750f1fe042a706a4e3d4" target="_top" xlink:title="Main function. ">
<polygon fill="white" stroke="black" points="510,-0.5 510,-19.5 548,-19.5 548,-0.5 510,-0.5"/>
<text text-anchor="middle" x="529" y="-7.5" font-family="Helvetica,sans-Serif" font-size="10.00">main</text>
</a>
</g>
</g>
<!-- Node1&#45;&gt;Node5 -->
<g id="edge6" class="edge"><title>Node1&#45;&gt;Node5</title>
<path fill="none" stroke="midnightblue" d="M159.933,-25.4718C268.884,-20.892 451.931,-13.1976 509.854,-10.7628"/>
<polygon fill="midnightblue" stroke="midnightblue" points="159.472,-21.988 149.628,-25.905 159.766,-28.9819 159.472,-21.988"/>
</g>
<!-- Node3 -->
<g id="node3" class="node"><title>Node3</title>
<g id="a_node3"><a xlink:href="class_c_board.html#a9b825449509fa118303842731dde17ff" target="_top" xlink:title="Plays a turn of the game. ">
<polygon fill="white" stroke="black" points="328,-38.5 328,-57.5 432,-57.5 432,-38.5 328,-38.5"/>
<text text-anchor="middle" x="380" y="-45.5" font-family="Helvetica,sans-Serif" font-size="10.00">CBoard::PlayRound</text>
</a>
</g>
</g>
<!-- Node2&#45;&gt;Node3 -->
<g id="edge2" class="edge"><title>Node2&#45;&gt;Node3</title>
<path fill="none" stroke="midnightblue" d="M301.797,-48C310.438,-48 319.241,-48 327.661,-48"/>
<polygon fill="midnightblue" stroke="midnightblue" points="301.759,-44.5001 291.758,-48 301.758,-51.5001 301.759,-44.5001"/>
</g>
<!-- Node4 -->
<g id="node4" class="node"><title>Node4</title>
<g id="a_node4"><a xlink:href="class_c_board.html#ab4117c3eab65f2cb45eb1d6ad6c26b21" target="_top" xlink:title="Apply a powerUp on a player. ">
<polygon fill="white" stroke="black" points="468.5,-38.5 468.5,-57.5 589.5,-57.5 589.5,-38.5 468.5,-38.5"/>
<text text-anchor="middle" x="529" y="-45.5" font-family="Helvetica,sans-Serif" font-size="10.00">CBoard::ApplyPowerUp</text>
</a>
</g>
</g>
<!-- Node3&#45;&gt;Node4 -->
<g id="edge3" class="edge"><title>Node3&#45;&gt;Node4</title>
<path fill="none" stroke="midnightblue" d="M442.036,-41.337C450.703,-41.2149 459.608,-41.2213 468.25,-41.3561"/>
<polygon fill="midnightblue" stroke="midnightblue" points="441.928,-37.8384 432.001,-41.5393 442.069,-44.837 441.928,-37.8384"/>
</g>
<!-- Node3&#45;&gt;Node5 -->
<g id="edge5" class="edge"><title>Node3&#45;&gt;Node5</title>
<path fill="none" stroke="midnightblue" d="M428.029,-35.8429C455.805,-28.6626 489.403,-19.9774 509.717,-14.7263"/>
<polygon fill="midnightblue" stroke="midnightblue" points="426.9,-32.5195 418.094,-38.411 428.652,-39.2968 426.9,-32.5195"/>
</g>
<!-- Node4&#45;&gt;Node3 -->
<g id="edge4" class="edge"><title>Node4&#45;&gt;Node3</title>
<path fill="none" stroke="midnightblue" d="M458.014,-54.7431C449.243,-54.7774 440.405,-54.6833 432.001,-54.4607"/>
<polygon fill="midnightblue" stroke="midnightblue" points="458.284,-58.2408 468.25,-54.6439 458.217,-51.2411 458.284,-58.2408"/>
</g>
</g>
</svg>
