<?xml version="1.0" encoding="UTF-8" standalone="no"?>
<!DOCTYPE svg PUBLIC "-//W3C//DTD SVG 1.1//EN"
 "http://www.w3.org/Graphics/SVG/1.1/DTD/svg11.dtd">
<!-- Generated by graphviz version 2.34.0 (20140110.0334)
 -->
<!-- Title: src/confmanager.hpp Pages: 1 -->
<svg width="459pt" height="196pt"
 viewBox="0.00 0.00 459.00 196.00" xmlns="http://www.w3.org/2000/svg" xmlns:xlink="http://www.w3.org/1999/xlink">
<g id="graph0" class="graph" transform="scale(1 1) rotate(0) translate(4 192)">
<title>src/confmanager.hpp</title>
<polygon fill="white" stroke="white" points="-4,4 -4,-192 455,-192 455,4 -4,4"/>
<!-- Node1 -->
<g id="node1" class="node"><title>Node1</title>
<polygon fill="#bfbfbf" stroke="black" points="141,-168.5 141,-187.5 249,-187.5 249,-168.5 141,-168.5"/>
<text text-anchor="middle" x="195" y="-175.5" font-family="Helvetica,sans-Serif" font-size="10.00">src/confmanager.hpp</text>
</g>
<!-- Node2 -->
<g id="node2" class="node"><title>Node2</title>
<g id="a_node2"><a xlink:href="board_8hpp.html" target="_top" xlink:title="Board class header. ">
<polygon fill="white" stroke="black" points="27,-112.5 27,-131.5 103,-131.5 103,-112.5 27,-112.5"/>
<text text-anchor="middle" x="65" y="-119.5" font-family="Helvetica,sans-Serif" font-size="10.00">src/board.hpp</text>
</a>
</g>
</g>
<!-- Node1&#45;&gt;Node2 -->
<g id="edge1" class="edge"><title>Node1&#45;&gt;Node2</title>
<path fill="none" stroke="midnightblue" d="M164.915,-164.503C140.543,-154.38 106.86,-140.388 85.5025,-131.516"/>
<polygon fill="midnightblue" stroke="midnightblue" points="163.823,-167.84 174.401,-168.444 166.509,-161.375 163.823,-167.84"/>
</g>
<!-- Node4 -->
<g id="node4" class="node"><title>Node4</title>
<g id="a_node4"><a xlink:href="main_8hpp.html" target="_top" xlink:title="Main file header. ">
<polygon fill="white" stroke="black" points="94.5,-56.5 94.5,-75.5 167.5,-75.5 167.5,-56.5 94.5,-56.5"/>
<text text-anchor="middle" x="131" y="-63.5" font-family="Helvetica,sans-Serif" font-size="10.00">src/main.hpp</text>
</a>
</g>
</g>
<!-- Node1&#45;&gt;Node4 -->
<g id="edge9" class="edge"><title>Node1&#45;&gt;Node4</title>
<path fill="none" stroke="midnightblue" d="M175.641,-161.628C166.71,-153.637 156.64,-143.207 150,-132 139.093,-113.591 134.091,-88.5043 132.111,-75.5391"/>
<polygon fill="midnightblue" stroke="midnightblue" points="173.51,-164.411 183.392,-168.233 178.051,-159.083 173.51,-164.411"/>
</g>
<!-- Node6 -->
<g id="node6" class="node"><title>Node6</title>
<g id="a_node6"><a xlink:href="confmanager_8cpp.html" target="_top" xlink:title="Configuration file management implementation. ">
<polygon fill="white" stroke="black" points="343,-112.5 343,-131.5 451,-131.5 451,-112.5 343,-112.5"/>
<text text-anchor="middle" x="397" y="-119.5" font-family="Helvetica,sans-Serif" font-size="10.00">src/confmanager.cpp</text>
</a>
</g>
</g>
<!-- Node1&#45;&gt;Node6 -->
<g id="edge5" class="edge"><title>Node1&#45;&gt;Node6</title>
<path fill="none" stroke="midnightblue" d="M236.788,-165.829C274.927,-155.633 330.481,-140.782 365.142,-131.516"/>
<polygon fill="midnightblue" stroke="midnightblue" points="235.764,-162.48 227.008,-168.444 237.572,-169.242 235.764,-162.48"/>
</g>
<!-- Node7 -->
<g id="node7" class="node"><title>Node7</title>
<g id="a_node7"><a xlink:href="form_8hpp.html" target="_top" xlink:title="Header of the Form class. ">
<polygon fill="white" stroke="black" points="159.5,-112.5 159.5,-131.5 230.5,-131.5 230.5,-112.5 159.5,-112.5"/>
<text text-anchor="middle" x="195" y="-119.5" font-family="Helvetica,sans-Serif" font-size="10.00">src/form.hpp</text>
</a>
</g>
</g>
<!-- Node1&#45;&gt;Node7 -->
<g id="edge6" class="edge"><title>Node1&#45;&gt;Node7</title>
<path fill="none" stroke="midnightblue" d="M195,-157.805C195,-148.91 195,-138.78 195,-131.751"/>
<polygon fill="midnightblue" stroke="midnightblue" points="191.5,-158.083 195,-168.083 198.5,-158.083 191.5,-158.083"/>
</g>
<!-- Node9 -->
<g id="node9" class="node"><title>Node9</title>
<g id="a_node9"><a xlink:href="menu_8hpp.html" target="_top" xlink:title="Menu class header. ">
<polygon fill="white" stroke="black" points="249,-112.5 249,-131.5 325,-131.5 325,-112.5 249,-112.5"/>
<text text-anchor="middle" x="287" y="-119.5" font-family="Helvetica,sans-Serif" font-size="10.00">src/menu.hpp</text>
</a>
</g>
</g>
<!-- Node1&#45;&gt;Node9 -->
<g id="edge10" class="edge"><title>Node1&#45;&gt;Node9</title>
<path fill="none" stroke="midnightblue" d="M218.55,-163.177C235.479,-153.241 257.783,-140.149 272.255,-131.655"/>
<polygon fill="midnightblue" stroke="midnightblue" points="216.634,-160.243 209.781,-168.324 220.177,-166.28 216.634,-160.243"/>
</g>
<!-- Node3 -->
<g id="node3" class="node"><title>Node3</title>
<g id="a_node3"><a xlink:href="board_8cpp.html" target="_top" xlink:title="Board class implementation. ">
<polygon fill="white" stroke="black" points="0,-56.5 0,-75.5 76,-75.5 76,-56.5 0,-56.5"/>
<text text-anchor="middle" x="38" y="-63.5" font-family="Helvetica,sans-Serif" font-size="10.00">src/board.cpp</text>
</a>
</g>
</g>
<!-- Node2&#45;&gt;Node3 -->
<g id="edge2" class="edge"><title>Node2&#45;&gt;Node3</title>
<path fill="none" stroke="midnightblue" d="M55.9914,-102.983C51.4084,-93.8168 46.0461,-83.0922 42.3755,-75.7511"/>
<polygon fill="midnightblue" stroke="midnightblue" points="52.9388,-104.704 60.5415,-112.083 59.1998,-101.573 52.9388,-104.704"/>
</g>
<!-- Node2&#45;&gt;Node4 -->
<g id="edge3" class="edge"><title>Node2&#45;&gt;Node4</title>
<path fill="none" stroke="midnightblue" d="M83.5537,-105.82C95.3781,-96.1452 110.286,-83.9481 120.203,-75.8339"/>
<polygon fill="midnightblue" stroke="midnightblue" points="81.1273,-103.283 75.604,-112.324 85.56,-108.7 81.1273,-103.283"/>
</g>
<!-- Node5 -->
<g id="node5" class="node"><title>Node5</title>
<g id="a_node5"><a xlink:href="main_8cpp.html" target="_top" xlink:title="Main file. ">
<polygon fill="white" stroke="black" points="94.5,-0.5 94.5,-19.5 167.5,-19.5 167.5,-0.5 94.5,-0.5"/>
<text text-anchor="middle" x="131" y="-7.5" font-family="Helvetica,sans-Serif" font-size="10.00">src/main.cpp</text>
</a>
</g>
</g>
<!-- Node4&#45;&gt;Node5 -->
<g id="edge4" class="edge"><title>Node4&#45;&gt;Node5</title>
<path fill="none" stroke="midnightblue" d="M131,-45.8045C131,-36.9102 131,-26.7798 131,-19.7511"/>
<polygon fill="midnightblue" stroke="midnightblue" points="127.5,-46.083 131,-56.083 134.5,-46.083 127.5,-46.083"/>
</g>
<!-- Node7&#45;&gt;Node4 -->
<g id="edge8" class="edge"><title>Node7&#45;&gt;Node4</title>
<path fill="none" stroke="midnightblue" d="M177.009,-105.82C165.542,-96.1452 151.087,-83.9481 141.47,-75.8339"/>
<polygon fill="midnightblue" stroke="midnightblue" points="174.817,-108.55 184.717,-112.324 179.331,-103.2 174.817,-108.55"/>
</g>
<!-- Node8 -->
<g id="node8" class="node"><title>Node8</title>
<g id="a_node8"><a xlink:href="form_8cpp.html" target="_top" xlink:title="Implementation of the Form class. ">
<polygon fill="white" stroke="black" points="185.5,-56.5 185.5,-75.5 256.5,-75.5 256.5,-56.5 185.5,-56.5"/>
<text text-anchor="middle" x="221" y="-63.5" font-family="Helvetica,sans-Serif" font-size="10.00">src/form.cpp</text>
</a>
</g>
</g>
<!-- Node7&#45;&gt;Node8 -->
<g id="edge7" class="edge"><title>Node7&#45;&gt;Node8</title>
<path fill="none" stroke="midnightblue" d="M203.675,-102.983C208.088,-93.8168 213.252,-83.0922 216.787,-75.7511"/>
<polygon fill="midnightblue" stroke="midnightblue" points="200.478,-101.555 199.293,-112.083 206.785,-104.591 200.478,-101.555"/>
</g>
<!-- Node9&#45;&gt;Node4 -->
<g id="edge11" class="edge"><title>Node9&#45;&gt;Node4</title>
<path fill="none" stroke="midnightblue" d="M252.83,-109.172C223.456,-99.0039 181.802,-84.5852 155.603,-75.5164"/>
<polygon fill="midnightblue" stroke="midnightblue" points="251.687,-112.48 262.281,-112.444 253.976,-105.865 251.687,-112.48"/>
</g>
<!-- Node10 -->
<g id="node10" class="node"><title>Node10</title>
<g id="a_node10"><a xlink:href="menu_8cpp.html" target="_top" xlink:title="Menu class implementation. ">
<polygon fill="white" stroke="black" points="275,-56.5 275,-75.5 351,-75.5 351,-56.5 275,-56.5"/>
<text text-anchor="middle" x="313" y="-63.5" font-family="Helvetica,sans-Serif" font-size="10.00">src/menu.cpp</text>
</a>
</g>
</g>
<!-- Node9&#45;&gt;Node10 -->
<g id="edge12" class="edge"><title>Node9&#45;&gt;Node10</title>
<path fill="none" stroke="midnightblue" d="M295.675,-102.983C300.088,-93.8168 305.252,-83.0922 308.787,-75.7511"/>
<polygon fill="midnightblue" stroke="midnightblue" points="292.478,-101.555 291.293,-112.083 298.785,-104.591 292.478,-101.555"/>
</g>
</g>
</svg>
