<?xml version="1.0" encoding="UTF-8" standalone="no"?>
<!DOCTYPE svg PUBLIC "-//W3C//DTD SVG 1.1//EN"
 "http://www.w3.org/Graphics/SVG/1.1/DTD/svg11.dtd">
<!-- Generated by graphviz version 2.34.0 (20140110.0334)
 -->
<!-- Title: ReadBarrierApparitionFrequency Pages: 1 -->
<svg width="684pt" height="85pt"
 viewBox="0.00 0.00 684.00 85.00" xmlns="http://www.w3.org/2000/svg" xmlns:xlink="http://www.w3.org/1999/xlink">
<g id="graph0" class="graph" transform="scale(1 1) rotate(0) translate(4 81)">
<title>ReadBarrierApparitionFrequency</title>
<polygon fill="white" stroke="white" points="-4,4 -4,-81 680,-81 680,4 -4,4"/>
<!-- Node1 -->
<g id="node1" class="node"><title>Node1</title>
<polygon fill="#bfbfbf" stroke="black" points="0,-19.5 0,-38.5 158,-38.5 158,-19.5 0,-19.5"/>
<text text-anchor="middle" x="79" y="-26.5" font-family="Helvetica,sans-Serif" font-size="10.00">ReadBarrierApparitionFrequency</text>
</g>
<!-- Node2 -->
<g id="node2" class="node"><title>Node2</title>
<g id="a_node2"><a xlink:href="class_c_board.html#a2e77f37bac4646bcf1dd6e5f24582392" target="_top" xlink:title="The detailed constructor. ">
<polygon fill="white" stroke="black" points="204.5,-57.5 204.5,-76.5 293.5,-76.5 293.5,-57.5 204.5,-57.5"/>
<text text-anchor="middle" x="249" y="-64.5" font-family="Helvetica,sans-Serif" font-size="10.00">CBoard::CBoard</text>
</a>
</g>
</g>
<!-- Node1&#45;&gt;Node2 -->
<g id="edge1" class="edge"><title>Node1&#45;&gt;Node2</title>
<path fill="none" stroke="midnightblue" d="M132.276,-40.8243C155.961,-46.1816 183.59,-52.4311 205.911,-57.4799"/>
<polygon fill="midnightblue" stroke="midnightblue" points="132.919,-37.3815 122.393,-38.589 131.375,-44.209 132.919,-37.3815"/>
</g>
<!-- Node3 -->
<g id="node3" class="node"><title>Node3</title>
<g id="a_node3"><a xlink:href="class_c_board.html#a3f41c4ac3c41c93d094c9cf0574e57d9" target="_top" xlink:title="Delete all wall in the board and generate another board with wall. ">
<polygon fill="white" stroke="black" points="194.5,-19.5 194.5,-38.5 303.5,-38.5 303.5,-19.5 194.5,-19.5"/>
<text text-anchor="middle" x="249" y="-26.5" font-family="Helvetica,sans-Serif" font-size="10.00">CBoard::ChangeWall</text>
</a>
</g>
</g>
<!-- Node1&#45;&gt;Node3 -->
<g id="edge2" class="edge"><title>Node1&#45;&gt;Node3</title>
<path fill="none" stroke="midnightblue" d="M168.381,-29C177.135,-29 185.826,-29 194.071,-29"/>
<polygon fill="midnightblue" stroke="midnightblue" points="168.098,-25.5001 158.098,-29 168.098,-32.5001 168.098,-25.5001"/>
</g>
<!-- Node6 -->
<g id="node6" class="node"><title>Node6</title>
<g id="a_node6"><a xlink:href="main_8cpp.html#ae66f6b31b5ad750f1fe042a706a4e3d4" target="_top" xlink:title="Main function. ">
<polygon fill="white" stroke="black" points="638,-0.5 638,-19.5 676,-19.5 676,-0.5 638,-0.5"/>
<text text-anchor="middle" x="657" y="-7.5" font-family="Helvetica,sans-Serif" font-size="10.00">main</text>
</a>
</g>
</g>
<!-- Node1&#45;&gt;Node6 -->
<g id="edge7" class="edge"><title>Node1&#45;&gt;Node6</title>
<path fill="none" stroke="midnightblue" d="M136.305,-17.7229C154.624,-14.5623 175.103,-11.5639 194,-10 366.26,4.25667 575.887,-5.4891 637.904,-8.92954"/>
<polygon fill="midnightblue" stroke="midnightblue" points="135.607,-14.292 126.373,-19.4874 136.831,-21.184 135.607,-14.292"/>
</g>
<!-- Node4 -->
<g id="node4" class="node"><title>Node4</title>
<g id="a_node4"><a xlink:href="class_c_board.html#ab4117c3eab65f2cb45eb1d6ad6c26b21" target="_top" xlink:title="Apply a powerUp on a player. ">
<polygon fill="white" stroke="black" points="340.5,-19.5 340.5,-38.5 461.5,-38.5 461.5,-19.5 340.5,-19.5"/>
<text text-anchor="middle" x="401" y="-26.5" font-family="Helvetica,sans-Serif" font-size="10.00">CBoard::ApplyPowerUp</text>
</a>
</g>
</g>
<!-- Node3&#45;&gt;Node4 -->
<g id="edge3" class="edge"><title>Node3&#45;&gt;Node4</title>
<path fill="none" stroke="midnightblue" d="M313.885,-29C322.641,-29 331.604,-29 340.282,-29"/>
<polygon fill="midnightblue" stroke="midnightblue" points="313.73,-25.5001 303.73,-29 313.73,-32.5001 313.73,-25.5001"/>
</g>
<!-- Node5 -->
<g id="node5" class="node"><title>Node5</title>
<g id="a_node5"><a xlink:href="class_c_board.html#a9b825449509fa118303842731dde17ff" target="_top" xlink:title="Plays a turn of the game. ">
<polygon fill="white" stroke="black" points="498,-19.5 498,-38.5 602,-38.5 602,-19.5 498,-19.5"/>
<text text-anchor="middle" x="550" y="-26.5" font-family="Helvetica,sans-Serif" font-size="10.00">CBoard::PlayRound</text>
</a>
</g>
</g>
<!-- Node4&#45;&gt;Node5 -->
<g id="edge4" class="edge"><title>Node4&#45;&gt;Node5</title>
<path fill="none" stroke="midnightblue" d="M471.94,-22.257C480.637,-22.2226 489.4,-22.3144 497.741,-22.5325"/>
<polygon fill="midnightblue" stroke="midnightblue" points="471.756,-18.7586 461.791,-22.3555 471.824,-25.7582 471.756,-18.7586"/>
</g>
<!-- Node5&#45;&gt;Node4 -->
<g id="edge5" class="edge"><title>Node5&#45;&gt;Node4</title>
<path fill="none" stroke="midnightblue" d="M487.504,-35.6693C478.996,-35.7846 470.267,-35.7763 461.791,-35.6445"/>
<polygon fill="midnightblue" stroke="midnightblue" points="487.812,-39.164 497.741,-35.4675 487.674,-32.1654 487.812,-39.164"/>
</g>
<!-- Node5&#45;&gt;Node6 -->
<g id="edge6" class="edge"><title>Node5&#45;&gt;Node6</title>
<path fill="none" stroke="midnightblue" d="M612.356,-17.8975C621.568,-16.2306 630.404,-14.6316 637.688,-13.3136"/>
<polygon fill="midnightblue" stroke="midnightblue" points="611.487,-14.4979 602.27,-19.7226 612.733,-21.386 611.487,-14.4979"/>
</g>
</g>
</svg>
