<?xml version="1.0" encoding="UTF-8" standalone="no"?>
<!DOCTYPE svg PUBLIC "-//W3C//DTD SVG 1.1//EN"
 "http://www.w3.org/Graphics/SVG/1.1/DTD/svg11.dtd">
<!-- Generated by graphviz version 2.34.0 (20140110.0334)
 -->
<!-- Title: src/help.hpp Pages: 1 -->
<svg width="169pt" height="140pt"
 viewBox="0.00 0.00 169.00 140.00" xmlns="http://www.w3.org/2000/svg" xmlns:xlink="http://www.w3.org/1999/xlink">
<g id="graph0" class="graph" transform="scale(1 1) rotate(0) translate(4 136)">
<title>src/help.hpp</title>
<polygon fill="white" stroke="white" points="-4,4 -4,-136 165,-136 165,4 -4,4"/>
<!-- Node1 -->
<g id="node1" class="node"><title>Node1</title>
<polygon fill="#bfbfbf" stroke="black" points="45,-112.5 45,-131.5 115,-131.5 115,-112.5 45,-112.5"/>
<text text-anchor="middle" x="80" y="-119.5" font-family="Helvetica,sans-Serif" font-size="10.00">src/help.hpp</text>
</g>
<!-- Node2 -->
<g id="node2" class="node"><title>Node2</title>
<g id="a_node2"><a xlink:href="help_8cpp.html" target="_top" xlink:title="Help display implementation. ">
<polygon fill="white" stroke="black" points="0,-56.5 0,-75.5 70,-75.5 70,-56.5 0,-56.5"/>
<text text-anchor="middle" x="35" y="-63.5" font-family="Helvetica,sans-Serif" font-size="10.00">src/help.cpp</text>
</a>
</g>
</g>
<!-- Node1&#45;&gt;Node2 -->
<g id="edge1" class="edge"><title>Node1&#45;&gt;Node2</title>
<path fill="none" stroke="midnightblue" d="M65.9533,-104.144C58.1131,-94.7357 48.6705,-83.4046 42.2926,-75.7511"/>
<polygon fill="midnightblue" stroke="midnightblue" points="63.4785,-106.641 72.5692,-112.083 68.8561,-102.16 63.4785,-106.641"/>
</g>
<!-- Node3 -->
<g id="node3" class="node"><title>Node3</title>
<g id="a_node3"><a xlink:href="main_8hpp.html" target="_top" xlink:title="Main file header. ">
<polygon fill="white" stroke="black" points="88.5,-56.5 88.5,-75.5 161.5,-75.5 161.5,-56.5 88.5,-56.5"/>
<text text-anchor="middle" x="125" y="-63.5" font-family="Helvetica,sans-Serif" font-size="10.00">src/main.hpp</text>
</a>
</g>
</g>
<!-- Node1&#45;&gt;Node3 -->
<g id="edge2" class="edge"><title>Node1&#45;&gt;Node3</title>
<path fill="none" stroke="midnightblue" d="M94.0467,-104.144C101.887,-94.7357 111.329,-83.4046 117.707,-75.7511"/>
<polygon fill="midnightblue" stroke="midnightblue" points="91.1439,-102.16 87.4308,-112.083 96.5215,-106.641 91.1439,-102.16"/>
</g>
<!-- Node4 -->
<g id="node4" class="node"><title>Node4</title>
<g id="a_node4"><a xlink:href="main_8cpp.html" target="_top" xlink:title="Main file. ">
<polygon fill="white" stroke="black" points="88.5,-0.5 88.5,-19.5 161.5,-19.5 161.5,-0.5 88.5,-0.5"/>
<text text-anchor="middle" x="125" y="-7.5" font-family="Helvetica,sans-Serif" font-size="10.00">src/main.cpp</text>
</a>
</g>
</g>
<!-- Node3&#45;&gt;Node4 -->
<g id="edge3" class="edge"><title>Node3&#45;&gt;Node4</title>
<path fill="none" stroke="midnightblue" d="M125,-45.8045C125,-36.9102 125,-26.7798 125,-19.7511"/>
<polygon fill="midnightblue" stroke="midnightblue" points="121.5,-46.083 125,-56.083 128.5,-46.083 121.5,-46.083"/>
</g>
</g>
</svg>
