<?xml version="1.0" encoding="UTF-8" standalone="no"?>
<!DOCTYPE svg PUBLIC "-//W3C//DTD SVG 1.1//EN"
 "http://www.w3.org/Graphics/SVG/1.1/DTD/svg11.dtd">
<!-- Generated by graphviz version 2.34.0 (20140110.0334)
 -->
<!-- Title: src/help.hpp Pages: 1 -->
<svg width="515pt" height="140pt"
 viewBox="0.00 0.00 515.00 140.00" xmlns="http://www.w3.org/2000/svg" xmlns:xlink="http://www.w3.org/1999/xlink">
<g id="graph0" class="graph" transform="scale(1 1) rotate(0) translate(4 136)">
<title>src/help.hpp</title>
<polygon fill="white" stroke="white" points="-4,4 -4,-136 511,-136 511,4 -4,4"/>
<!-- Node1 -->
<g id="node1" class="node"><title>Node1</title>
<polygon fill="#bfbfbf" stroke="black" points="216,-112.5 216,-131.5 286,-131.5 286,-112.5 216,-112.5"/>
<text text-anchor="middle" x="251" y="-119.5" font-family="Helvetica,sans-Serif" font-size="10.00">src/help.hpp</text>
</g>
<!-- Node2 -->
<g id="node2" class="node"><title>Node2</title>
<g id="a_node2"><a xlink:href="common_8hpp.html" target="_top" xlink:title="Common header. ">
<polygon fill="white" stroke="black" points="-0.5,-56.5 -0.5,-75.5 72.5,-75.5 72.5,-56.5 -0.5,-56.5"/>
<text text-anchor="middle" x="36" y="-63.5" font-family="Helvetica,sans-Serif" font-size="10.00">common.hpp</text>
</a>
</g>
</g>
<!-- Node1&#45;&gt;Node2 -->
<g id="edge1" class="edge"><title>Node1&#45;&gt;Node2</title>
<path fill="none" stroke="midnightblue" d="M216.933,-112.444C179.82,-103.122 120.339,-88.1828 79.7853,-77.9972"/>
<polygon fill="midnightblue" stroke="midnightblue" points="80.4594,-74.5579 69.908,-75.5164 78.7542,-81.347 80.4594,-74.5579"/>
</g>
<!-- Node4 -->
<g id="node4" class="node"><title>Node4</title>
<polygon fill="white" stroke="#bfbfbf" points="91,-56.5 91,-75.5 135,-75.5 135,-56.5 91,-56.5"/>
<text text-anchor="middle" x="113" y="-63.5" font-family="Helvetica,sans-Serif" font-size="10.00">vector</text>
</g>
<!-- Node1&#45;&gt;Node4 -->
<g id="edge3" class="edge"><title>Node1&#45;&gt;Node4</title>
<path fill="none" stroke="midnightblue" d="M229.133,-112.444C206.221,-103.478 170.025,-89.314 144.134,-79.1827"/>
<polygon fill="midnightblue" stroke="midnightblue" points="145.352,-75.9011 134.764,-75.5164 142.801,-82.4198 145.352,-75.9011"/>
</g>
<!-- Node5 -->
<g id="node5" class="node"><title>Node5</title>
<polygon fill="white" stroke="#bfbfbf" points="153,-56.5 153,-75.5 203,-75.5 203,-56.5 153,-56.5"/>
<text text-anchor="middle" x="178" y="-63.5" font-family="Helvetica,sans-Serif" font-size="10.00">fstream</text>
</g>
<!-- Node1&#45;&gt;Node5 -->
<g id="edge4" class="edge"><title>Node1&#45;&gt;Node5</title>
<path fill="none" stroke="midnightblue" d="M239.271,-112.324C228.163,-104.107 211.258,-91.6017 198.017,-81.8069"/>
<polygon fill="midnightblue" stroke="midnightblue" points="200.063,-78.9671 189.942,-75.8339 195.9,-84.5948 200.063,-78.9671"/>
</g>
<!-- Node6 -->
<g id="node6" class="node"><title>Node6</title>
<polygon fill="white" stroke="#bfbfbf" points="221.5,-56.5 221.5,-75.5 280.5,-75.5 280.5,-56.5 221.5,-56.5"/>
<text text-anchor="middle" x="251" y="-63.5" font-family="Helvetica,sans-Serif" font-size="10.00">stdexcept</text>
</g>
<!-- Node1&#45;&gt;Node6 -->
<g id="edge5" class="edge"><title>Node1&#45;&gt;Node6</title>
<path fill="none" stroke="midnightblue" d="M251,-112.083C251,-105.006 251,-94.8611 251,-85.9865"/>
<polygon fill="midnightblue" stroke="midnightblue" points="254.5,-85.751 251,-75.7511 247.5,-85.7511 254.5,-85.751"/>
</g>
<!-- Node7 -->
<g id="node7" class="node"><title>Node7</title>
<polygon fill="white" stroke="#bfbfbf" points="298.5,-56.5 298.5,-75.5 357.5,-75.5 357.5,-56.5 298.5,-56.5"/>
<text text-anchor="middle" x="328" y="-63.5" font-family="Helvetica,sans-Serif" font-size="10.00">exception</text>
</g>
<!-- Node1&#45;&gt;Node7 -->
<g id="edge6" class="edge"><title>Node1&#45;&gt;Node7</title>
<path fill="none" stroke="midnightblue" d="M263.371,-112.324C275.158,-104.058 293.132,-91.4527 307.136,-81.6322"/>
<polygon fill="midnightblue" stroke="midnightblue" points="309.482,-84.2619 315.659,-75.6545 305.462,-78.5307 309.482,-84.2619"/>
</g>
<!-- Node8 -->
<g id="node8" class="node"><title>Node8</title>
<polygon fill="white" stroke="#bfbfbf" points="375.5,-56.5 375.5,-75.5 434.5,-75.5 434.5,-56.5 375.5,-56.5"/>
<text text-anchor="middle" x="405" y="-63.5" font-family="Helvetica,sans-Serif" font-size="10.00">ncurses.h</text>
</g>
<!-- Node1&#45;&gt;Node8 -->
<g id="edge7" class="edge"><title>Node1&#45;&gt;Node8</title>
<path fill="none" stroke="midnightblue" d="M275.402,-112.444C301.197,-103.399 342.077,-89.064 371.018,-78.9158"/>
<polygon fill="midnightblue" stroke="midnightblue" points="372.434,-82.1283 380.712,-75.5164 370.118,-75.5226 372.434,-82.1283"/>
</g>
<!-- Node9 -->
<g id="node9" class="node"><title>Node9</title>
<polygon fill="white" stroke="#bfbfbf" points="453,-56.5 453,-75.5 507,-75.5 507,-56.5 453,-56.5"/>
<text text-anchor="middle" x="480" y="-63.5" font-family="Helvetica,sans-Serif" font-size="10.00">iostream</text>
</g>
<!-- Node1&#45;&gt;Node9 -->
<g id="edge8" class="edge"><title>Node1&#45;&gt;Node9</title>
<path fill="none" stroke="midnightblue" d="M286.056,-112.877C324.564,-103.932 388.221,-89.0815 443,-76 443.1,-75.976 443.201,-75.952 443.302,-75.9279"/>
<polygon fill="midnightblue" stroke="midnightblue" points="444.024,-79.3541 452.928,-73.6127 442.387,-72.5481 444.024,-79.3541"/>
</g>
<!-- Node3 -->
<g id="node3" class="node"><title>Node3</title>
<polygon fill="white" stroke="#bfbfbf" points="16,-0.5 16,-19.5 56,-19.5 56,-0.5 16,-0.5"/>
<text text-anchor="middle" x="36" y="-7.5" font-family="Helvetica,sans-Serif" font-size="10.00">utility</text>
</g>
<!-- Node2&#45;&gt;Node3 -->
<g id="edge2" class="edge"><title>Node2&#45;&gt;Node3</title>
<path fill="none" stroke="midnightblue" d="M36,-56.083C36,-49.0059 36,-38.8611 36,-29.9865"/>
<polygon fill="midnightblue" stroke="midnightblue" points="39.5001,-29.751 36,-19.7511 32.5001,-29.7511 39.5001,-29.751"/>
</g>
</g>
</svg>
