<?xml version="1.0" encoding="UTF-8" standalone="no"?>
<!DOCTYPE svg PUBLIC "-//W3C//DTD SVG 1.1//EN"
 "http://www.w3.org/Graphics/SVG/1.1/DTD/svg11.dtd">
<!-- Generated by graphviz version 2.34.0 (20140110.0334)
 -->
<!-- Title: src/main.hpp Pages: 1 -->
<!--zoomable 252 -->
<svg id="main" version="1.1" xmlns="http://www.w3.org/2000/svg" xmlns:xlink="http://www.w3.org/1999/xlink" xml:space="preserve" onload="init(evt)">
<style type="text/css"><![CDATA[
.edge:hover path { stroke: red; }
.edge:hover polygon { stroke: red; fill: red; }
]]></style>
<script type="text/javascript"><![CDATA[
var edges = document.getElementsByTagName('g');
if (edges && edges.length) {
  for (var i=0;i<edges.length;i++) {
    if (edges[i].id.substr(0,4)=='edge') {
      edges[i].setAttribute('class','edge');
    }
  }
}
]]></script>
        <defs>
                <circle id="rim" cx="0" cy="0" r="7"/>
                <circle id="rim2" cx="0" cy="0" r="3.5"/>
                <g id="zoomPlus">
                        <use xlink:href="#rim" fill="#404040">
                                <set attributeName="fill" to="#808080" begin="zoomplus.mouseover" end="zoomplus.mouseout"/>
                        </use>
                        <path d="M-4,0h8M0,-4v8" fill="none" stroke="white" stroke-width="1.5" pointer-events="none"/>
                </g>
                <g id="zoomMin">
                        <use xlink:href="#rim" fill="#404040">
                                <set attributeName="fill" to="#808080" begin="zoomminus.mouseover" end="zoomminus.mouseout"/>
                        </use>
                        <path d="M-4,0h8" fill="none" stroke="white" stroke-width="1.5" pointer-events="none"/>
                </g>
                <g id="dirArrow">
                        <path fill="none" stroke="white" stroke-width="1.5" d="M0,-3.0v7 M-2.5,-0.5L0,-3.0L2.5,-0.5"/>
                </g>
               <g id="resetDef">
                       <use xlink:href="#rim2" fill="#404040">
                               <set attributeName="fill" to="#808080" begin="reset.mouseover" end="reset.mouseout"/>
                       </use>
               </g>
        </defs>

<script type="text/javascript">
var viewWidth = 1231;
var viewHeight = 252;
var sectionId = 'dynsection-0';
</script>
<script xlink:href="svgpan.js"/>
<svg id="graph" class="graph">
<g id="viewport">
<title>src/main.hpp</title>
<polygon fill="white" stroke="white" points="-4,4 -4,-248 1227.2,-248 1227.2,4 -4,4"/>
<!-- Node1 -->
<g id="node1" class="node"><title>Node1</title>
<polygon fill="#bfbfbf" stroke="black" points="623.69,-224.5 623.69,-243.5 696.69,-243.5 696.69,-224.5 623.69,-224.5"/>
<text text-anchor="middle" x="660.19" y="-231.5" font-family="Helvetica,sans-Serif" font-size="10.00">src/main.hpp</text>
</g>
<!-- Node2 -->
<g id="node2" class="node"><title>Node2</title>
<g id="a_node2"><a xlink:href="common_8hpp.html" target="_top" xlink:title="Common header. ">
<polygon fill="white" stroke="black" points="402.69,-56.5 402.69,-75.5 475.69,-75.5 475.69,-56.5 402.69,-56.5"/>
<text text-anchor="middle" x="439.19" y="-63.5" font-family="Helvetica,sans-Serif" font-size="10.00">common.hpp</text>
</a>
</g>
</g>
<!-- Node1&#45;&gt;Node2 -->
<g id="edge1" class="edge"><title>Node1&#45;&gt;Node2</title>
<path fill="none" stroke="midnightblue" d="M623.43,-231.45C519.452,-226.817 224.737,-211.894 131.19,-188 71.421,-172.733 37.8806,-183.676 4.19026,-132 -0.664313,-124.554 -1.76297,-118.601 4.19026,-112 29.8412,-83.5586 285.308,-71.9955 392.369,-68.3733"/>
<polygon fill="midnightblue" stroke="midnightblue" points="392.678,-71.8651 402.557,-68.0375 392.447,-64.8689 392.678,-71.8651"/>
</g>
<!-- Node4 -->
<g id="node4" class="node"><title>Node4</title>
<g id="a_node4"><a xlink:href="board_8hpp.html" target="_top" xlink:title="Board class header. ">
<polygon fill="white" stroke="black" points="317.69,-168.5 317.69,-187.5 376.69,-187.5 376.69,-168.5 317.69,-168.5"/>
<text text-anchor="middle" x="347.19" y="-175.5" font-family="Helvetica,sans-Serif" font-size="10.00">board.hpp</text>
</a>
</g>
</g>
<!-- Node1&#45;&gt;Node4 -->
<g id="edge3" class="edge"><title>Node1&#45;&gt;Node4</title>
<path fill="none" stroke="midnightblue" d="M623.673,-226.7C564.525,-216.495 448.234,-196.432 387.024,-185.872"/>
<polygon fill="midnightblue" stroke="midnightblue" points="387.426,-182.39 376.976,-184.139 386.236,-189.288 387.426,-182.39"/>
</g>
<!-- Node8 -->
<g id="node8" class="node"><title>Node8</title>
<g id="a_node8"><a xlink:href="confmanager_8hpp.html" target="_top" xlink:title="Configuration file management header. ">
<polygon fill="white" stroke="black" points="741.19,-112.5 741.19,-131.5 833.19,-131.5 833.19,-112.5 741.19,-112.5"/>
<text text-anchor="middle" x="787.19" y="-119.5" font-family="Helvetica,sans-Serif" font-size="10.00">confmanager.hpp</text>
</a>
</g>
</g>
<!-- Node1&#45;&gt;Node8 -->
<g id="edge26" class="edge"><title>Node1&#45;&gt;Node8</title>
<path fill="none" stroke="midnightblue" d="M670.156,-224.368C691.578,-205.814 742.264,-161.913 769.367,-138.438"/>
<polygon fill="midnightblue" stroke="midnightblue" points="772.004,-140.784 777.271,-131.591 767.421,-135.493 772.004,-140.784"/>
</g>
<!-- Node12 -->
<g id="node12" class="node"><title>Node12</title>
<polygon fill="white" stroke="#bfbfbf" points="997.19,-56.5 997.19,-75.5 1051.19,-75.5 1051.19,-56.5 997.19,-56.5"/>
<text text-anchor="middle" x="1024.19" y="-63.5" font-family="Helvetica,sans-Serif" font-size="10.00">iostream</text>
</g>
<!-- Node1&#45;&gt;Node12 -->
<g id="edge53" class="edge"><title>Node1&#45;&gt;Node12</title>
<path fill="none" stroke="midnightblue" d="M696.699,-232.058C807.894,-228.342 1138.73,-210.741 1203.19,-132 1208.82,-125.122 1208.66,-119.01 1203.19,-112 1202.08,-110.575 1113.58,-88.7957 1061.45,-76.0682"/>
<polygon fill="midnightblue" stroke="midnightblue" points="1062.09,-72.6219 1051.55,-73.652 1060.43,-79.4225 1062.09,-72.6219"/>
</g>
<!-- Node15 -->
<g id="node15" class="node"><title>Node15</title>
<polygon fill="white" stroke="#bfbfbf" points="1069.69,-56.5 1069.69,-75.5 1128.69,-75.5 1128.69,-56.5 1069.69,-56.5"/>
<text text-anchor="middle" x="1099.19" y="-63.5" font-family="Helvetica,sans-Serif" font-size="10.00">ncurses.h</text>
</g>
<!-- Node1&#45;&gt;Node15 -->
<g id="edge52" class="edge"><title>Node1&#45;&gt;Node15</title>
<path fill="none" stroke="midnightblue" d="M696.692,-231.652C792.467,-227.775 1049.09,-215.091 1129.19,-188 1173.82,-172.907 1196.31,-173.183 1219.19,-132 1238.54,-97.1761 1180.71,-80.057 1138.73,-72.4081"/>
<polygon fill="midnightblue" stroke="midnightblue" points="1139.17,-68.9324 1128.72,-70.7046 1137.99,-75.8331 1139.17,-68.9324"/>
</g>
<!-- Node17 -->
<g id="node17" class="node"><title>Node17</title>
<polygon fill="white" stroke="#bfbfbf" points="13.6903,-112.5 13.6903,-131.5 58.6903,-131.5 58.6903,-112.5 13.6903,-112.5"/>
<text text-anchor="middle" x="36.1903" y="-119.5" font-family="Helvetica,sans-Serif" font-size="10.00">cstdlib</text>
</g>
<!-- Node1&#45;&gt;Node17 -->
<g id="edge51" class="edge"><title>Node1&#45;&gt;Node17</title>
<path fill="none" stroke="midnightblue" d="M623.452,-233.163C543.681,-232.719 349.166,-227.302 192.19,-188 144.164,-175.976 91.6741,-151.563 61.4699,-136.317"/>
<polygon fill="midnightblue" stroke="midnightblue" points="62.9768,-133.157 52.4803,-131.717 59.7878,-139.388 62.9768,-133.157"/>
</g>
<!-- Node18 -->
<g id="node18" class="node"><title>Node18</title>
<polygon fill="white" stroke="#bfbfbf" points="77.1903,-112.5 77.1903,-131.5 123.19,-131.5 123.19,-112.5 77.1903,-112.5"/>
<text text-anchor="middle" x="100.19" y="-119.5" font-family="Helvetica,sans-Serif" font-size="10.00">chrono</text>
</g>
<!-- Node1&#45;&gt;Node18 -->
<g id="edge54" class="edge"><title>Node1&#45;&gt;Node18</title>
<path fill="none" stroke="midnightblue" d="M623.42,-232.583C550.975,-230.972 385.187,-223.364 251.19,-188 204.827,-175.764 154.282,-151.593 125.013,-136.422"/>
<polygon fill="midnightblue" stroke="midnightblue" points="126.419,-133.207 115.939,-131.652 123.162,-139.403 126.419,-133.207"/>
</g>
<!-- Node19 -->
<g id="node19" class="node"><title>Node19</title>
<polygon fill="white" stroke="#bfbfbf" points="141.19,-112.5 141.19,-131.5 185.19,-131.5 185.19,-112.5 141.19,-112.5"/>
<text text-anchor="middle" x="163.19" y="-119.5" font-family="Helvetica,sans-Serif" font-size="10.00">thread</text>
</g>
<!-- Node1&#45;&gt;Node19 -->
<g id="edge55" class="edge"><title>Node1&#45;&gt;Node19</title>
<path fill="none" stroke="midnightblue" d="M623.511,-231.847C558.722,-229.036 420.278,-219.539 308.19,-188 263.768,-175.501 215.489,-151.583 187.36,-136.506"/>
<polygon fill="midnightblue" stroke="midnightblue" points="188.748,-133.277 178.29,-131.575 185.404,-139.427 188.748,-133.277"/>
</g>
<!-- Node20 -->
<g id="node20" class="node"><title>Node20</title>
<g id="a_node20"><a xlink:href="menu_8hpp.html" target="_top" xlink:title="Menu class header. ">
<polygon fill="white" stroke="black" points="630.69,-168.5 630.69,-187.5 689.69,-187.5 689.69,-168.5 630.69,-168.5"/>
<text text-anchor="middle" x="660.19" y="-175.5" font-family="Helvetica,sans-Serif" font-size="10.00">menu.hpp</text>
</a>
</g>
</g>
<!-- Node1&#45;&gt;Node20 -->
<g id="edge27" class="edge"><title>Node1&#45;&gt;Node20</title>
<path fill="none" stroke="midnightblue" d="M660.19,-224.083C660.19,-217.006 660.19,-206.861 660.19,-197.986"/>
<polygon fill="midnightblue" stroke="midnightblue" points="663.69,-197.751 660.19,-187.751 656.69,-197.751 663.69,-197.751"/>
</g>
<!-- Node22 -->
<g id="node22" class="node"><title>Node22</title>
<g id="a_node22"><a xlink:href="form_8hpp.html" target="_top" xlink:title="Header of the Form class. ">
<polygon fill="white" stroke="black" points="861.69,-168.5 861.69,-187.5 916.69,-187.5 916.69,-168.5 861.69,-168.5"/>
<text text-anchor="middle" x="889.19" y="-175.5" font-family="Helvetica,sans-Serif" font-size="10.00">form.hpp</text>
</a>
</g>
</g>
<!-- Node1&#45;&gt;Node22 -->
<g id="edge35" class="edge"><title>Node1&#45;&gt;Node22</title>
<path fill="none" stroke="midnightblue" d="M696.476,-224.444C738.859,-214.449 808.628,-197.997 851.574,-187.87"/>
<polygon fill="midnightblue" stroke="midnightblue" points="852.428,-191.265 861.358,-185.563 850.822,-184.452 852.428,-191.265"/>
</g>
<!-- Node24 -->
<g id="node24" class="node"><title>Node24</title>
<g id="a_node24"><a xlink:href="help_8hpp.html" target="_top" xlink:title="Help class header. ">
<polygon fill="white" stroke="black" points="927.69,-112.5 927.69,-131.5 980.69,-131.5 980.69,-112.5 927.69,-112.5"/>
<text text-anchor="middle" x="954.19" y="-119.5" font-family="Helvetica,sans-Serif" font-size="10.00">help.hpp</text>
</a>
</g>
</g>
<!-- Node1&#45;&gt;Node24 -->
<g id="edge43" class="edge"><title>Node1&#45;&gt;Node24</title>
<path fill="none" stroke="midnightblue" d="M683.26,-224.368C735.213,-204.93 861.515,-157.674 921.509,-135.228"/>
<polygon fill="midnightblue" stroke="midnightblue" points="923.088,-138.374 931.228,-131.591 920.635,-131.818 923.088,-138.374"/>
</g>
<!-- Node3 -->
<g id="node3" class="node"><title>Node3</title>
<polygon fill="white" stroke="#bfbfbf" points="419.19,-0.5 419.19,-19.5 459.19,-19.5 459.19,-0.5 419.19,-0.5"/>
<text text-anchor="middle" x="439.19" y="-7.5" font-family="Helvetica,sans-Serif" font-size="10.00">utility</text>
</g>
<!-- Node2&#45;&gt;Node3 -->
<g id="edge2" class="edge"><title>Node2&#45;&gt;Node3</title>
<path fill="none" stroke="midnightblue" d="M439.19,-56.083C439.19,-49.0059 439.19,-38.8611 439.19,-29.9865"/>
<polygon fill="midnightblue" stroke="midnightblue" points="442.69,-29.751 439.19,-19.7511 435.69,-29.7511 442.69,-29.751"/>
</g>
<!-- Node4&#45;&gt;Node2 -->
<g id="edge4" class="edge"><title>Node4&#45;&gt;Node2</title>
<path fill="none" stroke="midnightblue" d="M331.147,-168.386C310.446,-156.14 278.818,-132.867 294.19,-112 316.576,-81.6141 359.282,-71.1414 392.574,-67.812"/>
<polygon fill="midnightblue" stroke="midnightblue" points="392.89,-71.298 402.571,-66.994 392.319,-64.3213 392.89,-71.298"/>
</g>
<!-- Node5 -->
<g id="node5" class="node"><title>Node5</title>
<g id="a_node5"><a xlink:href="square_8hpp.html" target="_top" xlink:title="Square class header. ">
<polygon fill="white" stroke="black" points="437.69,-112.5 437.69,-131.5 502.69,-131.5 502.69,-112.5 437.69,-112.5"/>
<text text-anchor="middle" x="470.19" y="-119.5" font-family="Helvetica,sans-Serif" font-size="10.00">square.hpp</text>
</a>
</g>
</g>
<!-- Node4&#45;&gt;Node5 -->
<g id="edge5" class="edge"><title>Node4&#45;&gt;Node5</title>
<path fill="none" stroke="midnightblue" d="M366.68,-168.444C386.833,-159.596 418.513,-145.687 441.521,-135.586"/>
<polygon fill="midnightblue" stroke="midnightblue" points="443.042,-138.741 450.792,-131.516 440.228,-132.332 443.042,-138.741"/>
</g>
<!-- Node6 -->
<g id="node6" class="node"><title>Node6</title>
<polygon fill="white" stroke="#bfbfbf" points="524.69,-56.5 524.69,-75.5 583.69,-75.5 583.69,-56.5 524.69,-56.5"/>
<text text-anchor="middle" x="554.19" y="-63.5" font-family="Helvetica,sans-Serif" font-size="10.00">exception</text>
</g>
<!-- Node4&#45;&gt;Node6 -->
<g id="edge20" class="edge"><title>Node4&#45;&gt;Node6</title>
<path fill="none" stroke="midnightblue" d="M355.935,-168.308C370.055,-154.683 399.23,-128.185 428.19,-112 455.578,-96.6937 489.141,-85.012 514.739,-77.3911"/>
<polygon fill="midnightblue" stroke="midnightblue" points="515.846,-80.7144 524.479,-74.5719 513.9,-73.9904 515.846,-80.7144"/>
</g>
<!-- Node4&#45;&gt;Node8 -->
<g id="edge9" class="edge"><title>Node4&#45;&gt;Node8</title>
<path fill="none" stroke="midnightblue" d="M376.743,-173.373C449.247,-164.475 636.877,-141.448 731.249,-129.866"/>
<polygon fill="midnightblue" stroke="midnightblue" points="731.684,-133.338 741.183,-128.646 730.831,-126.391 731.684,-133.338"/>
</g>
<!-- Node11 -->
<g id="node11" class="node"><title>Node11</title>
<polygon fill="white" stroke="#bfbfbf" points="867.19,-56.5 867.19,-75.5 911.19,-75.5 911.19,-56.5 867.19,-56.5"/>
<text text-anchor="middle" x="889.19" y="-63.5" font-family="Helvetica,sans-Serif" font-size="10.00">vector</text>
</g>
<!-- Node4&#45;&gt;Node11 -->
<g id="edge18" class="edge"><title>Node4&#45;&gt;Node11</title>
<path fill="none" stroke="midnightblue" d="M376.874,-169.358C427.829,-156.408 535.334,-129.826 627.19,-112 725.687,-92.8852 754.376,-97.7203 857.058,-75.7711"/>
<polygon fill="midnightblue" stroke="midnightblue" points="857.866,-79.1774 866.896,-73.6356 856.381,-72.3367 857.866,-79.1774"/>
</g>
<!-- Node14 -->
<g id="node14" class="node"><title>Node14</title>
<polygon fill="white" stroke="#bfbfbf" points="303.19,-112.5 303.19,-131.5 343.19,-131.5 343.19,-112.5 303.19,-112.5"/>
<text text-anchor="middle" x="323.19" y="-119.5" font-family="Helvetica,sans-Serif" font-size="10.00">limits</text>
</g>
<!-- Node4&#45;&gt;Node14 -->
<g id="edge19" class="edge"><title>Node4&#45;&gt;Node14</title>
<path fill="none" stroke="midnightblue" d="M343.227,-168.083C339.977,-160.77 335.271,-150.181 331.236,-141.103"/>
<polygon fill="midnightblue" stroke="midnightblue" points="334.339,-139.468 327.08,-131.751 327.943,-142.311 334.339,-139.468"/>
</g>
<!-- Node4&#45;&gt;Node15 -->
<g id="edge21" class="edge"><title>Node4&#45;&gt;Node15</title>
<path fill="none" stroke="midnightblue" d="M377.006,-175.718C495.605,-170.509 930.316,-150.331 989.19,-132 989.784,-131.815 1043.51,-100.003 1075.64,-80.958"/>
<polygon fill="midnightblue" stroke="midnightblue" points="1077.64,-83.8434 1084.46,-75.7338 1074.07,-77.8216 1077.64,-83.8434"/>
</g>
<!-- Node16 -->
<g id="node16" class="node"><title>Node16</title>
<polygon fill="white" stroke="#bfbfbf" points="203.19,-112.5 203.19,-131.5 247.19,-131.5 247.19,-112.5 203.19,-112.5"/>
<text text-anchor="middle" x="225.19" y="-119.5" font-family="Helvetica,sans-Serif" font-size="10.00">cmath</text>
</g>
<!-- Node4&#45;&gt;Node16 -->
<g id="edge22" class="edge"><title>Node4&#45;&gt;Node16</title>
<path fill="none" stroke="midnightblue" d="M327.859,-168.444C307.87,-159.596 276.447,-145.687 253.626,-135.586"/>
<polygon fill="midnightblue" stroke="midnightblue" points="254.992,-132.363 244.431,-131.516 252.159,-138.764 254.992,-132.363"/>
</g>
<!-- Node4&#45;&gt;Node17 -->
<g id="edge23" class="edge"><title>Node4&#45;&gt;Node17</title>
<path fill="none" stroke="midnightblue" d="M317.658,-173.366C268.208,-167.038 165.391,-152.847 68.766,-131.896"/>
<polygon fill="midnightblue" stroke="midnightblue" points="69.3532,-128.442 58.835,-129.714 67.8507,-135.279 69.3532,-128.442"/>
</g>
<!-- Node4&#45;&gt;Node18 -->
<g id="edge24" class="edge"><title>Node4&#45;&gt;Node18</title>
<path fill="none" stroke="midnightblue" d="M317.486,-171.444C277.741,-163.868 204.865,-149.475 133.299,-132.142"/>
<polygon fill="midnightblue" stroke="midnightblue" points="133.758,-128.651 123.213,-129.677 132.096,-135.451 133.758,-128.651"/>
</g>
<!-- Node4&#45;&gt;Node19 -->
<g id="edge25" class="edge"><title>Node4&#45;&gt;Node19</title>
<path fill="none" stroke="midnightblue" d="M318.035,-168.444C284.463,-158.591 229.505,-142.462 194.894,-132.304"/>
<polygon fill="midnightblue" stroke="midnightblue" points="195.86,-128.94 185.279,-129.483 193.889,-135.657 195.86,-128.94"/>
</g>
<!-- Node5&#45;&gt;Node2 -->
<g id="edge6" class="edge"><title>Node5&#45;&gt;Node2</title>
<path fill="none" stroke="midnightblue" d="M465.071,-112.083C460.783,-104.613 454.532,-93.7244 449.248,-84.5199"/>
<polygon fill="midnightblue" stroke="midnightblue" points="452.228,-82.6811 444.214,-75.7511 446.157,-86.1662 452.228,-82.6811"/>
</g>
<!-- Node5&#45;&gt;Node6 -->
<g id="edge7" class="edge"><title>Node5&#45;&gt;Node6</title>
<path fill="none" stroke="midnightblue" d="M483.686,-112.324C496.79,-103.9 516.902,-90.9709 532.297,-81.0741"/>
<polygon fill="midnightblue" stroke="midnightblue" points="534.209,-84.0063 540.728,-75.6545 530.423,-78.118 534.209,-84.0063"/>
</g>
<!-- Node7 -->
<g id="node7" class="node"><title>Node7</title>
<polygon fill="white" stroke="#bfbfbf" points="789.69,-56.5 789.69,-75.5 848.69,-75.5 848.69,-56.5 789.69,-56.5"/>
<text text-anchor="middle" x="819.19" y="-63.5" font-family="Helvetica,sans-Serif" font-size="10.00">stdexcept</text>
</g>
<!-- Node5&#45;&gt;Node7 -->
<g id="edge8" class="edge"><title>Node5&#45;&gt;Node7</title>
<path fill="none" stroke="midnightblue" d="M502.918,-117.153C557.905,-110.493 672.49,-95.7812 779.441,-76.001"/>
<polygon fill="midnightblue" stroke="midnightblue" points="780.246,-79.4112 789.433,-74.1338 778.96,-72.5303 780.246,-79.4112"/>
</g>
<!-- Node8&#45;&gt;Node2 -->
<g id="edge10" class="edge"><title>Node8&#45;&gt;Node2</title>
<path fill="none" stroke="midnightblue" d="M740.979,-113.829C674.552,-103.522 552.748,-84.621 485.994,-74.2627"/>
<polygon fill="midnightblue" stroke="midnightblue" points="486.189,-70.751 475.77,-72.6762 485.115,-77.6683 486.189,-70.751"/>
</g>
<!-- Node8&#45;&gt;Node6 -->
<g id="edge14" class="edge"><title>Node8&#45;&gt;Node6</title>
<path fill="none" stroke="midnightblue" d="M750.271,-112.444C707.623,-102.56 637.72,-86.3589 593.918,-76.2072"/>
<polygon fill="midnightblue" stroke="midnightblue" points="594.445,-72.7368 583.913,-73.8886 592.865,-79.5561 594.445,-72.7368"/>
</g>
<!-- Node8&#45;&gt;Node7 -->
<g id="edge13" class="edge"><title>Node8&#45;&gt;Node7</title>
<path fill="none" stroke="midnightblue" d="M792.474,-112.083C796.901,-104.613 803.354,-93.7244 808.808,-84.5199"/>
<polygon fill="midnightblue" stroke="midnightblue" points="811.917,-86.1383 814.004,-75.7511 805.895,-82.5697 811.917,-86.1383"/>
</g>
<!-- Node9 -->
<g id="node9" class="node"><title>Node9</title>
<polygon fill="white" stroke="#bfbfbf" points="929.19,-56.5 929.19,-75.5 979.19,-75.5 979.19,-56.5 929.19,-56.5"/>
<text text-anchor="middle" x="954.19" y="-63.5" font-family="Helvetica,sans-Serif" font-size="10.00">fstream</text>
</g>
<!-- Node8&#45;&gt;Node9 -->
<g id="edge11" class="edge"><title>Node8&#45;&gt;Node9</title>
<path fill="none" stroke="midnightblue" d="M813.652,-112.444C842.2,-103.212 887.789,-88.4712 919.262,-78.2941"/>
<polygon fill="midnightblue" stroke="midnightblue" points="920.508,-81.5699 928.946,-75.1629 918.354,-74.9095 920.508,-81.5699"/>
</g>
<!-- Node10 -->
<g id="node10" class="node"><title>Node10</title>
<polygon fill="white" stroke="#bfbfbf" points="625.69,-56.5 625.69,-75.5 666.69,-75.5 666.69,-56.5 625.69,-56.5"/>
<text text-anchor="middle" x="646.19" y="-63.5" font-family="Helvetica,sans-Serif" font-size="10.00">string</text>
</g>
<!-- Node8&#45;&gt;Node10 -->
<g id="edge12" class="edge"><title>Node8&#45;&gt;Node10</title>
<path fill="none" stroke="midnightblue" d="M764.848,-112.444C741.024,-103.319 703.145,-88.8125 676.61,-78.6501"/>
<polygon fill="midnightblue" stroke="midnightblue" points="677.639,-75.2963 667.049,-74.9883 675.135,-81.8333 677.639,-75.2963"/>
</g>
<!-- Node8&#45;&gt;Node11 -->
<g id="edge15" class="edge"><title>Node8&#45;&gt;Node11</title>
<path fill="none" stroke="midnightblue" d="M803.578,-112.324C819.862,-103.703 845.058,-90.3643 863.907,-80.3855"/>
<polygon fill="midnightblue" stroke="midnightblue" points="865.643,-83.4267 872.843,-75.6545 862.367,-77.2402 865.643,-83.4267"/>
</g>
<!-- Node8&#45;&gt;Node12 -->
<g id="edge16" class="edge"><title>Node8&#45;&gt;Node12</title>
<path fill="none" stroke="midnightblue" d="M826.541,-112.491C865.051,-104.098 925.624,-90.7177 987.194,-76.1938"/>
<polygon fill="midnightblue" stroke="midnightblue" points="988.156,-79.5629 997.081,-73.8536 986.544,-72.7511 988.156,-79.5629"/>
</g>
<!-- Node13 -->
<g id="node13" class="node"><title>Node13</title>
<polygon fill="white" stroke="#bfbfbf" points="725.19,-56.5 725.19,-75.5 771.19,-75.5 771.19,-56.5 725.19,-56.5"/>
<text text-anchor="middle" x="748.19" y="-63.5" font-family="Helvetica,sans-Serif" font-size="10.00">cctype</text>
</g>
<!-- Node8&#45;&gt;Node13 -->
<g id="edge17" class="edge"><title>Node8&#45;&gt;Node13</title>
<path fill="none" stroke="midnightblue" d="M780.75,-112.083C775.241,-104.455 767.159,-93.2645 760.425,-83.9408"/>
<polygon fill="midnightblue" stroke="midnightblue" points="763.203,-81.8087 754.51,-75.7511 757.528,-85.9071 763.203,-81.8087"/>
</g>
<!-- Node20&#45;&gt;Node2 -->
<g id="edge28" class="edge"><title>Node20&#45;&gt;Node2</title>
<path fill="none" stroke="midnightblue" d="M630.413,-175.763C573.688,-172.715 453.511,-162.704 428.19,-132 417.409,-118.926 422.778,-99.2322 429.223,-84.9491"/>
<polygon fill="midnightblue" stroke="midnightblue" points="432.52,-86.1831 433.89,-75.6772 426.267,-83.0358 432.52,-86.1831"/>
</g>
<!-- Node20&#45;&gt;Node6 -->
<g id="edge32" class="edge"><title>Node20&#45;&gt;Node6</title>
<path fill="none" stroke="midnightblue" d="M651.873,-168.368C634.147,-149.974 592.419,-106.671 569.658,-83.0519"/>
<polygon fill="midnightblue" stroke="midnightblue" points="571.929,-80.3636 562.469,-75.5914 566.888,-85.2209 571.929,-80.3636"/>
</g>
<!-- Node20&#45;&gt;Node8 -->
<g id="edge29" class="edge"><title>Node20&#45;&gt;Node8</title>
<path fill="none" stroke="midnightblue" d="M680.314,-168.444C701.215,-159.557 734.125,-145.563 757.906,-135.451"/>
<polygon fill="midnightblue" stroke="midnightblue" points="759.328,-138.65 767.161,-131.516 756.589,-132.208 759.328,-138.65"/>
</g>
<!-- Node20&#45;&gt;Node10 -->
<g id="edge34" class="edge"><title>Node20&#45;&gt;Node10</title>
<path fill="none" stroke="midnightblue" d="M651.17,-168.34C643.118,-159.932 631.892,-146.363 627.19,-132 622.002,-116.151 628.396,-97.9102 635.13,-84.7935"/>
<polygon fill="midnightblue" stroke="midnightblue" points="638.291,-86.3151 640.16,-75.8865 632.195,-82.873 638.291,-86.3151"/>
</g>
<!-- Node20&#45;&gt;Node11 -->
<g id="edge33" class="edge"><title>Node20&#45;&gt;Node11</title>
<path fill="none" stroke="midnightblue" d="M689.797,-175.857C728.035,-173.082 795.243,-163.677 842.19,-132 859.636,-120.229 872.863,-99.7035 880.773,-84.8619"/>
<polygon fill="midnightblue" stroke="midnightblue" points="884.027,-86.1798 885.386,-75.6724 877.771,-83.0393 884.027,-86.1798"/>
</g>
<!-- Node20&#45;&gt;Node15 -->
<g id="edge30" class="edge"><title>Node20&#45;&gt;Node15</title>
<path fill="none" stroke="midnightblue" d="M689.749,-175.527C765.245,-171.419 963.418,-158.366 1023.19,-132 1048.39,-120.885 1071.54,-98.5882 1085.5,-83.2343"/>
<polygon fill="midnightblue" stroke="midnightblue" points="1088.3,-85.3554 1092.27,-75.5337 1083.04,-80.734 1088.3,-85.3554"/>
</g>
<!-- Node21 -->
<g id="node21" class="node"><title>Node21</title>
<polygon fill="white" stroke="#bfbfbf" points="635.69,-112.5 635.69,-131.5 684.69,-131.5 684.69,-112.5 635.69,-112.5"/>
<text text-anchor="middle" x="660.19" y="-119.5" font-family="Helvetica,sans-Serif" font-size="10.00">menu.h</text>
</g>
<!-- Node20&#45;&gt;Node21 -->
<g id="edge31" class="edge"><title>Node20&#45;&gt;Node21</title>
<path fill="none" stroke="midnightblue" d="M660.19,-168.083C660.19,-161.006 660.19,-150.861 660.19,-141.986"/>
<polygon fill="midnightblue" stroke="midnightblue" points="663.69,-141.751 660.19,-131.751 656.69,-141.751 663.69,-141.751"/>
</g>
<!-- Node22&#45;&gt;Node6 -->
<g id="edge41" class="edge"><title>Node22&#45;&gt;Node6</title>
<path fill="none" stroke="midnightblue" d="M861.424,-170.778C829.62,-163.255 776.226,-149.41 732.19,-132 714.075,-124.838 711.181,-119.468 693.19,-112 660.329,-98.3586 621.746,-86.1557 593.578,-77.9106"/>
<polygon fill="midnightblue" stroke="midnightblue" points="594.281,-74.4704 583.702,-75.0567 592.337,-81.1953 594.281,-74.4704"/>
</g>
<!-- Node22&#45;&gt;Node7 -->
<g id="edge40" class="edge"><title>Node22&#45;&gt;Node7</title>
<path fill="none" stroke="midnightblue" d="M883.697,-168.368C872.197,-150.296 845.393,-108.176 830.204,-84.3074"/>
<polygon fill="midnightblue" stroke="midnightblue" points="832.979,-82.149 824.658,-75.5914 827.074,-85.9071 832.979,-82.149"/>
</g>
<!-- Node22&#45;&gt;Node8 -->
<g id="edge36" class="edge"><title>Node22&#45;&gt;Node8</title>
<path fill="none" stroke="midnightblue" d="M872.802,-168.324C856.519,-159.703 831.323,-146.364 812.474,-136.386"/>
<polygon fill="midnightblue" stroke="midnightblue" points="814.013,-133.24 803.538,-131.655 810.738,-139.427 814.013,-133.24"/>
</g>
<!-- Node22&#45;&gt;Node9 -->
<g id="edge39" class="edge"><title>Node22&#45;&gt;Node9</title>
<path fill="none" stroke="midnightblue" d="M916.908,-174.787C944.263,-170.958 984.731,-160.51 1004.19,-132 1016.47,-114.012 996.22,-94.3129 977.934,-81.37"/>
<polygon fill="midnightblue" stroke="midnightblue" points="979.529,-78.2269 969.266,-75.5961 975.648,-84.0528 979.529,-78.2269"/>
</g>
<!-- Node22&#45;&gt;Node11 -->
<g id="edge37" class="edge"><title>Node22&#45;&gt;Node11</title>
<path fill="none" stroke="midnightblue" d="M917.047,-172.887C940.744,-167.757 973.375,-156.46 989.19,-132 994.017,-124.536 994.017,-119.464 989.19,-112 981.307,-99.8086 947.324,-86.1715 921.137,-77.1385"/>
<polygon fill="midnightblue" stroke="midnightblue" points="922.147,-73.7856 911.553,-73.9145 919.915,-80.4203 922.147,-73.7856"/>
</g>
<!-- Node22&#45;&gt;Node15 -->
<g id="edge42" class="edge"><title>Node22&#45;&gt;Node15</title>
<path fill="none" stroke="midnightblue" d="M916.699,-177.429C986.231,-177.866 1166.13,-174.756 1203.19,-132 1226.04,-105.638 1177.03,-86.3935 1138.79,-75.955"/>
<polygon fill="midnightblue" stroke="midnightblue" points="1139.42,-72.501 1128.86,-73.3688 1137.65,-79.2752 1139.42,-72.501"/>
</g>
<!-- Node23 -->
<g id="node23" class="node"><title>Node23</title>
<polygon fill="white" stroke="#bfbfbf" points="1151.19,-112.5 1151.19,-131.5 1195.19,-131.5 1195.19,-112.5 1151.19,-112.5"/>
<text text-anchor="middle" x="1173.19" y="-119.5" font-family="Helvetica,sans-Serif" font-size="10.00">form.h</text>
</g>
<!-- Node22&#45;&gt;Node23 -->
<g id="edge38" class="edge"><title>Node22&#45;&gt;Node23</title>
<path fill="none" stroke="midnightblue" d="M916.831,-172.592C962.761,-165.131 1057.63,-149.145 1137.19,-132 1138.47,-131.725 1139.76,-131.438 1141.07,-131.141"/>
<polygon fill="midnightblue" stroke="midnightblue" points="1142.24,-134.463 1151.16,-128.75 1140.62,-127.651 1142.24,-134.463"/>
</g>
<!-- Node24&#45;&gt;Node2 -->
<g id="edge44" class="edge"><title>Node24&#45;&gt;Node2</title>
<path fill="none" stroke="midnightblue" d="M927.45,-118.407C858.9,-111.727 671.301,-93.2434 515.19,-76 505.783,-74.9609 495.726,-73.8032 486.11,-72.6734"/>
<polygon fill="midnightblue" stroke="midnightblue" points="486.242,-69.1647 475.9,-71.4653 485.42,-76.1162 486.242,-69.1647"/>
</g>
<!-- Node24&#45;&gt;Node6 -->
<g id="edge48" class="edge"><title>Node24&#45;&gt;Node6</title>
<path fill="none" stroke="midnightblue" d="M927.53,-117.524C870.546,-110.077 732.67,-91.9582 617.19,-76 609.656,-74.9589 601.619,-73.827 593.894,-72.7283"/>
<polygon fill="midnightblue" stroke="midnightblue" points="594.381,-69.2624 583.986,-71.3136 593.391,-76.1921 594.381,-69.2624"/>
</g>
<!-- Node24&#45;&gt;Node7 -->
<g id="edge47" class="edge"><title>Node24&#45;&gt;Node7</title>
<path fill="none" stroke="midnightblue" d="M932.799,-112.444C910.483,-103.517 875.287,-89.4387 849.982,-79.3168"/>
<polygon fill="midnightblue" stroke="midnightblue" points="851.066,-75.9807 840.481,-75.5164 848.466,-82.4801 851.066,-75.9807"/>
</g>
<!-- Node24&#45;&gt;Node9 -->
<g id="edge46" class="edge"><title>Node24&#45;&gt;Node9</title>
<path fill="none" stroke="midnightblue" d="M954.19,-112.083C954.19,-105.006 954.19,-94.8611 954.19,-85.9865"/>
<polygon fill="midnightblue" stroke="midnightblue" points="957.69,-85.751 954.19,-75.7511 950.69,-85.7511 957.69,-85.751"/>
</g>
<!-- Node24&#45;&gt;Node11 -->
<g id="edge45" class="edge"><title>Node24&#45;&gt;Node11</title>
<path fill="none" stroke="midnightblue" d="M943.747,-112.324C934.044,-104.263 919.375,-92.0765 907.691,-82.3695"/>
<polygon fill="midnightblue" stroke="midnightblue" points="909.752,-79.532 899.824,-75.8339 905.279,-84.9163 909.752,-79.532"/>
</g>
<!-- Node24&#45;&gt;Node12 -->
<g id="edge50" class="edge"><title>Node24&#45;&gt;Node12</title>
<path fill="none" stroke="midnightblue" d="M965.437,-112.324C975.988,-104.185 991.991,-91.8395 1004.63,-82.0874"/>
<polygon fill="midnightblue" stroke="midnightblue" points="1006.96,-84.7132 1012.74,-75.8339 1002.68,-79.1707 1006.96,-84.7132"/>
</g>
<!-- Node24&#45;&gt;Node15 -->
<g id="edge49" class="edge"><title>Node24&#45;&gt;Node15</title>
<path fill="none" stroke="midnightblue" d="M977.166,-112.444C1001.35,-103.438 1039.61,-89.1891 1066.84,-79.049"/>
<polygon fill="midnightblue" stroke="midnightblue" points="1068.17,-82.2864 1076.32,-75.5164 1065.73,-75.7265 1068.17,-82.2864"/>
</g>
</g>
</svg>
        <g id="navigator" transform="translate(0 0)" fill="#404254">
                <rect fill="#f2f5e9" fill-opacity="0.5" stroke="#606060" stroke-width=".5" x="0" y="0" width="60" height="60"/>
                <use id="zoomplus" xlink:href="#zoomPlus" x="17" y="9" onmousedown="handleZoom(evt,'in')"/>
                <use id="zoomminus" xlink:href="#zoomMin" x="42" y="9" onmousedown="handleZoom(evt,'out')"/>
                <use id="reset" xlink:href="#resetDef" x="30" y="36" onmousedown="handleReset()"/>
                <g id="arrowUp" xlink:href="#dirArrow" transform="translate(30 24)" onmousedown="handlePan(0,-1)">
                  <use xlink:href="#rim" fill="#404040">
                        <set attributeName="fill" to="#808080" begin="arrowUp.mouseover" end="arrowUp.mouseout"/>
                  </use>
                  <path fill="none" stroke="white" stroke-width="1.5" d="M0,-3.0v7 M-2.5,-0.5L0,-3.0L2.5,-0.5"/>
                </g>
                <g id="arrowRight" xlink:href="#dirArrow" transform="rotate(90) translate(36 -43)" onmousedown="handlePan(1,0)">
                  <use xlink:href="#rim" fill="#404040">
                        <set attributeName="fill" to="#808080" begin="arrowRight.mouseover" end="arrowRight.mouseout"/>
                  </use>
                  <path fill="none" stroke="white" stroke-width="1.5" d="M0,-3.0v7 M-2.5,-0.5L0,-3.0L2.5,-0.5"/>
                </g>
                <g id="arrowDown" xlink:href="#dirArrow" transform="rotate(180) translate(-30 -48)" onmousedown="handlePan(0,1)">
                  <use xlink:href="#rim" fill="#404040">
                        <set attributeName="fill" to="#808080" begin="arrowDown.mouseover" end="arrowDown.mouseout"/>
                  </use>
                  <path fill="none" stroke="white" stroke-width="1.5" d="M0,-3.0v7 M-2.5,-0.5L0,-3.0L2.5,-0.5"/>
                </g>
                <g id="arrowLeft" xlink:href="#dirArrow" transform="rotate(270) translate(-36 17)" onmousedown="handlePan(-1,0)">
                  <use xlink:href="#rim" fill="#404040">
                        <set attributeName="fill" to="#808080" begin="arrowLeft.mouseover" end="arrowLeft.mouseout"/>
                  </use>
                  <path fill="none" stroke="white" stroke-width="1.5" d="M0,-3.0v7 M-2.5,-0.5L0,-3.0L2.5,-0.5"/>
                </g>
        </g>
        <svg viewBox="0 0 15 15" width="100%" height="30px" preserveAspectRatio="xMaxYMin meet">
         <g id="arrow_out" transform="scale(0.3 0.3)">
          <a xlink:href="main_8hpp__incl_org.svg" target="_base">
           <rect id="button" ry="5" rx="5" y="6" x="6" height="38" width="38"
                fill="#f2f5e9" fill-opacity="0.5" stroke="#606060" stroke-width="1.0"/>
           <path id="arrow"
             d="M 11.500037,31.436501 C 11.940474,20.09759 22.043105,11.32322 32.158766,21.979434 L 37.068811,17.246167 C 37.068811,17.246167 37.088388,32 37.088388,32 L 22.160133,31.978069 C 22.160133,31.978069 26.997745,27.140456 26.997745,27.140456 C 18.528582,18.264221 13.291696,25.230495 11.500037,31.436501 z"
             style="fill:#404040;"/>
          </a>
         </g>
        </svg>
</svg>
