<?xml version="1.0" encoding="UTF-8" standalone="no"?>
<!DOCTYPE svg PUBLIC "-//W3C//DTD SVG 1.1//EN"
 "http://www.w3.org/Graphics/SVG/1.1/DTD/svg11.dtd">
<!-- Generated by graphviz version 2.34.0 (20140110.0334)
 -->
<!-- Title: src/menu.cpp Pages: 1 -->
<svg width="562pt" height="252pt"
 viewBox="0.00 0.00 562.00 252.00" xmlns="http://www.w3.org/2000/svg" xmlns:xlink="http://www.w3.org/1999/xlink">
<g id="graph0" class="graph" transform="scale(1 1) rotate(0) translate(4 248)">
<title>src/menu.cpp</title>
<polygon fill="white" stroke="white" points="-4,4 -4,-248 558,-248 558,4 -4,4"/>
<!-- Node1 -->
<g id="node1" class="node"><title>Node1</title>
<polygon fill="#bfbfbf" stroke="black" points="321,-224.5 321,-243.5 397,-243.5 397,-224.5 321,-224.5"/>
<text text-anchor="middle" x="359" y="-231.5" font-family="Helvetica,sans-Serif" font-size="10.00">src/menu.cpp</text>
</g>
<!-- Node2 -->
<g id="node2" class="node"><title>Node2</title>
<g id="a_node2"><a xlink:href="menu_8hpp.html" target="_top" xlink:title="Menu class header. ">
<polygon fill="white" stroke="black" points="329.5,-168.5 329.5,-187.5 388.5,-187.5 388.5,-168.5 329.5,-168.5"/>
<text text-anchor="middle" x="359" y="-175.5" font-family="Helvetica,sans-Serif" font-size="10.00">menu.hpp</text>
</a>
</g>
</g>
<!-- Node1&#45;&gt;Node2 -->
<g id="edge1" class="edge"><title>Node1&#45;&gt;Node2</title>
<path fill="none" stroke="midnightblue" d="M359,-224.083C359,-217.006 359,-206.861 359,-197.986"/>
<polygon fill="midnightblue" stroke="midnightblue" points="362.5,-197.751 359,-187.751 355.5,-197.751 362.5,-197.751"/>
</g>
<!-- Node3 -->
<g id="node3" class="node"><title>Node3</title>
<g id="a_node3"><a xlink:href="common_8hpp.html" target="_top" xlink:title="Common header. ">
<polygon fill="white" stroke="black" points="-0.5,-56.5 -0.5,-75.5 72.5,-75.5 72.5,-56.5 -0.5,-56.5"/>
<text text-anchor="middle" x="36" y="-63.5" font-family="Helvetica,sans-Serif" font-size="10.00">common.hpp</text>
</a>
</g>
</g>
<!-- Node2&#45;&gt;Node3 -->
<g id="edge2" class="edge"><title>Node2&#45;&gt;Node3</title>
<path fill="none" stroke="midnightblue" d="M329.202,-170.722C294.396,-163.052 235.296,-148.978 186,-132 141.88,-116.804 92.5603,-94.3164 62.9181,-80.1708"/>
<polygon fill="midnightblue" stroke="midnightblue" points="64.1847,-76.8963 53.6558,-75.716 61.1506,-83.2046 64.1847,-76.8963"/>
</g>
<!-- Node5 -->
<g id="node5" class="node"><title>Node5</title>
<g id="a_node5"><a xlink:href="confmanager_8hpp.html" target="_top" xlink:title="Configuration file management header. ">
<polygon fill="white" stroke="black" points="239,-112.5 239,-131.5 331,-131.5 331,-112.5 239,-112.5"/>
<text text-anchor="middle" x="285" y="-119.5" font-family="Helvetica,sans-Serif" font-size="10.00">confmanager.hpp</text>
</a>
</g>
</g>
<!-- Node2&#45;&gt;Node5 -->
<g id="edge4" class="edge"><title>Node2&#45;&gt;Node5</title>
<path fill="none" stroke="midnightblue" d="M347.111,-168.324C335.85,-160.107 318.713,-147.602 305.291,-137.807"/>
<polygon fill="midnightblue" stroke="midnightblue" points="307.247,-134.901 297.106,-131.834 303.12,-140.556 307.247,-134.901"/>
</g>
<!-- Node7 -->
<g id="node7" class="node"><title>Node7</title>
<polygon fill="white" stroke="#bfbfbf" points="90.5,-56.5 90.5,-75.5 131.5,-75.5 131.5,-56.5 90.5,-56.5"/>
<text text-anchor="middle" x="111" y="-63.5" font-family="Helvetica,sans-Serif" font-size="10.00">string</text>
</g>
<!-- Node2&#45;&gt;Node7 -->
<g id="edge17" class="edge"><title>Node2&#45;&gt;Node7</title>
<path fill="none" stroke="midnightblue" d="M330.297,-168.479C303.805,-160.267 263.603,-146.917 230,-132 195.394,-116.638 157.299,-94.9211 133.759,-80.8989"/>
<polygon fill="midnightblue" stroke="midnightblue" points="135.28,-77.7293 124.906,-75.578 131.674,-83.7292 135.28,-77.7293"/>
</g>
<!-- Node9 -->
<g id="node9" class="node"><title>Node9</title>
<polygon fill="white" stroke="#bfbfbf" points="432.5,-56.5 432.5,-75.5 491.5,-75.5 491.5,-56.5 432.5,-56.5"/>
<text text-anchor="middle" x="462" y="-63.5" font-family="Helvetica,sans-Serif" font-size="10.00">exception</text>
</g>
<!-- Node2&#45;&gt;Node9 -->
<g id="edge15" class="edge"><title>Node2&#45;&gt;Node9</title>
<path fill="none" stroke="midnightblue" d="M360.23,-168.473C362.549,-155.075 368.684,-128.881 383,-112 395.09,-97.7441 412.899,-87.048 428.55,-79.6688"/>
<polygon fill="midnightblue" stroke="midnightblue" points="430.223,-82.7553 437.945,-75.5007 427.385,-76.3567 430.223,-82.7553"/>
</g>
<!-- Node10 -->
<g id="node10" class="node"><title>Node10</title>
<polygon fill="white" stroke="#bfbfbf" points="510,-56.5 510,-75.5 554,-75.5 554,-56.5 510,-56.5"/>
<text text-anchor="middle" x="532" y="-63.5" font-family="Helvetica,sans-Serif" font-size="10.00">vector</text>
</g>
<!-- Node2&#45;&gt;Node10 -->
<g id="edge16" class="edge"><title>Node2&#45;&gt;Node10</title>
<path fill="none" stroke="midnightblue" d="M364.761,-168.238C374.185,-154.516 394.153,-127.888 417,-112 430.856,-102.365 471.164,-87.5611 500.148,-77.5903"/>
<polygon fill="midnightblue" stroke="midnightblue" points="501.528,-80.8179 509.866,-74.2814 499.271,-74.1915 501.528,-80.8179"/>
</g>
<!-- Node13 -->
<g id="node13" class="node"><title>Node13</title>
<polygon fill="white" stroke="#bfbfbf" points="425.5,-112.5 425.5,-131.5 484.5,-131.5 484.5,-112.5 425.5,-112.5"/>
<text text-anchor="middle" x="455" y="-119.5" font-family="Helvetica,sans-Serif" font-size="10.00">ncurses.h</text>
</g>
<!-- Node2&#45;&gt;Node13 -->
<g id="edge13" class="edge"><title>Node2&#45;&gt;Node13</title>
<path fill="none" stroke="midnightblue" d="M374.424,-168.324C389.54,-159.822 412.815,-146.729 430.471,-136.797"/>
<polygon fill="midnightblue" stroke="midnightblue" points="432.614,-139.608 439.614,-131.655 429.183,-133.507 432.614,-139.608"/>
</g>
<!-- Node14 -->
<g id="node14" class="node"><title>Node14</title>
<polygon fill="white" stroke="#bfbfbf" points="502.5,-112.5 502.5,-131.5 551.5,-131.5 551.5,-112.5 502.5,-112.5"/>
<text text-anchor="middle" x="527" y="-119.5" font-family="Helvetica,sans-Serif" font-size="10.00">menu.h</text>
</g>
<!-- Node2&#45;&gt;Node14 -->
<g id="edge14" class="edge"><title>Node2&#45;&gt;Node14</title>
<path fill="none" stroke="midnightblue" d="M385.62,-168.444C414.59,-159.132 461.002,-144.214 492.688,-134.029"/>
<polygon fill="midnightblue" stroke="midnightblue" points="493.968,-137.294 502.417,-130.902 491.826,-130.63 493.968,-137.294"/>
</g>
<!-- Node4 -->
<g id="node4" class="node"><title>Node4</title>
<polygon fill="white" stroke="#bfbfbf" points="16,-0.5 16,-19.5 56,-19.5 56,-0.5 16,-0.5"/>
<text text-anchor="middle" x="36" y="-7.5" font-family="Helvetica,sans-Serif" font-size="10.00">utility</text>
</g>
<!-- Node3&#45;&gt;Node4 -->
<g id="edge3" class="edge"><title>Node3&#45;&gt;Node4</title>
<path fill="none" stroke="midnightblue" d="M36,-56.083C36,-49.0059 36,-38.8611 36,-29.9865"/>
<polygon fill="midnightblue" stroke="midnightblue" points="39.5001,-29.751 36,-19.7511 32.5001,-29.7511 39.5001,-29.751"/>
</g>
<!-- Node5&#45;&gt;Node3 -->
<g id="edge5" class="edge"><title>Node5&#45;&gt;Node3</title>
<path fill="none" stroke="midnightblue" d="M245.545,-112.444C201.341,-102.857 129.739,-87.3288 82.7583,-77.1404"/>
<polygon fill="midnightblue" stroke="midnightblue" points="83.3496,-73.6873 72.835,-74.9883 81.866,-80.5283 83.3496,-73.6873"/>
</g>
<!-- Node6 -->
<g id="node6" class="node"><title>Node6</title>
<polygon fill="white" stroke="#bfbfbf" points="150,-56.5 150,-75.5 200,-75.5 200,-56.5 150,-56.5"/>
<text text-anchor="middle" x="175" y="-63.5" font-family="Helvetica,sans-Serif" font-size="10.00">fstream</text>
</g>
<!-- Node5&#45;&gt;Node6 -->
<g id="edge6" class="edge"><title>Node5&#45;&gt;Node6</title>
<path fill="none" stroke="midnightblue" d="M267.327,-112.324C249.606,-103.625 222.097,-90.1202 201.712,-80.113"/>
<polygon fill="midnightblue" stroke="midnightblue" points="203.149,-76.9195 192.63,-75.6545 200.064,-83.2031 203.149,-76.9195"/>
</g>
<!-- Node5&#45;&gt;Node7 -->
<g id="edge7" class="edge"><title>Node5&#45;&gt;Node7</title>
<path fill="none" stroke="midnightblue" d="M257.429,-112.444C225.868,-102.649 174.319,-86.6509 141.558,-76.4836"/>
<polygon fill="midnightblue" stroke="midnightblue" points="142.219,-73.0239 131.631,-73.4026 140.144,-79.7094 142.219,-73.0239"/>
</g>
<!-- Node8 -->
<g id="node8" class="node"><title>Node8</title>
<polygon fill="white" stroke="#bfbfbf" points="218.5,-56.5 218.5,-75.5 277.5,-75.5 277.5,-56.5 218.5,-56.5"/>
<text text-anchor="middle" x="248" y="-63.5" font-family="Helvetica,sans-Serif" font-size="10.00">stdexcept</text>
</g>
<!-- Node5&#45;&gt;Node8 -->
<g id="edge8" class="edge"><title>Node5&#45;&gt;Node8</title>
<path fill="none" stroke="midnightblue" d="M278.89,-112.083C273.718,-104.534 266.154,-93.4948 259.806,-84.2298"/>
<polygon fill="midnightblue" stroke="midnightblue" points="262.536,-82.0221 253.996,-75.7511 256.761,-85.9787 262.536,-82.0221"/>
</g>
<!-- Node5&#45;&gt;Node9 -->
<g id="edge9" class="edge"><title>Node5&#45;&gt;Node9</title>
<path fill="none" stroke="midnightblue" d="M313.046,-112.444C343.082,-103.28 390.913,-88.6876 424.243,-78.5192"/>
<polygon fill="midnightblue" stroke="midnightblue" points="425.542,-81.7822 434.085,-75.5164 423.499,-75.0869 425.542,-81.7822"/>
</g>
<!-- Node5&#45;&gt;Node10 -->
<g id="edge10" class="edge"><title>Node5&#45;&gt;Node10</title>
<path fill="none" stroke="midnightblue" d="M330.085,-112.488C371.596,-104.444 435.086,-91.6206 499.713,-75.9276"/>
<polygon fill="midnightblue" stroke="midnightblue" points="500.791,-79.2669 509.672,-73.4884 499.126,-72.4679 500.791,-79.2669"/>
</g>
<!-- Node11 -->
<g id="node11" class="node"><title>Node11</title>
<polygon fill="white" stroke="#bfbfbf" points="296,-56.5 296,-75.5 350,-75.5 350,-56.5 296,-56.5"/>
<text text-anchor="middle" x="323" y="-63.5" font-family="Helvetica,sans-Serif" font-size="10.00">iostream</text>
</g>
<!-- Node5&#45;&gt;Node11 -->
<g id="edge11" class="edge"><title>Node5&#45;&gt;Node11</title>
<path fill="none" stroke="midnightblue" d="M291.275,-112.083C296.642,-104.455 304.518,-93.2645 311.079,-83.9408"/>
<polygon fill="midnightblue" stroke="midnightblue" points="313.949,-85.9434 316.842,-75.7511 308.225,-81.9149 313.949,-85.9434"/>
</g>
<!-- Node12 -->
<g id="node12" class="node"><title>Node12</title>
<polygon fill="white" stroke="#bfbfbf" points="368,-56.5 368,-75.5 414,-75.5 414,-56.5 368,-56.5"/>
<text text-anchor="middle" x="391" y="-63.5" font-family="Helvetica,sans-Serif" font-size="10.00">cctype</text>
</g>
<!-- Node5&#45;&gt;Node12 -->
<g id="edge12" class="edge"><title>Node5&#45;&gt;Node12</title>
<path fill="none" stroke="midnightblue" d="M302.031,-112.324C319.03,-103.664 345.376,-90.2424 364.993,-80.249"/>
<polygon fill="midnightblue" stroke="midnightblue" points="366.69,-83.3125 374.012,-75.6545 363.512,-77.0752 366.69,-83.3125"/>
</g>
</g>
</svg>
