<?xml version="1.0" encoding="UTF-8" standalone="no"?>
<!DOCTYPE svg PUBLIC "-//W3C//DTD SVG 1.1//EN"
 "http://www.w3.org/Graphics/SVG/1.1/DTD/svg11.dtd">
<!-- Generated by graphviz version 2.34.0 (20140110.0334)
 -->
<!-- Title: src/square.hpp Pages: 1 -->
<svg width="234pt" height="140pt"
 viewBox="0.00 0.00 234.00 140.00" xmlns="http://www.w3.org/2000/svg" xmlns:xlink="http://www.w3.org/1999/xlink">
<g id="graph0" class="graph" transform="scale(1 1) rotate(0) translate(4 136)">
<title>src/square.hpp</title>
<polygon fill="white" stroke="white" points="-4,4 -4,-136 230,-136 230,4 -4,4"/>
<!-- Node1 -->
<g id="node1" class="node"><title>Node1</title>
<polygon fill="#bfbfbf" stroke="black" points="79.5,-112.5 79.5,-131.5 160.5,-131.5 160.5,-112.5 79.5,-112.5"/>
<text text-anchor="middle" x="120" y="-119.5" font-family="Helvetica,sans-Serif" font-size="10.00">src/square.hpp</text>
</g>
<!-- Node2 -->
<g id="node2" class="node"><title>Node2</title>
<g id="a_node2"><a xlink:href="common_8hpp.html" target="_top" xlink:title="Common header. ">
<polygon fill="white" stroke="black" points="-0.5,-56.5 -0.5,-75.5 72.5,-75.5 72.5,-56.5 -0.5,-56.5"/>
<text text-anchor="middle" x="36" y="-63.5" font-family="Helvetica,sans-Serif" font-size="10.00">common.hpp</text>
</a>
</g>
</g>
<!-- Node1&#45;&gt;Node2 -->
<g id="edge1" class="edge"><title>Node1&#45;&gt;Node2</title>
<path fill="none" stroke="midnightblue" d="M106.504,-112.324C93.4004,-103.9 73.2881,-90.9709 57.8931,-81.0741"/>
<polygon fill="midnightblue" stroke="midnightblue" points="59.767,-78.118 49.4626,-75.6545 55.9817,-84.0063 59.767,-78.118"/>
</g>
<!-- Node4 -->
<g id="node4" class="node"><title>Node4</title>
<polygon fill="white" stroke="#bfbfbf" points="90.5,-56.5 90.5,-75.5 149.5,-75.5 149.5,-56.5 90.5,-56.5"/>
<text text-anchor="middle" x="120" y="-63.5" font-family="Helvetica,sans-Serif" font-size="10.00">exception</text>
</g>
<!-- Node1&#45;&gt;Node4 -->
<g id="edge3" class="edge"><title>Node1&#45;&gt;Node4</title>
<path fill="none" stroke="midnightblue" d="M120,-112.083C120,-105.006 120,-94.8611 120,-85.9865"/>
<polygon fill="midnightblue" stroke="midnightblue" points="123.5,-85.751 120,-75.7511 116.5,-85.7511 123.5,-85.751"/>
</g>
<!-- Node5 -->
<g id="node5" class="node"><title>Node5</title>
<polygon fill="white" stroke="#bfbfbf" points="167.5,-56.5 167.5,-75.5 226.5,-75.5 226.5,-56.5 167.5,-56.5"/>
<text text-anchor="middle" x="197" y="-63.5" font-family="Helvetica,sans-Serif" font-size="10.00">stdexcept</text>
</g>
<!-- Node1&#45;&gt;Node5 -->
<g id="edge4" class="edge"><title>Node1&#45;&gt;Node5</title>
<path fill="none" stroke="midnightblue" d="M132.371,-112.324C144.158,-104.058 162.132,-91.4527 176.136,-81.6322"/>
<polygon fill="midnightblue" stroke="midnightblue" points="178.482,-84.2619 184.659,-75.6545 174.462,-78.5307 178.482,-84.2619"/>
</g>
<!-- Node3 -->
<g id="node3" class="node"><title>Node3</title>
<polygon fill="white" stroke="#bfbfbf" points="16,-0.5 16,-19.5 56,-19.5 56,-0.5 16,-0.5"/>
<text text-anchor="middle" x="36" y="-7.5" font-family="Helvetica,sans-Serif" font-size="10.00">utility</text>
</g>
<!-- Node2&#45;&gt;Node3 -->
<g id="edge2" class="edge"><title>Node2&#45;&gt;Node3</title>
<path fill="none" stroke="midnightblue" d="M36,-56.083C36,-49.0059 36,-38.8611 36,-29.9865"/>
<polygon fill="midnightblue" stroke="midnightblue" points="39.5001,-29.751 36,-19.7511 32.5001,-29.7511 39.5001,-29.751"/>
</g>
</g>
</svg>
