<?xml version="1.0" encoding="UTF-8" standalone="no"?>
<!DOCTYPE svg PUBLIC "-//W3C//DTD SVG 1.1//EN"
 "http://www.w3.org/Graphics/SVG/1.1/DTD/svg11.dtd">
<!-- Generated by graphviz version 2.34.0 (20140110.0334)
 -->
<!-- Title: src/square.hpp Pages: 1 -->
<svg width="229pt" height="196pt"
 viewBox="0.00 0.00 229.00 196.00" xmlns="http://www.w3.org/2000/svg" xmlns:xlink="http://www.w3.org/1999/xlink">
<g id="graph0" class="graph" transform="scale(1 1) rotate(0) translate(4 192)">
<title>src/square.hpp</title>
<polygon fill="white" stroke="white" points="-4,4 -4,-192 225,-192 225,4 -4,4"/>
<!-- Node1 -->
<g id="node1" class="node"><title>Node1</title>
<polygon fill="#bfbfbf" stroke="black" points="91.5,-168.5 91.5,-187.5 172.5,-187.5 172.5,-168.5 91.5,-168.5"/>
<text text-anchor="middle" x="132" y="-175.5" font-family="Helvetica,sans-Serif" font-size="10.00">src/square.hpp</text>
</g>
<!-- Node2 -->
<g id="node2" class="node"><title>Node2</title>
<g id="a_node2"><a xlink:href="board_8hpp.html" target="_top" xlink:title="Board class header. ">
<polygon fill="white" stroke="black" points="46,-112.5 46,-131.5 122,-131.5 122,-112.5 46,-112.5"/>
<text text-anchor="middle" x="84" y="-119.5" font-family="Helvetica,sans-Serif" font-size="10.00">src/board.hpp</text>
</a>
</g>
</g>
<!-- Node1&#45;&gt;Node2 -->
<g id="edge1" class="edge"><title>Node1&#45;&gt;Node2</title>
<path fill="none" stroke="midnightblue" d="M117.272,-160.431C108.86,-150.967 98.6513,-139.483 91.7787,-131.751"/>
<polygon fill="midnightblue" stroke="midnightblue" points="114.814,-162.934 124.074,-168.083 120.046,-158.284 114.814,-162.934"/>
</g>
<!-- Node6 -->
<g id="node6" class="node"><title>Node6</title>
<g id="a_node6"><a xlink:href="square_8cpp.html" target="_top" xlink:title="Square class implementation. ">
<polygon fill="white" stroke="black" points="140.5,-112.5 140.5,-131.5 221.5,-131.5 221.5,-112.5 140.5,-112.5"/>
<text text-anchor="middle" x="181" y="-119.5" font-family="Helvetica,sans-Serif" font-size="10.00">src/square.cpp</text>
</a>
</g>
</g>
<!-- Node1&#45;&gt;Node6 -->
<g id="edge5" class="edge"><title>Node1&#45;&gt;Node6</title>
<path fill="none" stroke="midnightblue" d="M147.034,-160.431C155.622,-150.967 166.043,-139.483 173.059,-131.751"/>
<polygon fill="midnightblue" stroke="midnightblue" points="144.219,-158.325 140.091,-168.083 149.403,-163.029 144.219,-158.325"/>
</g>
<!-- Node3 -->
<g id="node3" class="node"><title>Node3</title>
<g id="a_node3"><a xlink:href="board_8cpp.html" target="_top" xlink:title="Board class implementation. ">
<polygon fill="white" stroke="black" points="0,-56.5 0,-75.5 76,-75.5 76,-56.5 0,-56.5"/>
<text text-anchor="middle" x="38" y="-63.5" font-family="Helvetica,sans-Serif" font-size="10.00">src/board.cpp</text>
</a>
</g>
</g>
<!-- Node2&#45;&gt;Node3 -->
<g id="edge2" class="edge"><title>Node2&#45;&gt;Node3</title>
<path fill="none" stroke="midnightblue" d="M69.886,-104.431C61.824,-94.9673 52.0408,-83.4827 45.4546,-75.7511"/>
<polygon fill="midnightblue" stroke="midnightblue" points="67.255,-106.74 76.404,-112.083 72.5837,-102.201 67.255,-106.74"/>
</g>
<!-- Node4 -->
<g id="node4" class="node"><title>Node4</title>
<g id="a_node4"><a xlink:href="main_8hpp.html" target="_top" xlink:title="Main file header. ">
<polygon fill="white" stroke="black" points="94.5,-56.5 94.5,-75.5 167.5,-75.5 167.5,-56.5 94.5,-56.5"/>
<text text-anchor="middle" x="131" y="-63.5" font-family="Helvetica,sans-Serif" font-size="10.00">src/main.hpp</text>
</a>
</g>
</g>
<!-- Node2&#45;&gt;Node4 -->
<g id="edge3" class="edge"><title>Node2&#45;&gt;Node4</title>
<path fill="none" stroke="midnightblue" d="M98.4208,-104.431C106.658,-94.9673 116.654,-83.4827 123.383,-75.7511"/>
<polygon fill="midnightblue" stroke="midnightblue" points="95.6863,-102.242 91.7611,-112.083 100.966,-106.838 95.6863,-102.242"/>
</g>
<!-- Node5 -->
<g id="node5" class="node"><title>Node5</title>
<g id="a_node5"><a xlink:href="main_8cpp.html" target="_top" xlink:title="Main file. ">
<polygon fill="white" stroke="black" points="94.5,-0.5 94.5,-19.5 167.5,-19.5 167.5,-0.5 94.5,-0.5"/>
<text text-anchor="middle" x="131" y="-7.5" font-family="Helvetica,sans-Serif" font-size="10.00">src/main.cpp</text>
</a>
</g>
</g>
<!-- Node4&#45;&gt;Node5 -->
<g id="edge4" class="edge"><title>Node4&#45;&gt;Node5</title>
<path fill="none" stroke="midnightblue" d="M131,-45.8045C131,-36.9102 131,-26.7798 131,-19.7511"/>
<polygon fill="midnightblue" stroke="midnightblue" points="127.5,-46.083 131,-56.083 134.5,-46.083 127.5,-46.083"/>
</g>
</g>
</svg>
